<?xml version="1.0" standalone="no"?>
<!DOCTYPE svg PUBLIC "-//W3C//DTD SVG 1.1//EN" "http://www.w3.org/Graphics/SVG/1.1/DTD/svg11.dtd" >
<svg xmlns="http://www.w3.org/2000/svg" xmlns:xlink="http://www.w3.org/1999/xlink" version="1.1">
<metadata>
Created by FontForge 20170731 at Thu Jun 25 21:19:43 2020
 By Aleksey,,,
Copyright 2020 The Epilogue Project Authors (https://github.com/Etcetera-Type-Co/Epilogue)
</metadata>
<defs>
<font id="Epilogue-SemiBold" horiz-adv-x="0" >
  <font-face 
    font-family="Epilogue SemiBold"
    font-weight="600"
    font-stretch="normal"
    units-per-em="2000"
    panose-1="0 0 0 0 0 0 0 0 0 0"
    ascent="1600"
    descent="-400"
    x-height="1062"
    cap-height="1475"
    bbox="-483 -467 2437 2199"
    underline-thickness="50"
    underline-position="-175"
    unicode-range="U+000D-FB02"
  />
<missing-glyph horiz-adv-x="669" 
d="M80 73v1344h509v-1344h-509zM230 176l-30 26l109 98l-109 98l30 26l109 -98l109 98l30 -26l-109 -98l109 -98l-30 -26l-109 98zM230 612l-30 26l109 98l-109 98l30 26l109 -98l109 98l30 -26l-109 -98l109 -98l-30 -26l-109 98zM119 107h431v1276h-431v-1276zM230 1048
l-30 26l110 98l-110 98l30 25l109 -97l109 97l30 -25l-110 -98l110 -98l-30 -26l-109 98z" />
    <glyph glyph-name="fi" unicode="fi" horiz-adv-x="1371" 
d="M261 0v852h-225v210h225v95q0 93 25 163.5t68 119.5t98.5 79.5t119 44.5t126.5 14q60 0 91.5 -7t42.5 -12v-212q-12 4 -41.5 9.5t-63.5 5.5q-61 0 -101 -17.5t-62 -48.5t-31 -71.5t-9 -88.5v-74h294v-210h-294v-852h-263zM984 0v1062h260v-1062h-260zM1115 1258
q-64 0 -111.5 34.5t-47.5 96.5q0 61 47.5 95t111.5 34q63 0 110 -34t47 -95q0 -62 -47 -96.5t-110 -34.5z" />
    <glyph glyph-name="fl" unicode="fl" horiz-adv-x="1400" 
d="M261 0v852h-225v210h225v95q0 93 25 163.5t68 119.5t98.5 79.5t119 44.5t126.5 14q60 0 91.5 -7t42.5 -12v-212q-12 4 -41.5 9.5t-63.5 5.5q-61 0 -101 -17.5t-62 -48.5t-31 -71.5t-9 -88.5v-74h294v-210h-294v-852h-263zM1263 1563v-1563h-259v1563h259z" />
    <glyph glyph-name="f_f" unicode="ff" horiz-adv-x="1714" 
d="M261 0v852h-225v210h225v95q0 93 25 163.5t68 119.5t98.5 79.5t119 44.5t126.5 14q60 0 91.5 -7t42.5 -12v-212q-12 4 -41.5 9.5t-63.5 5.5q-61 0 -101 -17.5t-62 -48.5t-31 -71.5t-9 -88.5v-74h294v-210h-294v-852h-263zM1118 0v852h-225v210h225v95q0 93 25 163.5
t68 119.5t98.5 79.5t119 44.5t126.5 14q60 0 91.5 -7t42.5 -12v-212q-12 4 -41.5 9.5t-63.5 5.5q-61 0 -101 -17.5t-62 -48.5t-31 -71.5t-9 -88.5v-74h294v-210h-294v-852h-263z" />
    <glyph glyph-name="f_f_i" unicode="ffi" horiz-adv-x="2228" 
d="M261 0v852h-225v210h225v95q0 93 25 163.5t68 119.5t98.5 79.5t119 44.5t126.5 14q60 0 91.5 -7t42.5 -12v-212q-12 4 -41.5 9.5t-63.5 5.5q-61 0 -101 -17.5t-62 -48.5t-31 -71.5t-9 -88.5v-74h294v-210h-294v-852h-263zM1118 0v852h-225v210h225v95q0 93 25 163.5
t68 119.5t98.5 79.5t119 44.5t126.5 14q60 0 91.5 -7t42.5 -12v-212q-12 4 -41.5 9.5t-63.5 5.5q-61 0 -101 -17.5t-62 -48.5t-31 -71.5t-9 -88.5v-74h294v-210h-294v-852h-263zM1841 0v1062h260v-1062h-260zM1972 1258q-64 0 -111.5 34.5t-47.5 96.5q0 61 47.5 95t111.5 34
q63 0 110 -34t47 -95q0 -62 -47 -96.5t-110 -34.5z" />
    <glyph glyph-name="f_f_l" unicode="ffl" horiz-adv-x="2257" 
d="M261 0v852h-225v210h225v95q0 93 25 163.5t68 119.5t98.5 79.5t119 44.5t126.5 14q60 0 91.5 -7t42.5 -12v-212q-12 4 -41.5 9.5t-63.5 5.5q-61 0 -101 -17.5t-62 -48.5t-31 -71.5t-9 -88.5v-74h294v-210h-294v-852h-263zM1118 0v852h-225v210h225v95q0 93 25 163.5
t68 119.5t98.5 79.5t119 44.5t126.5 14q60 0 91.5 -7t42.5 -12v-212q-12 4 -41.5 9.5t-63.5 5.5q-61 0 -101 -17.5t-62 -48.5t-31 -71.5t-9 -88.5v-74h294v-210h-294v-852h-263zM2120 1563v-1563h-259v1563h259z" />
    <glyph glyph-name=".notdef" horiz-adv-x="669" 
d="M80 73v1344h509v-1344h-509zM230 176l-30 26l109 98l-109 98l30 26l109 -98l109 98l30 -26l-109 -98l109 -98l-30 -26l-109 98zM230 612l-30 26l109 98l-109 98l30 26l109 -98l109 98l30 -26l-109 -98l109 -98l-30 -26l-109 98zM119 107h431v1276h-431v-1276zM230 1048
l-30 26l110 98l-110 98l30 25l109 -97l109 97l30 -25l-110 -98l110 -98l-30 -26l-109 98z" />
    <glyph glyph-name=".null" 
 />
    <glyph glyph-name="nonmarkingreturn" horiz-adv-x="666" 
 />
    <glyph glyph-name="CR" unicode="&#xd;" horiz-adv-x="884" 
 />
    <glyph glyph-name="space" unicode=" " horiz-adv-x="500" 
 />
    <glyph glyph-name="exclam" unicode="!" horiz-adv-x="596" 
d="M392 1473l-50 -1082h-161l-52 1082h263zM262 -28q-62 0 -105 43t-43 105q0 61 43 104.5t105 43.5q61 0 104.5 -43.5t43.5 -104.5q0 -62 -43.5 -105t-104.5 -43z" />
    <glyph glyph-name="quotedbl" unicode="&#x22;" horiz-adv-x="816" 
d="M309 1475l-24 -470h-147l-23 470h194zM654 1475l-24 -470h-146l-24 470h194z" />
    <glyph glyph-name="numbersign" unicode="#" horiz-adv-x="1691" 
d="M609 1475h228l-366 -1475h-228zM1165 1475h228l-365 -1475h-228zM182 1046h1408l-39 -165h-1408zM95 593h1408l-39 -166h-1408z" />
    <glyph glyph-name="dollar" unicode="$" horiz-adv-x="1134" 
d="M498 1475h130v-1475h-130v1475zM565 197q-95 0 -181 21t-152.5 63t-104.5 104.5t-38 144.5v12v11h262v-8.5v-9.5q0 -65 59.5 -97.5t161.5 -32.5q57 0 106.5 12t80 37t30.5 64q0 63 -65 90t-202 49q-76 13 -150.5 35t-135 59t-97 92t-36.5 134q0 105 63 176.5t168.5 108.5
t232.5 37q122 0 226.5 -40t169 -115t64.5 -181v-8.5v-7.5h-260v6v7q0 46 -29 75t-75 43t-96 14q-46 0 -93.5 -9.5t-79.5 -33t-32 -65.5q0 -40 32.5 -65t91.5 -41.5t137 -29.5q72 -12 146.5 -33t137 -56t100.5 -91.5t38 -139.5q0 -88 -40 -150t-108.5 -102.5t-154 -59.5
t-177.5 -19z" />
    <glyph glyph-name="percent" unicode="%" horiz-adv-x="1256" 
d="M1227 1374l-1098 -1332l-94 81l1097 1332zM329 963q-72 0 -135 30.5t-102 87t-39 135.5t39 136t102 87t135 30q73 0 137.5 -30t104 -87t39.5 -136t-39.5 -135.5t-104 -87t-137.5 -30.5zM329 1072q39 0 75 15.5t59.5 47.5t23.5 81t-23.5 81t-59.5 47.5t-75 15.5
q-38 0 -73 -15.5t-57.5 -47.5t-22.5 -81t22.5 -81t57.5 -47.5t73 -15.5zM915 13q-72 0 -135 30.5t-102 87t-39 135.5t39 136t102 87.5t135 30.5q73 0 137 -30.5t104 -87.5t40 -136t-40 -135.5t-104 -87t-137 -30.5zM915 122q38 0 74.5 15.5t60 47.5t23.5 81q0 50 -23.5 82
t-60 47t-74.5 15t-73.5 -15t-58 -47t-22.5 -82q0 -49 22.5 -81t58 -47.5t73.5 -15.5z" />
    <glyph glyph-name="ampersand" unicode="&#x26;" horiz-adv-x="1458" 
d="M600 -22q-148 0 -266.5 46t-187.5 134t-69 214q0 106 55.5 188t159.5 156t250 155q132 73 193 144.5t61 151.5q0 50 -21.5 83t-57.5 49.5t-78 16.5q-41 0 -79.5 -16.5t-62 -49.5t-23.5 -83q0 -67 43 -139.5t112 -159.5l512 -628q36 -45 66.5 -57t51.5 -12t42.5 5t29.5 9
v-184q-5 -3 -33.5 -10.5t-74.5 -7.5q-51 0 -107.5 24t-101.5 77l-548 668q-49 59 -97.5 127t-80.5 143.5t-32 156.5q0 89 49.5 159t136 110.5t195.5 40.5q110 0 193 -40t129.5 -110t46.5 -158q0 -99 -42.5 -178t-122.5 -147t-194 -133q-158 -91 -243 -165t-85 -174
q0 -64 38.5 -113t103 -76.5t141.5 -27.5q131 0 219.5 38.5t150.5 103.5q65 69 100.5 159t35.5 214h216q0 -120 -27.5 -214.5t-74 -168t-103.5 -131.5q-85 -84 -214.5 -137t-304.5 -53z" />
    <glyph glyph-name="quotesingle" unicode="'" horiz-adv-x="339" 
d="M270 1475l-26 -470h-150l-25 470h201z" />
    <glyph glyph-name="parenleft" unicode="(" horiz-adv-x="832" 
d="M632 -467q-25 19 -77.5 67.5t-114.5 131.5t-119.5 204.5t-95 284.5t-37.5 372q0 210 37.5 373.5t95 285t119.5 204.5t114.5 131.5t77.5 65.5l139 -145q-31 -25 -89 -88.5t-118.5 -173t-102.5 -271t-42 -382.5t42 -382t102.5 -270.5t118.5 -173t89 -89.5z" />
    <glyph glyph-name="parenright" unicode=")" horiz-adv-x="845" 
d="M218 -467l-138 145q31 26 88.5 89.5t118 173t102.5 270.5t42 382t-42 382.5t-102.5 271t-118 173t-88.5 88.5l138 145q25 -17 77.5 -65.5t114.5 -131.5t119.5 -204.5t95 -285t37.5 -373.5q0 -209 -37.5 -372t-95 -284.5t-119.5 -204.5t-114.5 -131.5t-77.5 -67.5z" />
    <glyph glyph-name="asterisk" unicode="*" horiz-adv-x="916" 
d="M547 1192l145 -165l-109 -72l-141 191l-142 -191l-109 72l146 165l-214 70l57 109l200 -79l-7 194h138l-8 -194l200 79l58 -109z" />
    <glyph glyph-name="plus" unicode="+" horiz-adv-x="1256" 
d="M1013 443h-304v-243h-167v243h-304v165h304v244h167v-244h304v-165z" />
    <glyph glyph-name="comma" unicode="," horiz-adv-x="586" 
d="M179 -306l-37 66q46 21 89 61.5t72 87t29 83.5q0 13 -4 26t-10 23h63q-12 -30 -42.5 -50t-75.5 -20q-57 0 -101 37.5t-44 107.5q0 66 46 108.5t118 42.5q79 0 125.5 -52.5t46.5 -137.5q0 -84 -41 -161t-104 -134.5t-130 -87.5z" />
    <glyph glyph-name="hyphen" unicode="-" horiz-adv-x="931" 
d="M80 485v163h717v-163h-717z" />
    <glyph glyph-name="period" unicode="." horiz-adv-x="560" 
d="M280 -28q-62 0 -105 43t-43 105q0 61 43 104.5t105 43.5q61 0 104.5 -43.5t43.5 -104.5q0 -62 -43.5 -105t-104.5 -43z" />
    <glyph glyph-name="slash" unicode="/" horiz-adv-x="877" 
d="M830 1563l-581 -1718h-215l582 1718h214z" />
    <glyph glyph-name="zero" unicode="0" horiz-adv-x="1175" 
d="M580 -22q-134 0 -228.5 60t-153 165t-85.5 241.5t-27 289.5t27 290.5t85.5 243.5t153 167t228.5 61t228.5 -61t152.5 -167t85.5 -243.5t27.5 -290.5t-27.5 -289.5t-85.5 -241.5t-152.5 -165t-228.5 -60zM580 188q76 0 126 57.5t76 178.5t26 310q0 190 -26 311t-76 178.5
t-126 57.5q-75 0 -126 -57.5t-77 -178.5t-26 -311t26 -310.5t77 -178t126 -57.5z" />
    <glyph glyph-name="one" unicode="1" horiz-adv-x="879" 
d="M659 1478v-1478h-262v1223q-10 -10 -52.5 -26.5t-102 -31t-123.5 -20.5v214q64 8 123.5 28t102.5 44.5t58 46.5h256z" />
    <glyph glyph-name="two" unicode="2" horiz-adv-x="1202" 
d="M102 0v219q8 29 50.5 77.5t104 106.5t128.5 117t125 109q70 61 137 127t111 139t44 155q0 109 -52 171.5t-159 62.5q-87 0 -138 -37.5t-73 -104.5t-22 -156h-265q0 155 57 269.5t169 177.5t275 63q157 0 262 -58.5t157.5 -160t52.5 -229.5q0 -87 -32.5 -163.5
t-84.5 -142.5t-111 -121t-113 -100q-88 -72 -156.5 -132.5t-111 -105.5t-52.5 -74h659v-209h-962z" />
    <glyph glyph-name="three" unicode="3" horiz-adv-x="1213" 
d="M808 777q88 -3 147.5 -49t90.5 -122.5t31 -170.5q0 -125 -50.5 -229t-156.5 -166t-271 -62q-140 0 -234 36.5t-150 103t-81 155.5t-25 192v2v2h264v-2v-2q0 -109 28 -169t79 -84t122 -24q95 0 152.5 60.5t57.5 193.5q0 51 -11 93.5t-37.5 73t-71.5 47.5t-114 17h-52v192
h52q68 0 113 18t71.5 48.5t38 69.5t11.5 81q0 106 -56.5 154t-149.5 48q-103 0 -168 -56t-65 -202h-264q0 98 28.5 183t87.5 149.5t152.5 101t223.5 36.5q166 0 270.5 -56t155 -147.5t50.5 -196.5q0 -84 -31 -155t-90.5 -115.5t-147.5 -48.5z" />
    <glyph glyph-name="four" unicode="4" horiz-adv-x="1177" 
d="M659 0v300h-614v189l526 989h345v-973h185v-205h-185v-300h-257zM251 386l-75 119h483v802l57 -15z" />
    <glyph glyph-name="five" unicode="5" horiz-adv-x="1195" 
d="M1027 1270h-581l-53 -420q3 11 20.5 29t51 36.5t83.5 31.5t116 13q194 0 295 -130t101 -341q0 -166 -55 -280t-162 -172.5t-262 -58.5q-127 0 -217.5 37.5t-146.5 102t-82 146t-26 169.5v2v2h261v-2v-2q3 -121 55.5 -183t159.5 -62q68 0 114.5 32.5t71 98t24.5 165.5
q0 133 -47.5 205t-147.5 72q-61 0 -107 -23.5t-75 -57.5t-42 -66l-251 64l106 797h796v-205z" />
    <glyph glyph-name="six" unicode="6" horiz-adv-x="1219" 
d="M603 -22q-167 0 -273 84.5t-157 238.5t-51 363q0 211 34 367t98.5 259.5t156.5 154.5t207 51q126 0 207.5 -43.5t126.5 -108.5t63 -133t18 -118v-2v-4h-245v4v2q0 29 -7 62.5t-26 63t-52 48t-86 18.5q-74 0 -127.5 -63.5t-81.5 -202.5t-28 -365l-66 -1q3 78 47.5 143
t125 104.5t188.5 39.5q134 0 225 -61.5t137.5 -165.5t46.5 -232q0 -145 -54.5 -259t-161 -179t-265.5 -65zM605 188q71 0 118.5 32t71.5 94t24 150q0 84 -23.5 146.5t-68.5 97t-109 34.5q-65 0 -116 -31t-79.5 -89.5t-28.5 -139.5q0 -84 26 -151t73.5 -105t111.5 -38z" />
    <glyph glyph-name="seven" unicode="7" horiz-adv-x="1062" 
d="M728 1269v-2h-649v208h933v-194q-106 -78 -180 -187t-122.5 -240t-75.5 -274.5t-37.5 -291t-10.5 -288.5h-264q0 151 11 301.5t38.5 292t74 267.5t116 230t166.5 178z" />
    <glyph glyph-name="eight" unicode="8" horiz-adv-x="1276" 
d="M635 -22q-164 0 -277 57.5t-172 157t-59 225.5q0 113 43 188.5t105 117.5t122 55q-51 12 -105 50.5t-91.5 109t-37.5 177.5q0 114 62 199.5t168.5 133t241.5 47.5t242 -47.5t168 -133t61 -199.5q0 -107 -37 -177.5t-91 -109t-105 -50.5q60 -13 122 -55t104.5 -117.5
t42.5 -188.5q0 -126 -58.5 -225.5t-172 -157t-276.5 -57.5zM635 188q66 0 120 27.5t85.5 81t31.5 131.5q0 74 -30 129.5t-83 87t-124 31.5t-124.5 -31.5t-83 -87t-29.5 -129.5q0 -78 31.5 -131.5t85.5 -81t120 -27.5zM635 879q97 0 156.5 57t59.5 151q0 69 -29.5 112
t-78.5 64t-108 21t-108 -21t-79 -64t-30 -112q0 -94 59.5 -151t157.5 -57z" />
    <glyph glyph-name="nine" unicode="9" horiz-adv-x="1193" 
d="M580 -23q-127 0 -208 43.5t-126.5 108.5t-63.5 133t-18 118v3v3h246v-3v-3q0 -29 7 -62.5t25.5 -63t52.5 -48t86 -18.5q75 0 127.5 63.5t81 202.5t28.5 365l65 1q-2 -77 -47 -142.5t-125 -105t-189 -39.5q-133 0 -224 61.5t-137.5 165.5t-46.5 232q0 146 54 259.5
t161.5 178.5t265.5 65q166 0 272.5 -84.5t157 -238.5t50.5 -363q0 -211 -34 -367t-98.5 -259.5t-156 -154.5t-206.5 -51zM579 731q66 0 117 31t79.5 89.5t28.5 139.5q0 85 -26 151.5t-73.5 104.5t-112.5 38q-70 0 -117.5 -32t-71.5 -93.5t-24 -150.5q0 -84 23.5 -146.5
t68.5 -97t108 -34.5z" />
    <glyph glyph-name="colon" unicode=":" horiz-adv-x="561" 
d="M280 -28q-62 0 -105 43t-43 105q0 61 43 104.5t105 43.5q61 0 104.5 -43.5t43.5 -104.5q0 -62 -43.5 -105t-104.5 -43zM281 744q-62 0 -105 43t-43 105q0 61 43 104.5t105 43.5q61 0 104.5 -43.5t43.5 -104.5q0 -62 -43.5 -105t-104.5 -43z" />
    <glyph glyph-name="semicolon" unicode=";" horiz-adv-x="600" 
d="M193 -311l-37 66q46 21 89 61.5t72 87t29 83.5q0 13 -4 26t-10 23h63q-12 -30 -42.5 -50t-75.5 -20q-57 0 -101 37.5t-44 107.5q0 66 46 108.5t118 42.5q79 0 125.5 -52.5t46.5 -137.5q0 -84 -41 -161t-104 -134.5t-130 -87.5zM284 744q-62 0 -105 43t-43 105
q0 61 43 104.5t105 43.5q61 0 104.5 -43.5t43.5 -104.5q0 -62 -43.5 -105t-104.5 -43z" />
    <glyph glyph-name="less" unicode="&#x3c;" horiz-adv-x="1256" 
d="M955 44l-656 397v180l656 398v-221l-551 -296v58l551 -294v-222z" />
    <glyph glyph-name="equal" unicode="=" horiz-adv-x="1256" 
d="M999 623h-746v165h746v-165zM999 271h-746v165h746v-165z" />
    <glyph glyph-name="greater" unicode="&#x3e;" horiz-adv-x="1256" 
d="M300 1019l655 -398v-180l-655 -397v222l551 294v-58l-551 296v221z" />
    <glyph glyph-name="question" unicode="?" horiz-adv-x="1127" 
d="M437 384q0 93 28.5 165t72 131.5t88.5 111.5q38 44 71 88t53 93t20 107q0 107 -53.5 161.5t-158.5 54.5q-110 0 -170 -67t-60 -203h-233q0 159 61 260.5t165 150.5t234 49q129 0 229.5 -47t159 -140.5t58.5 -232.5q0 -89 -29.5 -157t-75 -122t-93.5 -103
q-64 -67 -114.5 -135.5t-50.5 -164.5h-202zM550 -28q-62 0 -105.5 43t-43.5 105q0 61 43.5 104.5t105.5 43.5t105 -43.5t43 -104.5q0 -62 -43 -105t-105 -43z" />
    <glyph glyph-name="at" unicode="@" horiz-adv-x="1967" 
d="M1570 112q-70 -39 -181.5 -68.5t-244.5 -45.5t-271 -16q-243 0 -422.5 78t-276.5 227t-97 364q0 184 72.5 338t204 267t309.5 175t387 62q189 0 332.5 -49t240 -134t145.5 -194.5t49 -230.5q0 -122 -41.5 -228t-118.5 -185.5t-185 -124t-242 -44.5q-40 0 -81 9t-68 33
t-29 68v3v3q-22 -48 -80.5 -78.5t-143.5 -30.5q-108 0 -178 44t-104 121t-34 177q0 144 58.5 256t160.5 177t233 65q84 0 137 -31.5t53 -72.5l22 82h178l-144 -586q-1 -6 -2.5 -15.5t-1.5 -11.5q0 -42 22.5 -58.5t60.5 -16.5q95 0 160 38.5t104 103.5t56.5 144t17.5 161
q0 142 -69.5 248t-201 164.5t-319.5 58.5q-174 0 -315.5 -52t-243 -147t-156 -225t-54.5 -286q0 -180 78 -298t216 -175.5t320 -57.5q111 0 221 14t205.5 39t162.5 59zM858 444q71 0 111.5 29t53.5 81q2 3 9.5 34t18.5 75t22.5 90.5t20 83t11.5 49.5q5 23 5 37
q0 37 -25 67.5t-96 30.5q-85 0 -150 -53t-101 -138.5t-36 -184.5q0 -96 40.5 -148.5t115.5 -52.5z" />
    <glyph glyph-name="A" unicode="A" horiz-adv-x="1301" 
d="M63 0l381 1477h416l378 -1477h-271l-316 1314h2l-319 -1314h-271zM309 359v211h686v-211h-686z" />
    <glyph glyph-name="B" unicode="B" horiz-adv-x="1260" 
d="M681 1475q148 0 246 -41.5t147.5 -120.5t49.5 -193q0 -110 -44.5 -186.5t-112.5 -117.5t-140 -46q76 -2 152.5 -37t127.5 -112t51 -207q0 -123 -49 -216.5t-155.5 -145.5t-277.5 -52h-547v1475h552zM381 790l-87 77h297q132 0 200.5 55.5t68.5 154.5q0 67 -28.5 108
t-84 60.5t-133.5 19.5h-352l119 131v-606zM624 210q128 0 197 58t69 162q0 60 -21.5 103.5t-60 71t-90 40.5t-112.5 13h-312l87 78v-657l-119 131h362z" />
    <glyph glyph-name="C" unicode="C" horiz-adv-x="1383" 
d="M1294 531q0 -94 -35 -191t-106.5 -179.5t-180.5 -132.5t-256 -50q-199 0 -339.5 97.5t-214 268.5t-73.5 393q0 223 73.5 394t214 268t339.5 97q165 0 282 -63t187 -162t94 -207q15 -63 15 -120h-265q0 29 -4 60q-11 76 -50.5 138.5t-104.5 99t-154 36.5
q-106 0 -186.5 -59t-126.5 -179t-46 -303q0 -181 46 -302t126.5 -181t186.5 -60q76 0 134 28t98 75.5t60.5 107.5t20.5 126h265z" />
    <glyph glyph-name="D" unicode="D" horiz-adv-x="1311" 
d="M129 0v1475h441q147 0 267 -52.5t206 -149.5t133 -232.5t47 -301.5t-47 -301.5t-133 -233.5t-206 -151t-267 -53h-441zM393 79l-119 131h262q120 0 214.5 64.5t149.5 183t55 281.5q0 164 -55 282t-149.5 181t-214.5 63h-262l119 131v-1317z" />
    <glyph glyph-name="E" unicode="E" horiz-adv-x="1124" 
d="M275 1265l119 131v-630l-62 79h552v-210h-552l62 78v-634l-119 131h720v-210h-866v1475h866v-210h-720z" />
    <glyph glyph-name="F" unicode="F" horiz-adv-x="1093" 
d="M272 1265l119 131v-639l-82 71h602v-211h-602l82 76v-693h-262v1475h871v-210h-728z" />
    <glyph glyph-name="G" unicode="G" horiz-adv-x="1413" 
d="M708 -22q-172 0 -312.5 88t-223.5 257t-83 411q0 243 86 413t232.5 259.5t327.5 89.5q150 0 254.5 -49.5t170 -127.5t95 -164t29.5 -160v-6v-6h-256v6v6q0 52 -18 102t-55 91t-92 65t-128 24q-99 0 -185.5 -55t-140 -174.5t-53.5 -313.5q0 -147 30 -250t81.5 -167
t118 -93.5t140.5 -29.5q100 0 166.5 34t104 85t47.5 100v115h-315v198h551v-726h-152l-22 164q-7 -18 -32.5 -49t-72.5 -62.5t-119.5 -53t-173.5 -21.5z" />
    <glyph glyph-name="H" unicode="H" horiz-adv-x="1361" 
d="M1233 1475v-1475h-264v720l119 -90h-814l119 88v-718h-264v1475h264v-727l-119 92h814l-119 -91v726h264z" />
    <glyph glyph-name="I" unicode="I" horiz-adv-x="522" 
d="M131 0v1475h260v-1475h-260z" />
    <glyph glyph-name="J" unicode="J" horiz-adv-x="1139" 
d="M539 -22q-171 0 -275.5 62.5t-151.5 174t-47 260.5v32v32h261v-19v-21q0 -83 19.5 -152t65.5 -111t128 -42q81 0 126 42t63.5 115.5t18.5 166.5v957h263v-993q0 -106 -23.5 -197t-77 -160t-144.5 -108t-226 -39z" />
    <glyph glyph-name="K" unicode="K" horiz-adv-x="1272" 
d="M619 726l7 203l590 -929h-291l-451 726l122 -17l-227 -304l23 167v-572h-263v1475h263v-781l-50 34l560 747h282z" />
    <glyph glyph-name="L" unicode="L" horiz-adv-x="1031" 
d="M129 0v1475h264v-1396l-119 139h678v-218h-823z" />
    <glyph glyph-name="M" unicode="M" horiz-adv-x="1766" 
d="M1175 1475h448v-1475h-251v1307l6 -2l-317 -1305h-352l-321 1306l6 3v-1309h-251v1475h448l299 -1331h-17z" />
    <glyph glyph-name="N" unicode="N" horiz-adv-x="1427" 
d="M385 0h-256v1475h413l539 -1368l-39 -11v1379h257v-1475h-419l-537 1365l42 10v-1375z" />
    <glyph glyph-name="O" unicode="O" horiz-adv-x="1455" 
d="M727 -22q-134 0 -250 50t-203.5 147.5t-136 239t-48.5 324.5t48.5 324t135.5 237.5t203.5 146t250.5 49.5q136 0 252.5 -49.5t203.5 -146t135.5 -237.5t48.5 -324t-49 -324.5t-136.5 -239t-203.5 -147.5t-251 -50zM727 195q104 0 188 56.5t133.5 176.5t49.5 311
q0 192 -50 310.5t-134 173.5t-187 55q-101 0 -185.5 -55t-135 -173.5t-50.5 -310.5t50.5 -312t135 -176t185.5 -56z" />
    <glyph glyph-name="P" unicode="P" horiz-adv-x="1208" 
d="M393 0h-264v1475h474q170 0 287.5 -64.5t179 -175t61.5 -246.5q0 -137 -62 -251t-180.5 -182.5t-285.5 -68.5h-210v-487zM393 571l-119 125h300q92 0 157 35.5t99.5 101t34.5 156.5t-33.5 152.5t-98.5 92.5t-159 31h-300l119 131v-825z" />
    <glyph glyph-name="Q" unicode="Q" horiz-adv-x="1455" 
d="M610 10h225q0 -53 34.5 -88t83 -56.5t91.5 -32t61 -14.5l-76 -177q-17 2 -64 11t-107 31.5t-116.5 63t-94 105t-37.5 157.5zM727 -22q-134 0 -250 50t-203.5 147.5t-136 239t-48.5 324.5t48.5 324t135.5 237.5t203.5 146t250.5 49.5q136 0 252.5 -49.5t203.5 -146
t135.5 -237.5t48.5 -324t-49 -324.5t-136.5 -239t-203.5 -147.5t-251 -50zM727 195q104 0 188 56.5t133.5 176.5t49.5 311q0 192 -50 310.5t-134 173.5t-187 55q-101 0 -185.5 -55t-135 -173.5t-50.5 -310.5t50.5 -312t135 -176t185.5 -56z" />
    <glyph glyph-name="R" unicode="R" horiz-adv-x="1246" 
d="M129 0v1475h568q223 0 335 -102t112 -300q0 -116 -44 -197t-107 -125t-120 -50q58 -4 112 -30t88.5 -81.5t34.5 -149.5v-149.5v-149.5q0 -47 8 -86.5t20 -54.5h-265q-10 18 -17.5 55.5t-7.5 85.5v133.5v134.5q0 91 -51 138t-154 47h-325l70 89v-683h-257zM386 705l-70 99
h327q65 0 117 30.5t82.5 85.5t30.5 129q0 108 -62 162t-176 54h-326l77 93v-653z" />
    <glyph glyph-name="S" unicode="S" horiz-adv-x="1222" 
d="M610 -22q-157 0 -274 50t-182 150.5t-65 249.5v30.5v30.5h263v-27.5v-28.5q0 -120 65.5 -179.5t193.5 -59.5q129 0 197.5 43t68.5 138q0 69 -46.5 117.5t-127.5 85.5t-184 69q-116 36 -211 93t-152 144t-57 214t65.5 216t180 135.5t260.5 46.5q153 0 269.5 -48
t182.5 -143t66 -237v-33v-32h-264v26.5v26.5q0 114 -62 168.5t-188 54.5q-123 0 -189 -43t-66 -137q0 -70 45 -117t123.5 -81.5t178.5 -69.5q133 -44 230 -99.5t150 -138t53 -209.5q0 -130 -65.5 -220.5t-183 -138t-275.5 -47.5z" />
    <glyph glyph-name="T" unicode="T" horiz-adv-x="1145" 
d="M1074 1265h-467l97 131v-1396h-264v1396l102 -131h-471v210h1003v-210z" />
    <glyph glyph-name="U" unicode="U" horiz-adv-x="1332" 
d="M1204 536q0 -282 -143.5 -420t-395.5 -138q-250 0 -393 138t-143 420v86v94v759h264v-793v-79v-69q0 -178 66.5 -259t205.5 -81q141 0 208 81t67 259v941h264v-939z" />
    <glyph glyph-name="V" unicode="V" horiz-adv-x="1268" 
d="M439 -5l-376 1480h291l288 -1307h-13l285 1307h291l-373 -1480h-393z" />
    <glyph glyph-name="W" unicode="W" horiz-adv-x="1834" 
d="M297 0l-222 1475h272l170 -1406l-38 2l272 1404h332l271 -1404l-38 -2l170 1406h273l-224 -1475h-404l-228 1284h28l-228 -1284h-406z" />
    <glyph glyph-name="X" unicode="X" horiz-adv-x="1279" 
d="M538 836l-3 -214l-474 853h295l343 -676h-119l340 676h296l-471 -853l-2 214l487 -836h-296l-359 660h129l-360 -660h-295z" />
    <glyph glyph-name="Y" unicode="Y" horiz-adv-x="1233" 
d="M1170 1475l-423 -965v-510h-264v510l-420 965h279l327 -826h-106l326 826h281z" />
    <glyph glyph-name="Z" unicode="Z" horiz-adv-x="1147" 
d="M389 210h655v-210h-951v183l667 1083l2 -1h-623v210h914v-180l-664 -1082v-3z" />
    <glyph glyph-name="bracketleft" unicode="[" horiz-adv-x="857" 
d="M703 1644v-190h-304v-1700h304v-191h-540v2081h540z" />
    <glyph glyph-name="backslash" unicode="\" horiz-adv-x="895" 
d="M34 1563h215l581 -1718h-214z" />
    <glyph glyph-name="bracketright" unicode="]" horiz-adv-x="857" 
d="M144 1644h539v-2080h-539v190h303v1700h-303v190z" />
    <glyph glyph-name="asciicircum" unicode="^" horiz-adv-x="1256" 
d="M133 878l397 655h181l397 -655h-221l-296 550h58l-294 -550h-222z" />
    <glyph glyph-name="underscore" unicode="_" horiz-adv-x="1346" 
d="M36 -286v175h1264v-175h-1264z" />
    <glyph glyph-name="grave" unicode="`" horiz-adv-x="703" 
d="M579 1213h-182l-267 262h210z" />
    <glyph glyph-name="a" unicode="a" horiz-adv-x="1243" 
d="M496 -22q-119 0 -209 37.5t-141 108.5t-51 171q0 109 59.5 179.5t160.5 109t224 49.5q182 18 254.5 34.5t72.5 53.5v1.5v0.5q0 70 -63 108t-178 38q-121 0 -185.5 -42.5t-64.5 -134.5h-260q0 125 66.5 211.5t182.5 131.5t263 45q137 0 251 -41t183 -124t69 -207v-42v-42
v-400q0 -38 2.5 -74.5t10.5 -65.5q10 -32 24 -54t22 -30h-260q-7 7 -19.5 27.5t-22.5 47.5q-10 30 -15 64.5t-5 76.5l52 -36q-30 -61 -91.5 -106.5t-146.5 -70.5t-185 -25zM560 185q82 0 152 28t113 86.5t43 150.5v142l64 -72q-64 -24 -154 -39.5t-182 -24.5
q-118 -11 -177.5 -41t-59.5 -98q0 -66 50 -99t151 -33z" />
    <glyph glyph-name="b" unicode="b" horiz-adv-x="1304" 
d="M730 -22q-124 0 -229.5 64.5t-170 176.5t-64.5 252v7.5v6.5l130 3v-5v-5q0 -78 39 -138.5t101.5 -95t133.5 -34.5q115 0 196 79t81 245q0 167 -80.5 244.5t-196.5 77.5q-70 0 -132.5 -33.5t-102 -92.5t-39.5 -138l-130 6q0 141 64.5 250t170 170.5t229.5 61.5
q129 0 240.5 -63.5t180 -185t68.5 -297.5q0 -181 -67 -305t-178 -187.5t-244 -63.5zM132 0v1563h264v-1563h-264z" />
    <glyph glyph-name="c" unicode="c" horiz-adv-x="1265" 
d="M657 -22q-168 0 -297 69t-202 194t-73 293q0 167 73 290t202 189.5t297 66.5q126 0 223 -37t163.5 -98.5t101.5 -135t35 -146.5v-4v-4h-261q0 5 -1 11l-2 12q-8 51 -41 92.5t-88 66.5t-133 25q-83 0 -151.5 -36.5t-109 -109.5t-40.5 -182q0 -108 40 -183.5t108.5 -115
t152.5 -39.5q89 0 145.5 27.5t85.5 74t33 101.5h262q0 -74 -34 -148.5t-100 -136.5t-163.5 -99t-225.5 -37z" />
    <glyph glyph-name="d" unicode="d" horiz-adv-x="1298" 
d="M573 -22q-131 0 -242.5 63.5t-178.5 187.5t-67 305q0 176 68.5 298t180 185t239.5 63q125 0 231 -61.5t170 -170.5t64 -250v-8v-8l-130 -3v6.5v6.5q0 79 -39.5 138t-102 92.5t-132.5 33.5q-115 0 -196 -77.5t-81 -244.5q0 -166 81 -245t196 -79q73 0 135 35t100.5 96.5
t38.5 141.5l130 -6q0 -140 -62.5 -253.5t-167.5 -179.5t-235 -66zM908 0v1563h264v-1563h-264z" />
    <glyph glyph-name="e" unicode="e" horiz-adv-x="1299" 
d="M230 446v187h743l-30 -50v13.5v12.5q0 69 -31 129.5t-94 98t-160 37.5q-96 0 -166.5 -40.5t-109 -116.5t-38.5 -182q0 -109 37 -187.5t108.5 -120t174.5 -41.5q70 0 121 13t83.5 35.5t49 48.5t19.5 52h262q-6 -67 -44.5 -130.5t-107.5 -115t-167.5 -82t-224.5 -30.5
q-171 0 -299 70t-199.5 195t-71.5 286q0 165 72.5 289t201.5 193.5t296 69.5q172 0 297.5 -70t193.5 -194.5t68 -289.5q0 -21 -1 -45t-3 -35h-980z" />
    <glyph glyph-name="f" unicode="f" horiz-adv-x="857" 
d="M261 0v852h-225v210h225v95q0 93 25 163.5t68 119.5t98.5 79.5t119 44.5t126.5 14q60 0 91.5 -7t42.5 -12v-212q-12 4 -41.5 9.5t-63.5 5.5q-61 0 -101 -17.5t-62 -48.5t-31 -71.5t-9 -88.5v-74h294v-210h-294v-852h-263z" />
    <glyph glyph-name="g" unicode="g" horiz-adv-x="1247" 
d="M846 105q94 -9 165 -35t111 -77.5t40 -137.5q0 -96 -65 -166t-190.5 -108t-308.5 -38q-266 0 -409 76.5t-143 207.5q0 37 9 67t22 50l241 -35q-6 -8 -12 -25.5t-6 -42.5q0 -62 83.5 -89.5t222.5 -27.5q102 0 170.5 14t104 40t35.5 61q0 52 -47 67t-112 20l-403 37
q-108 11 -177.5 64t-69.5 140q0 53 28.5 98t65.5 75.5t63 37.5l150 -74q-21 -3 -49.5 -27t-28.5 -57q0 -31 28 -51.5t108 -28.5zM965 1062h236l-96 -412q-27 -116 -87 -208t-160 -145t-252 -53q-158 0 -272.5 51.5t-176.5 145t-62 215.5q0 125 63.5 220.5t175 149.5
t252.5 54q114 0 205 -37.5t145.5 -97.5t58.5 -128l-59 -11zM605 447q77 0 133 25t87 72.5t31 115.5q0 67 -31 115t-87 73.5t-132 25.5q-74 0 -131 -26t-89.5 -74.5t-32.5 -115.5t31.5 -114.5t88 -72t132.5 -24.5z" />
    <glyph glyph-name="h" unicode="h" horiz-adv-x="1269" 
d="M884 0v383v60v73v61q0 132 -51.5 202.5t-175.5 70.5q-83 0 -141.5 -32.5t-89.5 -90.5t-31 -134l-96 51q0 127 57.5 225.5t159.5 154.5t234 56q193 0 295 -114.5t102 -318.5v-123.5v-160.5v-363h-263zM132 0v1563h263v-1563h-263z" />
    <glyph glyph-name="i" unicode="i" horiz-adv-x="515" 
d="M127 0v1062h260v-1062h-260zM258 1258q-64 0 -111.5 34.5t-47.5 96.5q0 61 47.5 95t111.5 34q63 0 110 -34t47 -95q0 -62 -47 -96.5t-110 -34.5z" />
    <glyph glyph-name="j" unicode="j" horiz-adv-x="531" 
d="M-29 -453q-29 0 -55 1.5t-43 4.5v196q16 -4 42.5 -7t55.5 -3q56 0 89 16t49.5 42t22.5 56.5t6 60.5v1148h263v-1156q0 -66 -15.5 -129.5t-59 -115.5t-129 -83t-226.5 -31zM273 1258q-64 0 -111.5 34.5t-47.5 96.5q0 61 47.5 95t111.5 34t111 -34t47 -95q0 -62 -47 -96.5
t-111 -34.5z" />
    <glyph glyph-name="k" unicode="k" horiz-adv-x="1105" 
d="M132 0v1563h250v-916l-57 28l439 387h327l-520 -463l59 108l456 -707h-278l-350 567l64 -11l-170 -152l30 117v-521h-250z" />
    <glyph glyph-name="l" unicode="l" horiz-adv-x="543" 
d="M406 1563v-1563h-259v1563h259z" />
    <glyph glyph-name="m" unicode="m" horiz-adv-x="1833" 
d="M792 0v431v103.5v74.5q0 39 -5 81.5t-22 78.5t-52.5 58.5t-97.5 22.5q-60 0 -101.5 -24.5t-68 -65t-38.5 -92t-12 -105.5l-88 59q0 131 49 234t139.5 163.5t214.5 60.5q128 0 203 -53.5t107.5 -144.5t32.5 -204v-111.5v-163.5v-403h-261zM132 0v1062h263v-1062h-263z
M1448 0v430v107v74q0 42 -5 84.5t-22 77t-53 56t-98 21.5q-61 0 -102.5 -24t-66.5 -64t-36.5 -90t-11.5 -100l-88 58q0 127 48 229t138 161.5t214 59.5q125 0 201 -51t110.5 -139.5t34.5 -201.5v-112v-161v-415h-263z" />
    <glyph glyph-name="n" unicode="n" horiz-adv-x="1268" 
d="M883 0v471v70.5v55.5q0 72 -20.5 129.5t-70 90.5t-136.5 33q-76 0 -135 -36.5t-92.5 -100t-33.5 -146.5l-89 55q0 133 60.5 236.5t162.5 162.5t226 59q128 0 215.5 -50t132 -142t44.5 -216v-108v-118v-446h-264zM132 0v1062h263v-1062h-263z" />
    <glyph glyph-name="o" unicode="o" horiz-adv-x="1308" 
d="M654 -21q-168 0 -296 70.5t-200.5 195.5t-72.5 286q0 162 72.5 285.5t200.5 193.5t296 70t296 -70t200.5 -193.5t72.5 -285.5q0 -161 -72.5 -286t-200.5 -195.5t-296 -70.5zM654 194q91 0 159 42t106 117.5t38 177.5t-38 176.5t-106 115.5t-159 41q-90 0 -158.5 -41
t-106.5 -115.5t-38 -176.5t38 -177.5t106.5 -117.5t158.5 -42z" />
    <glyph glyph-name="p" unicode="p" horiz-adv-x="1304" 
d="M132 -437v1499h263v-1499h-263zM730 -22q-124 0 -229.5 64.5t-170 176.5t-64.5 252v7.5v6.5l130 3v-5v-5q0 -78 39 -138.5t101.5 -95t133.5 -34.5q115 0 196 79t81 245q0 167 -80.5 244.5t-196.5 77.5q-70 0 -132.5 -33.5t-102 -92.5t-39.5 -138l-130 6q0 141 64.5 250
t170 170.5t229.5 61.5q129 0 240.5 -63t180 -185t68.5 -298q0 -181 -67 -305t-178 -187.5t-244 -63.5z" />
    <glyph glyph-name="q" unicode="q" horiz-adv-x="1297" 
d="M573 -22q-131 0 -242.5 63.5t-178.5 187.5t-67 305q0 176 68.5 298t180 185t239.5 63q125 0 231 -61.5t170 -170.5t64 -250v-8v-8l-130 -3v6.5v6.5q0 79 -39.5 138t-102 92.5t-132.5 33.5q-115 0 -196 -77.5t-81 -244.5q0 -166 81 -245t196 -79q73 0 135 35t100.5 96.5
t38.5 141.5l130 -6q0 -140 -62.5 -253.5t-167.5 -179.5t-235 -66zM908 -437v1499h263v-1499h-263z" />
    <glyph glyph-name="r" unicode="r" horiz-adv-x="881" 
d="M132 0v1062h263v-353l-61 34q10 69 37 130.5t72 108t109 72.5t146 26q65 0 102.5 -9.5t46.5 -15.5l-48 -241q-10 7 -40.5 17.5t-81.5 10.5q-81 0 -135.5 -27.5t-86.5 -74t-46 -102t-14 -110.5v-528h-263z" />
    <glyph glyph-name="s" unicode="s" horiz-adv-x="1127" 
d="M561 -22q-95 0 -180.5 21t-152 63t-105 104.5t-38.5 144.5v12v11h262v-8.5v-9.5q0 -65 59.5 -97.5t162.5 -32.5q56 0 105.5 12t80 37t30.5 64q0 63 -64.5 90t-202.5 49q-76 13 -150 35t-134.5 59t-97 92t-36.5 134q0 105 62.5 176.5t168 108.5t232.5 37q122 0 227 -40
t169.5 -115t64.5 -181v-8.5v-7.5h-260v6v7q0 46 -29 75t-75 43t-97 14q-45 0 -93 -9.5t-80 -33t-32 -65.5q0 -40 33 -65t92 -41.5t136 -29.5q73 -12 147.5 -33t136.5 -56t100.5 -91.5t38.5 -139.5q0 -88 -40 -150t-108.5 -102.5t-154.5 -59.5t-178 -19z" />
    <glyph glyph-name="t" unicode="t" horiz-adv-x="933" 
d="M620 -20q-57 0 -116 11t-108 41t-79 88t-30 153v44.5v46.5v488h-251v210h102q52 0 82 4.5t44 21.5t18.5 53.5t4.5 101.5v169h264v-350h316v-210h-316v-426v-37.5v-35.5q0 -74 18 -119t85 -45q32 0 60.5 6t42.5 12v-206q-19 -7 -55 -14t-82 -7z" />
    <glyph glyph-name="u" unicode="u" horiz-adv-x="1245" 
d="M514 -20q-113 0 -187.5 38t-117 100t-60 137t-17.5 150v77v81v499h264v-458v-69v-62q0 -71 17 -131.5t62.5 -97.5t128.5 -37q79 0 136 46.5t88.5 117.5t31.5 144l90 -60q0 -97 -30 -182.5t-87 -151.5t-137.5 -103.5t-181.5 -37.5zM860 0v1062h263v-1062h-263z" />
    <glyph glyph-name="v" unicode="v" horiz-adv-x="1102" 
d="M1064 1062l-333 -1062h-353l-341 1062h272l267 -970h-42l258 970h272z" />
    <glyph glyph-name="w" unicode="w" horiz-adv-x="1605" 
d="M988 0l-247 1062h201l241 -979h-43l154 979h273l-218 -1062h-361zM256 0l-219 1062h273l155 -979h-43l239 979h201l-243 -1062h-363z" />
    <glyph glyph-name="x" unicode="x" horiz-adv-x="1149" 
d="M482 579l-2 -120l-433 603h288l326 -473l-158 1l320 472h282l-415 -569l-7 110l428 -603h-288l-331 472l178 16l-357 -488h-282z" />
    <glyph glyph-name="y" unicode="y" horiz-adv-x="1096" 
d="M201 -456q-47 0 -84 4.5t-46 8.5v205q13 -6 44.5 -9.5t65.5 -3.5q55 0 95.5 22t69.5 60.5t46 89.5l23 67l-366 1074h275l251 -886h-32l245 886h270l-372 -1127q-39 -117 -94.5 -205t-147.5 -137t-243 -49z" />
    <glyph glyph-name="z" unicode="z" horiz-adv-x="1009" 
d="M349 214h595v-214h-879v203l583 654l5 -9h-566v214h846v-203l-579 -652z" />
    <glyph glyph-name="braceleft" unicode="{" horiz-adv-x="842" 
d="M737 1463q-90 0 -137 -51t-47 -158v-407q0 -88 -33.5 -140.5t-87 -77.5t-112.5 -32v12q59 -6 112.5 -31.5t87 -78t33.5 -141.5v-115.5v-133.5v-101.5v-88.5q0 -107 47 -150t137 -43v-193q-124 0 -221.5 28t-153.5 95.5t-56 185.5v98.5v113.5v127.5v110.5q0 72 -15 117
t-51.5 71t-101.5 40v165q65 14 101.5 40t51.5 71t15 117v420q0 118 56 189t153.5 102.5t221.5 31.5v-193z" />
    <glyph glyph-name="bar" unicode="|" horiz-adv-x="615" 
d="M178 -280v1834h206v-1834h-206z" />
    <glyph glyph-name="braceright" unicode="}" horiz-adv-x="842" 
d="M108 1463v193q124 0 221.5 -31.5t154 -102.5t56.5 -189v-103v-105v-106v-106q0 -72 15 -117t51.5 -71t100.5 -40v-165q-64 -14 -100.5 -40t-51.5 -71t-15 -117v-450q0 -118 -56.5 -185.5t-154 -95.5t-221.5 -28v193q90 0 137.5 43t47.5 150v439q0 89 33.5 141.5t86.5 78
t113 31.5v-12q-60 7 -113 32t-86.5 77.5t-33.5 140.5v111v110v92.5v93.5q0 107 -47.5 158t-137.5 51z" />
    <glyph glyph-name="asciitilde" unicode="~" horiz-adv-x="1256" 
d="M937 725q-1 -44 -20.5 -91t-60.5 -80t-106 -33q-51 0 -86 20t-58 39q-22 19 -44.5 33t-51.5 14q-37 0 -52.5 -24.5t-16.5 -58.5h-139q2 45 23.5 93t64.5 81t109 33q48 0 82.5 -20t56.5 -39q23 -19 47 -34t50 -15q35 0 49 24t15 58h138z" />
    <glyph glyph-name="uni00A0" unicode="&#xa0;" horiz-adv-x="500" 
 />
    <glyph glyph-name="exclamdown" unicode="&#xa1;" horiz-adv-x="596" 
d="M181 -419l50 1082h161l52 -1082h-263zM311 1082q62 0 105.5 -43t43.5 -105q0 -61 -43.5 -104.5t-105.5 -43.5q-61 0 -104.5 43.5t-43.5 104.5q0 62 43.5 105t104.5 43z" />
    <glyph glyph-name="cent" unicode="&#xa2;" horiz-adv-x="1265" 
d="M588 1475h122v-1475h-122v1475zM657 190q-168 0 -297 69t-202 194t-73 293q0 167 73 290t202 189.5t297 66.5q126 0 223 -37t163.5 -98.5t101.5 -135t35 -146.5v-4v-4h-261q0 5 -1 11l-2 12q-8 51 -41 92.5t-88 66.5t-133 25q-83 0 -151.5 -36.5t-109 -109.5t-40.5 -182
q0 -108 40 -183.5t108.5 -115t152.5 -39.5q89 0 145.5 27.5t85.5 74t33 101.5h262q0 -74 -34 -148.5t-100 -136.5t-163.5 -99t-225.5 -37z" />
    <glyph glyph-name="sterling" unicode="&#xa3;" horiz-adv-x="1185" 
d="M60 573v163h718v-163h-718zM893 1137q-17 37 -49.5 74.5t-84 63t-127.5 25.5q-82 0 -139 -30t-86.5 -81t-29.5 -113q0 -74 21 -132t49 -119.5t49 -144.5t21 -208q0 -87 -27.5 -160t-70 -131t-88 -100t-84 -66.5t-56.5 -31.5l-104 153q17 8 51 34.5t71 69t62.5 100.5
t25.5 129q0 87 -23.5 160.5t-54 143.5t-54 145.5t-23.5 167.5q0 113 58.5 205t163.5 146t246 54q104 0 180 -24t128 -62t84.5 -80.5t50.5 -78.5zM1084 25q-19 -10 -83 -30.5t-153 -20.5q-76 0 -137 19t-120 37t-130 18q-62 0 -119 -13.5t-97 -29t-54 -22.5l10 34
q12 5 33.5 29.5t52 58t69 65.5t84.5 53.5t100 21.5q72 0 117 -17.5t86 -34.5t100 -17q57 0 98 15.5t53 23.5z" />
    <glyph glyph-name="currency" unicode="&#xa4;" horiz-adv-x="1344" 
d="M1220 1302l119 -118l-239 -239l-119 118zM1220 92l-239 238l119 119l239 -239zM176 1302l239 -239l-118 -118l-239 239zM176 92l-118 118l239 239l118 -119zM698 150q-168 0 -296.5 70.5t-200.5 195.5t-72 286q0 162 72 285.5t200.5 193.5t296.5 70t296 -70t200 -193.5
t72 -285.5q0 -161 -72 -286t-200 -195.5t-296 -70.5zM698 365q90 0 158 42t106 117.5t38 177.5t-38 176.5t-106 115.5t-158 41t-158.5 -41t-106.5 -115.5t-38 -176.5t38 -177.5t106.5 -117.5t158.5 -42z" />
    <glyph glyph-name="yen" unicode="&#xa5;" horiz-adv-x="1233" 
d="M183 503v163h881v-163h-881zM184 218v163h881v-163h-881zM1170 1475l-423 -965v-510h-264v510l-420 965h279l327 -826h-106l326 826h281z" />
    <glyph glyph-name="brokenbar" unicode="&#xa6;" horiz-adv-x="615" 
d="M178 -258v765h206v-765h-206zM178 791v763h206v-763h-206z" />
    <glyph glyph-name="section" unicode="&#xa7;" horiz-adv-x="1293" 
d="M862 201l-162 60q44 17 97 49.5t91 83t38 120.5q0 62 -42 110.5t-114 90t-160 81.5q-105 47 -202 101t-159 123t-62 160q0 95 52.5 163.5t147 105.5t223.5 37t222.5 -36.5t144.5 -108t51 -177.5v-13v-13h-223v13v13q0 57 -18.5 93.5t-48 57t-64.5 28t-69 7.5
q-87 0 -141.5 -38.5t-54.5 -117.5q0 -58 46 -103t117.5 -82t148.5 -70t148 -68.5t126 -81.5t87.5 -107.5t32.5 -145.5q0 -63 -24.5 -118t-64 -98t-83 -73.5t-81.5 -45.5zM623 -304q-128 0 -221.5 36.5t-144.5 108.5t-51 178v13v13h223v-13v-13q0 -57 18 -94t47.5 -57t65 -28
t69.5 -8q87 0 141 39t54 118q0 58 -45.5 103t-117.5 81.5t-149 70.5q-77 33 -147.5 69t-126 81.5t-87.5 106.5t-32 145q0 64 24.5 118.5t63.5 98t83 74t82 44.5l162 -59q-45 -16 -98 -49t-90.5 -83.5t-37.5 -121.5q0 -61 42 -110t113.5 -90.5t160.5 -80.5
q105 -46 201.5 -100.5t158.5 -123.5t62 -161q0 -95 -52 -163.5t-147 -105.5t-224 -37z" />
    <glyph glyph-name="dieresis" unicode="&#xa8;" horiz-adv-x="828" 
d="M188 1254q-58 0 -101.5 31.5t-43.5 88.5t43.5 88t101.5 31q59 0 102.5 -31t43.5 -88q0 -58 -43.5 -89t-102.5 -31zM640 1254q-59 0 -102 31.5t-43 88.5t43 88t102 31q58 0 101.5 -31t43.5 -88q0 -58 -43.5 -89t-101.5 -31z" />
    <glyph glyph-name="copyright" unicode="&#xa9;" horiz-adv-x="1714" 
d="M818 28q-205 0 -368.5 87t-258 247.5t-94.5 378.5t94.5 377t258 246t368.5 87q204 0 366.5 -87t257 -246t94.5 -377t-94.5 -378.5t-257 -247.5t-366.5 -87zM818 122q175 0 316 75.5t223.5 215t82.5 328.5q0 188 -82.5 327t-223.5 214.5t-316 75.5q-176 0 -318 -75.5
t-225 -214.5t-83 -327q0 -189 83 -328.5t225 -215t318 -75.5zM820 262q-120 0 -222 53.5t-164 160t-62 266.5q0 149 55 255.5t155.5 164.5t237.5 58q109 0 187.5 -35.5t129.5 -90t75.5 -115.5t24.5 -111v-9.5v-9.5h-193v5.5v5.5q0 27 -11 62.5t-37 69t-69 55.5t-107 22
q-124 0 -189 -83.5t-65 -241.5q0 -108 31.5 -182t88.5 -111t134 -37q70 0 120 30t77 80.5t27 108.5h193q0 -113 -55 -196.5t-149.5 -129t-212.5 -45.5z" />
    <glyph glyph-name="ordfeminine" unicode="&#xaa;" horiz-adv-x="685" 
d="M585 1019h-111q-7 14 -12.5 40t-5.5 54v195v13v13q0 32 -25.5 49t-82.5 17q-60 0 -93.5 -19.5t-33.5 -60.5h-107q0 80 66 123t169 43q94 0 156.5 -37.5t62.5 -121.5v-8v-9v-178q0 -41 5 -70t12 -43zM285 1012q-84 0 -134.5 35t-50.5 97q0 47 28 74.5t75.5 42t105.5 21.5
q87 11 117 21.5t30 29.5l49 -53q-3 -18 -52.5 -38t-125.5 -31q-58 -8 -85.5 -19.5t-27.5 -40.5t28.5 -40.5t74.5 -11.5q50 0 95.5 29t45.5 85l52 -38q0 -49 -32 -86t-84 -57t-109 -20z" />
    <glyph glyph-name="guillemotleft" unicode="&#xab;" horiz-adv-x="866" 
d="M507 885l-327 -320l327 -314h-156l-323 314l323 320h156zM839 885l-326 -320l324 -314h-155l-323 314l324 320h156z" />
    <glyph glyph-name="logicalnot" unicode="&#xac;" horiz-adv-x="1256" 
d="M829 311v378l119 -119h-698v162h742v-421h-163z" />
    <glyph glyph-name="uni00AD" unicode="&#xad;" horiz-adv-x="721" 
d="M80 485v163h508v-163h-508z" />
    <glyph glyph-name="registered" unicode="&#xae;" horiz-adv-x="1208" 
d="M593 497q-144 0 -261.5 63.5t-186.5 175t-69 253.5q0 141 69 252.5t186.5 175.5t261.5 64q145 0 261.5 -64t185.5 -175.5t69 -252.5q0 -142 -69 -253.5t-185.5 -175t-261.5 -63.5zM593 576q128 0 224.5 52t149.5 145t53 216q0 122 -53 215t-149.5 144.5t-224.5 51.5
t-224.5 -51.5t-150 -144.5t-53.5 -215q0 -123 53.5 -216t150 -145t224.5 -52zM400 702v583h207q95 0 145 -38.5t50 -119.5q0 -64 -31.5 -96.5t-79.5 -36.5q45 -4 67 -29t22 -67v-64v-64q0 -31 4.5 -47.5t8.5 -20.5h-101q-1 3 -5 20.5t-4 47.5v48v48q0 40 -16.5 57
t-42.5 21.5t-56 4.5h-68v-247h-100zM500 1032h83q64 0 93.5 26.5t29.5 66.5q0 42 -25.5 61.5t-77.5 19.5h-103v-174z" />
    <glyph glyph-name="macron" unicode="&#xaf;" horiz-adv-x="825" 
d="M117 1297v112h588v-112h-588z" />
    <glyph glyph-name="degree" unicode="&#xb0;" horiz-adv-x="659" 
d="M316 1224q43 0 72.5 29t29.5 72q0 42 -29.5 71t-72.5 29q-41 0 -70.5 -29t-29.5 -71q0 -43 29.5 -72t70.5 -29zM316 1108q-59 0 -108.5 29t-79 78.5t-29.5 109.5q0 59 29.5 108.5t79 79t108.5 29.5q61 0 110 -29.5t78 -79t29 -108.5q0 -60 -29 -109.5t-78 -78.5t-110 -29
z" />
    <glyph glyph-name="plusminus" unicode="&#xb1;" horiz-adv-x="1256" 
d="M245 154v164h759v-164h-759zM1013 637h-304v-243h-167v243h-304v165h304v244h167v-244h304v-165z" />
    <glyph glyph-name="uni00B2" unicode="&#xb2;" horiz-adv-x="965" 
d="M88 590v177q8 23 57.5 58.5t119 75.5t136.5 76q58 31 112 67t88.5 76t34.5 84q0 56 -39.5 89t-122.5 33q-100 0 -139 -45.5t-39 -115.5h-215q0 151 101.5 237.5t295.5 86.5q124 0 207 -37t124.5 -101t41.5 -143q0 -75 -44 -130t-108 -96.5t-124 -74.5
q-48 -27 -94.5 -56.5t-78.5 -56t-37 -46.5h484v-158h-761z" />
    <glyph glyph-name="uni00B3" unicode="&#xb3;" horiz-adv-x="975" 
d="M670 1056q105 -3 147 -61t42 -144q0 -73 -39.5 -136t-123 -102t-214.5 -39q-111 0 -186 25.5t-119.5 68.5t-63.5 98t-19 114v1v1h215v-1v-1q0 -83 47 -112.5t128 -29.5q72 0 116 34t44 98q0 32 -18 57t-54 39t-87 14h-35v139h35q51 0 86.5 14t54 37.5t18.5 52.5
q0 52 -43 78t-113 26q-79 0 -129 -29.5t-50 -101.5h-215q0 76 40 143t126 108.5t223 41.5q132 0 214.5 -33.5t122 -89t39.5 -120.5q0 -73 -43 -130t-146 -60z" />
    <glyph glyph-name="acute" unicode="&#xb4;" horiz-adv-x="608" 
d="M61 1213l238 262h211l-268 -262h-181z" />
    <glyph glyph-name="uni00B5" unicode="&#xb5;" horiz-adv-x="1223" 
d="M838 0v1062h263v-1062h-263zM838 479l81 -60q0 -84 -22.5 -162t-67 -140.5t-109.5 -98.5t-149 -36q-87 0 -128.5 31.5t-56.5 69.5v-520h-264v1499h264v-535v-27.5v-26.5q0 -71 14 -134t56.5 -101.5t125.5 -38.5q79 0 136 39.5t88.5 103.5t31.5 137z" />
    <glyph glyph-name="paragraph" unicode="&#xb6;" horiz-adv-x="1297" 
d="M658 -170v757h-23q-138 0 -235 38t-157 102t-87.5 143.5t-27.5 163.5q0 80 25 157.5t83 141t156 102t243 38.5h518v-1643h-183v1480h-131v-1480h-181z" />
    <glyph glyph-name="periodcentered" unicode="&#xb7;" horiz-adv-x="560" 
d="M280 592q-62 0 -105 43.5t-43 105.5q0 61 43 104.5t105 43.5q61 0 104.5 -43.5t43.5 -104.5q0 -62 -43.5 -105.5t-104.5 -43.5z" />
    <glyph glyph-name="cedilla" unicode="&#xb8;" horiz-adv-x="889" 
d="M531 -82q35 0 69 -15.5t56.5 -48.5t22.5 -86q0 -64 -38 -105.5t-98 -61.5t-127 -20q-60 0 -118.5 15t-81.5 31l53 99q17 -11 61 -27.5t96 -16.5q57 0 96 23.5t39 67.5q0 37 -20.5 53t-50.5 16q-24 0 -49.5 -9t-38.5 -26l-104 29l71 164h120l-61 -140l-21 4q10 22 45.5 38
t78.5 16z" />
    <glyph glyph-name="uni00B9" unicode="&#xb9;" horiz-adv-x="713" 
d="M483 1475v-885h-214v690q-6 -8 -39 -23t-80 -28t-98 -15v153q51 5 97.5 23t79.5 41.5t45 43.5h209z" />
    <glyph glyph-name="ordmasculine" unicode="&#xba;" horiz-adv-x="792" 
d="M386 1017q-65 0 -123 28t-93.5 79.5t-35.5 123.5q0 73 35.5 125t93.5 79.5t123 27.5q67 0 125.5 -27.5t95 -79.5t36.5 -125q0 -72 -36.5 -123.5t-95 -79.5t-125.5 -28zM386 1115q36 0 69.5 14.5t55 44t21.5 74.5q0 46 -21.5 75.5t-55 44t-69.5 14.5q-35 0 -68 -14.5
t-53.5 -44t-20.5 -75.5q0 -45 20.5 -74.5t53.5 -44t68 -14.5z" />
    <glyph glyph-name="guillemotright" unicode="&#xbb;" horiz-adv-x="839" 
d="M331 885h155l326 -320l-326 -314h-155l329 314zM28 885h155l326 -320l-325 -314h-155l326 314z" />
    <glyph glyph-name="onequarter" unicode="&#xbc;" horiz-adv-x="1935" 
d="M483 1475v-885h-214v690q-6 -8 -39 -23t-80 -28t-98 -15v153q51 5 97.5 23t79.5 41.5t45 43.5h209zM230 0l1050 1475h192l-1050 -1475h-192zM1501 0v170h-438v134l380 581h273v-570h142v-145h-142v-170h-215zM1221 229l-57 86h337v434l41 -12z" />
    <glyph glyph-name="onehalf" unicode="&#xbd;" horiz-adv-x="1955" 
d="M483 1475v-885h-214v690q-6 -8 -39 -23t-80 -28t-98 -15v153q51 5 97.5 23t79.5 41.5t45 43.5h209zM230 0l1050 1475h192l-1050 -1475h-192zM1077 0v177q8 23 57.5 58.5t119 75.5t136.5 76q58 31 112 67t88.5 76t34.5 84q0 56 -39.5 89t-122.5 33q-100 0 -139 -45.5
t-39 -115.5h-215q0 151 101.5 237.5t295.5 86.5q124 0 207 -37t124.5 -101t41.5 -143q0 -75 -44 -130t-108 -96.5t-124 -74.5q-48 -27 -94.5 -56.5t-78.5 -56t-37 -46.5h484v-158h-761z" />
    <glyph glyph-name="threequarters" unicode="&#xbe;" horiz-adv-x="2198" 
d="M670 1056q105 -3 147 -61t42 -144q0 -73 -39.5 -136t-123 -102t-214.5 -39q-111 0 -186 25.5t-119.5 68.5t-63.5 98t-19 114v1v1h215v-1v-1q0 -83 47 -112.5t128 -29.5q72 0 116 34t44 98q0 32 -18 57t-54 39t-87 14h-35v139h35q51 0 86.5 14t54 37.5t18.5 52.5
q0 52 -43 78t-113 26q-79 0 -129 -29.5t-50 -101.5h-215q0 76 40 143t126 108.5t223 41.5q132 0 214.5 -33.5t122 -89t39.5 -120.5q0 -73 -43 -130t-146 -60zM492 0l1050 1475h192l-1050 -1475h-192zM1764 0v170h-438v134l380 581h273v-570h142v-145h-142v-170h-215z
M1484 229l-57 86h337v434l41 -12z" />
    <glyph glyph-name="questiondown" unicode="&#xbf;" horiz-adv-x="1127" 
d="M667 670q0 -92 -28.5 -164.5t-71.5 -132t-90 -111.5q-38 -43 -71 -87.5t-53.5 -93.5t-20.5 -107q0 -107 54.5 -161.5t159.5 -54.5q110 0 169.5 67.5t59.5 202.5h232q0 -159 -60.5 -260.5t-164.5 -150.5t-233 -49t-230 47t-159 140.5t-58 232.5q0 90 29 157.5t74.5 122
t93.5 102.5q65 67 115.5 135.5t50.5 164.5h202zM553 1082q62 0 105 -43t43 -105q0 -61 -43 -104.5t-105 -43.5q-61 0 -104.5 43.5t-43.5 104.5q0 62 43.5 105t104.5 43z" />
    <glyph glyph-name="Agrave" unicode="&#xc0;" horiz-adv-x="1301" 
d="M63 0l381 1477h416l378 -1477h-271l-316 1314h2l-319 -1314h-271zM309 359v211h686v-211h-686zM807 1556h-195l-301 198h220z" />
    <glyph glyph-name="Aacute" unicode="&#xc1;" horiz-adv-x="1301" 
d="M63 0l381 1477h416l378 -1477h-271l-316 1314h2l-319 -1314h-271zM309 359v211h686v-211h-686zM499 1556l276 198h220l-300 -198h-196z" />
    <glyph glyph-name="Acircumflex" unicode="&#xc2;" horiz-adv-x="1301" 
d="M63 0l381 1477h416l378 -1477h-271l-316 1314h2l-319 -1314h-271zM309 359v211h686v-211h-686zM331 1554l231 198h179l232 -198h-176l-181 158h71l-182 -158h-174z" />
    <glyph glyph-name="Atilde" unicode="&#xc3;" horiz-adv-x="1301" 
d="M63 0l381 1477h416l378 -1477h-271l-316 1314h2l-319 -1314h-271zM309 359v211h686v-211h-686zM976 1749q-1 -44 -20.5 -91.5t-60.5 -80.5t-106 -33q-51 0 -86 20t-58 40q-22 19 -44.5 33t-51.5 14q-37 0 -52.5 -24.5t-16.5 -59.5h-139q2 46 23.5 94t64.5 80.5t109 32.5
q48 0 82.5 -19.5t56.5 -38.5q23 -19 47 -34t50 -15q35 0 49 23.5t15 58.5h138z" />
    <glyph glyph-name="Adieresis" unicode="&#xc4;" horiz-adv-x="1301" 
d="M63 0l381 1477h416l378 -1477h-271l-316 1314h2l-319 -1314h-271zM309 359v211h686v-211h-686zM426 1549q-58 0 -101.5 31.5t-43.5 88.5t43.5 88t101.5 31q59 0 102.5 -31t43.5 -88q0 -58 -43.5 -89t-102.5 -31zM878 1549q-59 0 -102 31.5t-43 88.5t43 88t102 31
q58 0 101.5 -31t43.5 -88q0 -58 -43.5 -89t-101.5 -31z" />
    <glyph glyph-name="Aring" unicode="&#xc5;" horiz-adv-x="1301" 
d="M63 0l381 1477h416l378 -1477h-271l-316 1314h2l-319 -1314h-271zM309 359v211h686v-211h-686zM652 1635q42 0 71.5 29t29.5 72q0 42 -29.5 71t-71.5 29t-71.5 -29t-29.5 -71q0 -43 29.5 -72t71.5 -29zM652 1519q-60 0 -109 29t-78.5 78.5t-29.5 109.5q0 59 29.5 108.5
t78.5 79t109 29.5t109 -29.5t78.5 -79t29.5 -108.5q0 -60 -29.5 -109.5t-78.5 -78.5t-109 -29z" />
    <glyph glyph-name="AE" unicode="&#xc6;" horiz-adv-x="1948" 
d="M0 0l850 1475h970v-210h-701l87 87v-588l-76 81h579v-210h-573l70 75v-576l-76 76h690v-210h-867v1255l21 -15l-688 -1240h-286zM382 300l52 203h639v-203h-691z" />
    <glyph glyph-name="Ccedilla" unicode="&#xc7;" horiz-adv-x="1383" 
d="M1294 531q0 -94 -35 -191t-106.5 -179.5t-180.5 -132.5t-256 -50q-151 0 -268 57t-197 160.5t-121 242t-41 299.5q0 163 41 301t121 241t197 160t268 57q165 0 282 -63t187 -162t94 -207q15 -63 15 -120h-265q0 29 -4 60q-11 76 -50.5 138.5t-104.5 99t-154 36.5
q-106 0 -186.5 -59t-126.5 -179t-46 -303q0 -181 46 -302t126.5 -181t186.5 -60q76 0 134 28t98 75.5t60.5 107.5t20.5 126h265zM812 -82q35 0 68.5 -15.5t56.5 -48.5t23 -86q0 -64 -38 -105.5t-98 -61.5t-127 -20q-60 0 -118.5 15t-81.5 31l52 99q18 -11 62 -27.5t95 -16.5
q58 0 96.5 23.5t38.5 67.5q0 37 -20 53t-50 16q-25 0 -50 -9t-38 -26l-102 29l71 164h115l-60 -140l-13 4q10 22 42 38t76 16z" />
    <glyph glyph-name="Egrave" unicode="&#xc8;" horiz-adv-x="1124" 
d="M275 1265l119 131v-630l-62 79h552v-210h-552l62 78v-634l-119 131h720v-210h-866v1475h866v-210h-720zM730 1556h-195l-301 198h220z" />
    <glyph glyph-name="Eacute" unicode="&#xc9;" horiz-adv-x="1124" 
d="M275 1265l119 131v-630l-62 79h552v-210h-552l62 78v-634l-119 131h720v-210h-866v1475h866v-210h-720zM422 1556l276 198h220l-300 -198h-196z" />
    <glyph glyph-name="Ecircumflex" unicode="&#xca;" horiz-adv-x="1124" 
d="M275 1265l119 131v-630l-62 79h552v-210h-552l62 78v-634l-119 131h720v-210h-866v1475h866v-210h-720zM254 1554l231 198h179l232 -198h-176l-181 158h71l-182 -158h-174z" />
    <glyph glyph-name="Edieresis" unicode="&#xcb;" horiz-adv-x="1124" 
d="M275 1265l119 131v-630l-62 79h552v-210h-552l62 78v-634l-119 131h720v-210h-866v1475h866v-210h-720zM349 1549q-58 0 -101.5 31.5t-43.5 88.5t43.5 88t101.5 31q59 0 102.5 -31t43.5 -88q0 -58 -43.5 -89t-102.5 -31zM801 1549q-59 0 -102 31.5t-43 88.5t43 88t102 31
q58 0 101.5 -31t43.5 -88q0 -58 -43.5 -89t-101.5 -31z" />
    <glyph glyph-name="Igrave" unicode="&#xcc;" horiz-adv-x="522" 
d="M131 0v1475h260v-1475h-260zM417 1556h-195l-301 198h220z" />
    <glyph glyph-name="Iacute" unicode="&#xcd;" horiz-adv-x="522" 
d="M131 0v1475h260v-1475h-260zM109 1556l276 198h220l-300 -198h-196z" />
    <glyph glyph-name="Icircumflex" unicode="&#xce;" horiz-adv-x="522" 
d="M131 0v1475h260v-1475h-260zM-59 1554l231 198h179l232 -198h-176l-181 158h71l-182 -158h-174z" />
    <glyph glyph-name="Idieresis" unicode="&#xcf;" horiz-adv-x="522" 
d="M131 0v1475h260v-1475h-260zM94 1554q-59 0 -102.5 31.5t-43.5 88.5t43.5 88.5t102.5 31.5q57 0 101 -31.5t44 -88.5t-44 -88.5t-101 -31.5zM434 1554q-59 0 -102 31.5t-43 88.5t43 88.5t102 31.5q58 0 101.5 -31.5t43.5 -88.5t-43.5 -88.5t-101.5 -31.5z" />
    <glyph glyph-name="Eth" unicode="&#xd0;" horiz-adv-x="1311" 
d="M8 676v121h717v-121h-717zM129 0v1475h441q147 0 267 -52.5t206 -149.5t133 -232.5t47 -301.5t-47 -301.5t-133 -233.5t-206 -151t-267 -53h-441zM393 79l-119 131h262q120 0 214.5 64.5t149.5 183t55 281.5q0 164 -55 282t-149.5 181t-214.5 63h-262l119 131v-1317z" />
    <glyph glyph-name="Ntilde" unicode="&#xd1;" horiz-adv-x="1427" 
d="M385 0h-256v1475h413l539 -1368l-39 -11v1379h257v-1475h-419l-537 1365l42 10v-1375zM1052 1749q-1 -44 -20.5 -91.5t-60.5 -80.5t-106 -33q-51 0 -86 20t-58 40q-22 19 -44.5 33t-51.5 14q-37 0 -52.5 -24.5t-16.5 -59.5h-139q2 46 23.5 94t64.5 80.5t109 32.5
q48 0 82.5 -19.5t56.5 -38.5q23 -19 47 -34t50 -15q35 0 49 23.5t15 58.5h138z" />
    <glyph glyph-name="Ograve" unicode="&#xd2;" horiz-adv-x="1455" 
d="M727 -22q-134 0 -250 50t-203.5 147.5t-136 239t-48.5 324.5t48.5 324t135.5 237.5t203.5 146t250.5 49.5q136 0 252.5 -49.5t203.5 -146t135.5 -237.5t48.5 -324t-49 -324.5t-136.5 -239t-203.5 -147.5t-251 -50zM727 195q104 0 188 56.5t133.5 176.5t49.5 311
q0 192 -50 310.5t-134 173.5t-187 55q-101 0 -185.5 -55t-135 -173.5t-50.5 -310.5t50.5 -312t135 -176t185.5 -56zM883 1556h-195l-301 198h220z" />
    <glyph glyph-name="Oacute" unicode="&#xd3;" horiz-adv-x="1455" 
d="M727 -22q-134 0 -250 50t-203.5 147.5t-136 239t-48.5 324.5t48.5 324t135.5 237.5t203.5 146t250.5 49.5q136 0 252.5 -49.5t203.5 -146t135.5 -237.5t48.5 -324t-49 -324.5t-136.5 -239t-203.5 -147.5t-251 -50zM727 195q104 0 188 56.5t133.5 176.5t49.5 311
q0 192 -50 310.5t-134 173.5t-187 55q-101 0 -185.5 -55t-135 -173.5t-50.5 -310.5t50.5 -312t135 -176t185.5 -56zM575 1556l276 198h220l-300 -198h-196z" />
    <glyph glyph-name="Ocircumflex" unicode="&#xd4;" horiz-adv-x="1455" 
d="M727 -22q-134 0 -250 50t-203.5 147.5t-136 239t-48.5 324.5t48.5 324t135.5 237.5t203.5 146t250.5 49.5q136 0 252.5 -49.5t203.5 -146t135.5 -237.5t48.5 -324t-49 -324.5t-136.5 -239t-203.5 -147.5t-251 -50zM727 195q104 0 188 56.5t133.5 176.5t49.5 311
q0 192 -50 310.5t-134 173.5t-187 55q-101 0 -185.5 -55t-135 -173.5t-50.5 -310.5t50.5 -312t135 -176t185.5 -56zM407 1554l231 198h179l232 -198h-176l-181 158h71l-182 -158h-174z" />
    <glyph glyph-name="Otilde" unicode="&#xd5;" horiz-adv-x="1455" 
d="M727 -22q-134 0 -250 50t-203.5 147.5t-136 239t-48.5 324.5t48.5 324t135.5 237.5t203.5 146t250.5 49.5q136 0 252.5 -49.5t203.5 -146t135.5 -237.5t48.5 -324t-49 -324.5t-136.5 -239t-203.5 -147.5t-251 -50zM727 195q104 0 188 56.5t133.5 176.5t49.5 311
q0 192 -50 310.5t-134 173.5t-187 55q-101 0 -185.5 -55t-135 -173.5t-50.5 -310.5t50.5 -312t135 -176t185.5 -56zM1051 1749q-1 -44 -20.5 -91.5t-60.5 -80.5t-106 -33q-51 0 -86 20t-58 40q-22 19 -44.5 33t-51.5 14q-37 0 -52.5 -24.5t-16.5 -59.5h-139q2 46 23.5 94
t64.5 80.5t109 32.5q48 0 82.5 -19.5t56.5 -38.5q23 -19 47 -34t50 -15q35 0 49 23.5t15 58.5h138z" />
    <glyph glyph-name="Odieresis" unicode="&#xd6;" horiz-adv-x="1455" 
d="M727 -22q-134 0 -250 50t-203.5 147.5t-136 239t-48.5 324.5t48.5 324t135.5 237.5t203.5 146t250.5 49.5q136 0 252.5 -49.5t203.5 -146t135.5 -237.5t48.5 -324t-49 -324.5t-136.5 -239t-203.5 -147.5t-251 -50zM727 195q104 0 188 56.5t133.5 176.5t49.5 311
q0 192 -50 310.5t-134 173.5t-187 55q-101 0 -185.5 -55t-135 -173.5t-50.5 -310.5t50.5 -312t135 -176t185.5 -56zM502 1549q-58 0 -101.5 31.5t-43.5 88.5t43.5 88t101.5 31q59 0 102.5 -31t43.5 -88q0 -58 -43.5 -89t-102.5 -31zM954 1549q-59 0 -102 31.5t-43 88.5
t43 88t102 31q58 0 101.5 -31t43.5 -88q0 -58 -43.5 -89t-101.5 -31z" />
    <glyph glyph-name="multiply" unicode="&#xd7;" horiz-adv-x="1256" 
d="M392 200l-117 116l588 527l118 -116zM981 316l-118 -118l-589 528l117 117z" />
    <glyph glyph-name="Oslash" unicode="&#xd8;" horiz-adv-x="1455" 
d="M1275 1495l-959 -1592l-137 78l957 1592zM727 -22q-134 0 -250 50t-203.5 147.5t-136 239t-48.5 324.5t48.5 324t135.5 237.5t203.5 146t250.5 49.5q136 0 252.5 -49.5t203.5 -146t135.5 -237.5t48.5 -324t-49 -324.5t-136.5 -239t-203.5 -147.5t-251 -50zM727 195
q104 0 188 56.5t133.5 176.5t49.5 311q0 192 -50 310.5t-134 173.5t-187 55q-101 0 -185.5 -55t-135 -173.5t-50.5 -310.5t50.5 -312t135 -176t185.5 -56z" />
    <glyph glyph-name="Ugrave" unicode="&#xd9;" horiz-adv-x="1332" 
d="M1204 536q0 -282 -143.5 -420t-395.5 -138q-250 0 -393 138t-143 420v86v94v759h264v-793v-79v-69q0 -178 66.5 -259t205.5 -81q141 0 208 81t67 259v941h264v-939zM821 1556h-195l-301 198h220z" />
    <glyph glyph-name="Uacute" unicode="&#xda;" horiz-adv-x="1332" 
d="M1204 536q0 -282 -143.5 -420t-395.5 -138q-250 0 -393 138t-143 420v86v94v759h264v-793v-79v-69q0 -178 66.5 -259t205.5 -81q141 0 208 81t67 259v941h264v-939zM513 1556l276 198h220l-300 -198h-196z" />
    <glyph glyph-name="Ucircumflex" unicode="&#xdb;" horiz-adv-x="1332" 
d="M1204 536q0 -282 -143.5 -420t-395.5 -138q-250 0 -393 138t-143 420v86v94v759h264v-793v-79v-69q0 -178 66.5 -259t205.5 -81q141 0 208 81t67 259v941h264v-939zM345 1554l231 198h179l232 -198h-176l-181 158h71l-182 -158h-174z" />
    <glyph glyph-name="Udieresis" unicode="&#xdc;" horiz-adv-x="1332" 
d="M1204 536q0 -282 -143.5 -420t-395.5 -138q-250 0 -393 138t-143 420v86v94v759h264v-793v-79v-69q0 -178 66.5 -259t205.5 -81q141 0 208 81t67 259v941h264v-939zM440 1549q-58 0 -101.5 31.5t-43.5 88.5t43.5 88t101.5 31q59 0 102.5 -31t43.5 -88q0 -58 -43.5 -89
t-102.5 -31zM892 1549q-59 0 -102 31.5t-43 88.5t43 88t102 31q58 0 101.5 -31t43.5 -88q0 -58 -43.5 -89t-101.5 -31z" />
    <glyph glyph-name="Yacute" unicode="&#xdd;" horiz-adv-x="1233" 
d="M1170 1475l-423 -965v-510h-264v510l-420 965h279l327 -826h-106l326 826h281zM464 1556l276 198h220l-300 -198h-196z" />
    <glyph glyph-name="Thorn" unicode="&#xde;" horiz-adv-x="1164" 
d="M129 0v1473h263v-404l-81 80h287q141 0 248.5 -47.5t168 -141t60.5 -231.5q0 -139 -61 -232.5t-168.5 -140.5t-247.5 -47h-287l81 80v-389h-263zM392 443l-64 76h243q71 0 125.5 23t85.5 70t31 117q0 72 -31 118t-86 68.5t-125 22.5h-248l69 81v-576z" />
    <glyph glyph-name="germandbls" unicode="&#xdf;" horiz-adv-x="1243" 
d="M107 0v971q0 127 30.5 218t82.5 151.5t118.5 95.5t140 50t146.5 15q118 0 214.5 -43t153.5 -121.5t57 -186.5q0 -87 -38 -145.5t-72 -92.5q-27 -26 -43 -50t-16 -51q0 -24 31 -54t77 -69q39 -31 78 -73t65 -97.5t26 -130.5q0 -124 -51.5 -213.5t-158.5 -138t-276 -48.5
q-61 0 -111.5 8t-75.5 16l37 212q17 -7 57 -17t93 -10q107 0 166.5 39.5t59.5 135.5q0 43 -20 80t-50 69t-62 59q-51 47 -95.5 104.5t-44.5 122.5q0 59 25.5 100t56.5 69q37 35 66 76.5t29 88.5q0 40 -18 74t-58.5 55t-109.5 21q-126 0 -187.5 -79.5t-61.5 -270.5v-940h-261
z" />
    <glyph glyph-name="agrave" unicode="&#xe0;" horiz-adv-x="1243" 
d="M496 -22q-119 0 -209 37.5t-141 108.5t-51 171q0 109 59.5 179.5t160.5 109t224 49.5q182 18 254.5 34.5t72.5 53.5v1.5v0.5q0 70 -63 108t-178 38q-121 0 -185.5 -42.5t-64.5 -134.5h-260q0 125 66.5 211.5t182.5 131.5t263 45q137 0 251 -41t183 -124t69 -207v-42v-42
v-400q0 -38 2.5 -74.5t10.5 -65.5q10 -32 24 -54t22 -30h-260q-7 7 -19.5 27.5t-22.5 47.5q-10 30 -15 64.5t-5 76.5l52 -36q-30 -61 -91.5 -106.5t-146.5 -70.5t-185 -25zM560 185q82 0 152 28t113 86.5t43 150.5v142l64 -72q-64 -24 -154 -39.5t-182 -24.5
q-118 -11 -177.5 -41t-59.5 -98q0 -66 50 -99t151 -33zM785 1209h-182l-267 262h210z" />
    <glyph glyph-name="aacute" unicode="&#xe1;" horiz-adv-x="1243" 
d="M496 -22q-119 0 -209 37.5t-141 108.5t-51 171q0 109 59.5 179.5t160.5 109t224 49.5q182 18 254.5 34.5t72.5 53.5v1.5v0.5q0 70 -63 108t-178 38q-121 0 -185.5 -42.5t-64.5 -134.5h-260q0 125 66.5 211.5t182.5 131.5t263 45q137 0 251 -41t183 -124t69 -207v-42v-42
v-400q0 -38 2.5 -74.5t10.5 -65.5q10 -32 24 -54t22 -30h-260q-7 7 -19.5 27.5t-22.5 47.5q-10 30 -15 64.5t-5 76.5l52 -36q-30 -61 -91.5 -106.5t-146.5 -70.5t-185 -25zM560 185q82 0 152 28t113 86.5t43 150.5v142l64 -72q-64 -24 -154 -39.5t-182 -24.5
q-118 -11 -177.5 -41t-59.5 -98q0 -66 50 -99t151 -33zM492 1213l238 262h211l-268 -262h-181z" />
    <glyph glyph-name="acircumflex" unicode="&#xe2;" horiz-adv-x="1243" 
d="M496 -22q-119 0 -209 37.5t-141 108.5t-51 171q0 109 59.5 179.5t160.5 109t224 49.5q182 18 254.5 34.5t72.5 53.5v1.5v0.5q0 70 -63 108t-178 38q-121 0 -185.5 -42.5t-64.5 -134.5h-260q0 125 66.5 211.5t182.5 131.5t263 45q137 0 251 -41t183 -124t69 -207v-42v-42
v-400q0 -38 2.5 -74.5t10.5 -65.5q10 -32 24 -54t22 -30h-260q-7 7 -19.5 27.5t-22.5 47.5q-10 30 -15 64.5t-5 76.5l52 -36q-30 -61 -91.5 -106.5t-146.5 -70.5t-185 -25zM560 185q82 0 152 28t113 86.5t43 150.5v142l64 -72q-64 -24 -154 -39.5t-182 -24.5
q-118 -11 -177.5 -41t-59.5 -98q0 -66 50 -99t151 -33zM324 1213l230 262h174l231 -262h-173l-182 213h72l-181 -213h-171z" />
    <glyph glyph-name="atilde" unicode="&#xe3;" horiz-adv-x="1243" 
d="M496 -22q-119 0 -209 37.5t-141 108.5t-51 171q0 109 59.5 179.5t160.5 109t224 49.5q182 18 254.5 34.5t72.5 53.5v1.5v0.5q0 70 -63 108t-178 38q-121 0 -185.5 -42.5t-64.5 -134.5h-260q0 125 66.5 211.5t182.5 131.5t263 45q137 0 251 -41t183 -124t69 -207v-42v-42
v-400q0 -38 2.5 -74.5t10.5 -65.5q10 -32 24 -54t22 -30h-260q-7 7 -19.5 27.5t-22.5 47.5q-10 30 -15 64.5t-5 76.5l52 -36q-30 -61 -91.5 -106.5t-146.5 -70.5t-185 -25zM560 185q82 0 152 28t113 86.5t43 150.5v142l64 -72q-64 -24 -154 -39.5t-182 -24.5
q-118 -11 -177.5 -41t-59.5 -98q0 -66 50 -99t151 -33zM958 1454q-1 -44 -20.5 -91t-60.5 -80t-106 -33q-51 0 -86 20t-58 39q-22 19 -44.5 33t-51.5 14q-37 0 -52.5 -24.5t-16.5 -58.5h-139q2 45 23.5 93t64.5 81t109 33q48 0 82.5 -20t56.5 -39q23 -19 47 -34t50 -15
q35 0 49 24t15 58h138z" />
    <glyph glyph-name="adieresis" unicode="&#xe4;" horiz-adv-x="1243" 
d="M496 -22q-119 0 -209 37.5t-141 108.5t-51 171q0 109 59.5 179.5t160.5 109t224 49.5q182 18 254.5 34.5t72.5 53.5v1.5v0.5q0 70 -63 108t-178 38q-121 0 -185.5 -42.5t-64.5 -134.5h-260q0 125 66.5 211.5t182.5 131.5t263 45q137 0 251 -41t183 -124t69 -207v-42v-42
v-400q0 -38 2.5 -74.5t10.5 -65.5q10 -32 24 -54t22 -30h-260q-7 7 -19.5 27.5t-22.5 47.5q-10 30 -15 64.5t-5 76.5l52 -36q-30 -61 -91.5 -106.5t-146.5 -70.5t-185 -25zM560 185q82 0 152 28t113 86.5t43 150.5v142l64 -72q-64 -24 -154 -39.5t-182 -24.5
q-118 -11 -177.5 -41t-59.5 -98q0 -66 50 -99t151 -33zM414 1254q-58 0 -101.5 31.5t-43.5 88.5t43.5 88t101.5 31q59 0 102.5 -31t43.5 -88q0 -58 -43.5 -89t-102.5 -31zM866 1254q-59 0 -102 31.5t-43 88.5t43 88t102 31q58 0 101.5 -31t43.5 -88q0 -58 -43.5 -89
t-101.5 -31z" />
    <glyph glyph-name="aring" unicode="&#xe5;" horiz-adv-x="1243" 
d="M496 -22q-119 0 -209 37.5t-141 108.5t-51 171q0 109 59.5 179.5t160.5 109t224 49.5q182 18 254.5 34.5t72.5 53.5v1.5v0.5q0 70 -63 108t-178 38q-121 0 -185.5 -42.5t-64.5 -134.5h-260q0 125 66.5 211.5t182.5 131.5t263 45q137 0 251 -41t183 -124t69 -207v-42v-42
v-400q0 -38 2.5 -74.5t10.5 -65.5q10 -32 24 -54t22 -30h-260q-7 7 -19.5 27.5t-22.5 47.5q-10 30 -15 64.5t-5 76.5l52 -36q-30 -61 -91.5 -106.5t-146.5 -70.5t-185 -25zM560 185q82 0 152 28t113 86.5t43 150.5v142l64 -72q-64 -24 -154 -39.5t-182 -24.5
q-118 -11 -177.5 -41t-59.5 -98q0 -66 50 -99t151 -33zM641 1261q42 0 71.5 29.5t29.5 71.5t-29.5 71.5t-71.5 29.5t-71.5 -29t-29.5 -72q0 -42 29.5 -71.5t71.5 -29.5zM641 1145q-60 0 -109 29.5t-78.5 79t-29.5 108.5q0 60 29.5 109t78.5 78.5t109 29.5t109 -29.5
t78.5 -78.5t29.5 -109q0 -59 -29.5 -108.5t-78.5 -79t-109 -29.5z" />
    <glyph glyph-name="ae" unicode="&#xe6;" horiz-adv-x="2139" 
d="M572 -22q-222 0 -349.5 93t-127.5 248q0 83 37.5 140.5t104 92.5t154 51t187.5 16q135 0 209 3t102.5 15.5t28.5 39.5v12.5v11.5q0 85 -72 129.5t-186 44.5q-80 0 -144 -19.5t-100.5 -59t-36.5 -100.5h-260q0 94 43 165.5t117.5 120.5t173 73.5t208.5 24.5
q134 0 245.5 -44t175.5 -135q10 -11 18.5 -23t16.5 -25l-92 4q75 104 196 163.5t274 59.5q172 0 297.5 -71.5t193.5 -197.5t68 -291q0 -21 -1 -42t-2 -32h-984l112 91q0 -15 0.5 -29t2.5 -27q8 -92 46.5 -160t107 -104.5t166.5 -36.5q69 0 120 15t85 39t51 50.5t20 50.5h260
q-5 -62 -43.5 -125.5t-107.5 -116t-167.5 -84.5t-225.5 -32q-112 0 -208 32t-169 91.5t-119 139.5l79 12q-37 -102 -118 -162.5t-183 -86t-204 -25.5zM586 187q57 0 115.5 15t109 52t81.5 104t31 171v17v17l66 -88q-74 -17 -173 -22t-199 -5q-127 0 -192 -24.5t-65 -97.5
q0 -70 63 -104.5t163 -34.5zM1190 629h598q0 5 -0.5 12.5t-2.5 15.5q-10 59 -45.5 109.5t-96 82t-145.5 31.5q-80 0 -144.5 -30.5t-106.5 -86.5t-57 -134z" />
    <glyph glyph-name="ccedilla" unicode="&#xe7;" horiz-adv-x="1265" 
d="M753 -82q35 0 69 -15.5t56.5 -48.5t22.5 -86q0 -64 -38 -105.5t-98 -61.5t-127 -20q-60 0 -118.5 15t-81.5 31l53 99q17 -11 61.5 -27.5t95.5 -16.5q57 0 96 23.5t39 67.5q0 37 -20.5 53t-50.5 16q-24 0 -49.5 -9t-37.5 -26l-105 29l71 164h120l-61 -140l-20 4
q9 22 44.5 38t78.5 16zM657 -22q-168 0 -297 69t-202 194t-73 293q0 167 73 290t202 189.5t297 66.5q126 0 223 -37t163.5 -98.5t101.5 -135t35 -146.5v-4v-4h-261q0 5 -1 11l-2 12q-8 51 -41 92.5t-88 66.5t-133 25q-83 0 -151.5 -36.5t-109 -109.5t-40.5 -182
q0 -108 40 -183.5t108.5 -115t152.5 -39.5q89 0 145.5 27.5t85.5 74t33 101.5h262q0 -74 -34 -148.5t-100 -136.5t-163.5 -99t-225.5 -37z" />
    <glyph glyph-name="egrave" unicode="&#xe8;" horiz-adv-x="1299" 
d="M230 446v187h743l-30 -50v13.5v12.5q0 69 -31 129.5t-94 98t-160 37.5q-96 0 -166.5 -40.5t-109 -116.5t-38.5 -182q0 -109 37 -187.5t108.5 -120t174.5 -41.5q70 0 121 13t83.5 35.5t49 48.5t19.5 52h262q-6 -67 -44.5 -130.5t-107.5 -115t-167.5 -82t-224.5 -30.5
q-171 0 -299 70t-199.5 195t-71.5 286q0 165 72.5 289t201.5 193.5t296 69.5q172 0 297.5 -70t193.5 -194.5t68 -289.5q0 -21 -1 -45t-3 -35h-980zM798 1209h-182l-267 262h210z" />
    <glyph glyph-name="eacute" unicode="&#xe9;" horiz-adv-x="1299" 
d="M230 446v187h743l-30 -50v13.5v12.5q0 69 -31 129.5t-94 98t-160 37.5q-96 0 -166.5 -40.5t-109 -116.5t-38.5 -182q0 -109 37 -187.5t108.5 -120t174.5 -41.5q70 0 121 13t83.5 35.5t49 48.5t19.5 52h262q-6 -67 -44.5 -130.5t-107.5 -115t-167.5 -82t-224.5 -30.5
q-171 0 -299 70t-199.5 195t-71.5 286q0 165 72.5 289t201.5 193.5t296 69.5q172 0 297.5 -70t193.5 -194.5t68 -289.5q0 -21 -1 -45t-3 -35h-980zM504 1213l238 262h211l-268 -262h-181z" />
    <glyph glyph-name="ecircumflex" unicode="&#xea;" horiz-adv-x="1299" 
d="M230 446v187h743l-30 -50v13.5v12.5q0 69 -31 129.5t-94 98t-160 37.5q-96 0 -166.5 -40.5t-109 -116.5t-38.5 -182q0 -109 37 -187.5t108.5 -120t174.5 -41.5q70 0 121 13t83.5 35.5t49 48.5t19.5 52h262q-6 -67 -44.5 -130.5t-107.5 -115t-167.5 -82t-224.5 -30.5
q-171 0 -299 70t-199.5 195t-71.5 286q0 165 72.5 289t201.5 193.5t296 69.5q172 0 297.5 -70t193.5 -194.5t68 -289.5q0 -21 -1 -45t-3 -35h-980zM337 1213l230 262h174l231 -262h-173l-182 213h72l-181 -213h-171z" />
    <glyph glyph-name="edieresis" unicode="&#xeb;" horiz-adv-x="1299" 
d="M230 446v187h743l-30 -50v13.5v12.5q0 69 -31 129.5t-94 98t-160 37.5q-96 0 -166.5 -40.5t-109 -116.5t-38.5 -182q0 -109 37 -187.5t108.5 -120t174.5 -41.5q70 0 121 13t83.5 35.5t49 48.5t19.5 52h262q-6 -67 -44.5 -130.5t-107.5 -115t-167.5 -82t-224.5 -30.5
q-171 0 -299 70t-199.5 195t-71.5 286q0 165 72.5 289t201.5 193.5t296 69.5q172 0 297.5 -70t193.5 -194.5t68 -289.5q0 -21 -1 -45t-3 -35h-980zM427 1254q-58 0 -101.5 31.5t-43.5 88.5t43.5 88t101.5 31q59 0 102.5 -31t43.5 -88q0 -58 -43.5 -89t-102.5 -31zM879 1254
q-59 0 -102 31.5t-43 88.5t43 88t102 31q58 0 101.5 -31t43.5 -88q0 -58 -43.5 -89t-101.5 -31z" />
    <glyph glyph-name="igrave" unicode="&#xec;" horiz-adv-x="514" 
d="M127 0v1062h260v-1062h-260zM402 1209h-182l-267 262h210z" />
    <glyph glyph-name="iacute" unicode="&#xed;" horiz-adv-x="514" 
d="M127 0v1062h260v-1062h-260zM108 1213l238 262h211l-268 -262h-181z" />
    <glyph glyph-name="icircumflex" unicode="&#xee;" horiz-adv-x="514" 
d="M127 0v1062h260v-1062h-260zM-59 1213l230 262h174l231 -262h-173l-182 213h72l-181 -213h-171z" />
    <glyph glyph-name="idieresis" unicode="&#xef;" horiz-adv-x="514" 
d="M127 0v1062h260v-1062h-260zM87 1254q-59 0 -102.5 31.5t-43.5 88.5t43.5 88t102.5 31q57 0 101 -31t44 -88q0 -58 -44 -89t-101 -31zM427 1254q-59 0 -102 31.5t-43 88.5t43 88t102 31q58 0 101.5 -31t43.5 -88q0 -58 -43.5 -89t-101.5 -31z" />
    <glyph glyph-name="eth" unicode="&#xf0;" horiz-adv-x="1349" 
d="M488 1262l339 306l162 -90l-338 -304zM975 531q0 241 -45 400t-125 257.5t-187 154.5t-231 90l128 135q148 -39 276.5 -115.5t225.5 -198.5t151.5 -301t54.5 -422h-248zM654 -22q-168 0 -296 71t-200.5 196t-72.5 286q0 162 72.5 285.5t200.5 193.5t296 70t296 -70
t200.5 -193.5t72.5 -285.5q0 -161 -72.5 -286t-200.5 -196t-296 -71zM654 192q91 0 159.5 42.5t106.5 118.5t38 178t-38 177.5t-106.5 116.5t-159.5 41q-90 0 -159 -41t-107 -116.5t-38 -177.5t38 -178t107 -118.5t159 -42.5z" />
    <glyph glyph-name="ntilde" unicode="&#xf1;" horiz-adv-x="1268" 
d="M883 0v471v70.5v55.5q0 72 -20.5 129.5t-70 90.5t-136.5 33q-76 0 -135 -36.5t-92.5 -100t-33.5 -146.5l-89 55q0 133 60.5 236.5t162.5 162.5t226 59q128 0 215.5 -50t132 -142t44.5 -216v-108v-118v-446h-264zM132 0v1062h263v-1062h-263zM972 1454q-1 -44 -20.5 -91
t-60.5 -80t-106 -33q-51 0 -86 20t-58 39q-22 19 -44.5 33t-51.5 14q-37 0 -52.5 -24.5t-16.5 -58.5h-139q2 45 23.5 93t64.5 81t109 33q48 0 82.5 -20t56.5 -39q23 -19 47 -34t50 -15q35 0 49 24t15 58h138z" />
    <glyph glyph-name="ograve" unicode="&#xf2;" horiz-adv-x="1308" 
d="M654 -21q-168 0 -296 70.5t-200.5 195.5t-72.5 286q0 162 72.5 285.5t200.5 193.5t296 70t296 -70t200.5 -193.5t72.5 -285.5q0 -161 -72.5 -286t-200.5 -195.5t-296 -70.5zM654 194q91 0 159 42t106 117.5t38 177.5t-38 176.5t-106 115.5t-159 41q-90 0 -158.5 -41
t-106.5 -115.5t-38 -176.5t38 -177.5t106.5 -117.5t158.5 -42zM799 1209h-182l-267 262h210z" />
    <glyph glyph-name="oacute" unicode="&#xf3;" horiz-adv-x="1308" 
d="M654 -21q-168 0 -296 70.5t-200.5 195.5t-72.5 286q0 162 72.5 285.5t200.5 193.5t296 70t296 -70t200.5 -193.5t72.5 -285.5q0 -161 -72.5 -286t-200.5 -195.5t-296 -70.5zM654 194q91 0 159 42t106 117.5t38 177.5t-38 176.5t-106 115.5t-159 41q-90 0 -158.5 -41
t-106.5 -115.5t-38 -176.5t38 -177.5t106.5 -117.5t158.5 -42zM505 1213l238 262h211l-268 -262h-181z" />
    <glyph glyph-name="ocircumflex" unicode="&#xf4;" horiz-adv-x="1308" 
d="M654 -21q-168 0 -296 70.5t-200.5 195.5t-72.5 286q0 162 72.5 285.5t200.5 193.5t296 70t296 -70t200.5 -193.5t72.5 -285.5q0 -161 -72.5 -286t-200.5 -195.5t-296 -70.5zM654 194q91 0 159 42t106 117.5t38 177.5t-38 176.5t-106 115.5t-159 41q-90 0 -158.5 -41
t-106.5 -115.5t-38 -176.5t38 -177.5t106.5 -117.5t158.5 -42zM337 1213l230 262h174l231 -262h-173l-182 213h72l-181 -213h-171z" />
    <glyph glyph-name="otilde" unicode="&#xf5;" horiz-adv-x="1308" 
d="M654 -21q-168 0 -296 70.5t-200.5 195.5t-72.5 286q0 162 72.5 285.5t200.5 193.5t296 70t296 -70t200.5 -193.5t72.5 -285.5q0 -161 -72.5 -286t-200.5 -195.5t-296 -70.5zM654 194q91 0 159 42t106 117.5t38 177.5t-38 176.5t-106 115.5t-159 41q-90 0 -158.5 -41
t-106.5 -115.5t-38 -176.5t38 -177.5t106.5 -117.5t158.5 -42zM972 1454q-1 -44 -20.5 -91t-60.5 -80t-106 -33q-51 0 -86 20t-58 39q-22 19 -44.5 33t-51.5 14q-37 0 -52.5 -24.5t-16.5 -58.5h-139q2 45 23.5 93t64.5 81t109 33q48 0 82.5 -20t56.5 -39q23 -19 47 -34
t50 -15q35 0 49 24t15 58h138z" />
    <glyph glyph-name="odieresis" unicode="&#xf6;" horiz-adv-x="1308" 
d="M654 -21q-168 0 -296 70.5t-200.5 195.5t-72.5 286q0 162 72.5 285.5t200.5 193.5t296 70t296 -70t200.5 -193.5t72.5 -285.5q0 -161 -72.5 -286t-200.5 -195.5t-296 -70.5zM654 194q91 0 159 42t106 117.5t38 177.5t-38 176.5t-106 115.5t-159 41q-90 0 -158.5 -41
t-106.5 -115.5t-38 -176.5t38 -177.5t106.5 -117.5t158.5 -42zM428 1254q-58 0 -101.5 31.5t-43.5 88.5t43.5 88t101.5 31q59 0 102.5 -31t43.5 -88q0 -58 -43.5 -89t-102.5 -31zM880 1254q-59 0 -102 31.5t-43 88.5t43 88t102 31q58 0 101.5 -31t43.5 -88q0 -58 -43.5 -89
t-101.5 -31z" />
    <glyph glyph-name="divide" unicode="&#xf7;" horiz-adv-x="1256" 
d="M269 439v165h718v-165h-718zM623 755q-47 0 -79 30.5t-32 76.5t32 76.5t79 30.5q48 0 79.5 -30.5t31.5 -76.5t-31.5 -76.5t-79.5 -30.5zM623 79q-47 0 -79 30.5t-32 75.5q0 47 32 77.5t79 30.5q48 0 79.5 -30.5t31.5 -77.5q0 -45 -31.5 -75.5t-79.5 -30.5z" />
    <glyph glyph-name="oslash" unicode="&#xf8;" horiz-adv-x="1308" 
d="M1081 1040l-761 -1096l-107 77l761 1095zM654 -21q-168 0 -296 70.5t-200.5 195.5t-72.5 286q0 162 72.5 285.5t200.5 193.5t296 70t296 -70t200.5 -193.5t72.5 -285.5q0 -161 -72.5 -286t-200.5 -195.5t-296 -70.5zM654 194q91 0 159 42t106 117.5t38 177.5t-38 176.5
t-106 115.5t-159 41q-90 0 -158.5 -41t-106.5 -115.5t-38 -176.5t38 -177.5t106.5 -117.5t158.5 -42z" />
    <glyph glyph-name="ugrave" unicode="&#xf9;" horiz-adv-x="1245" 
d="M514 -20q-113 0 -187.5 38t-117 100t-60 137t-17.5 150v77v81v499h264v-458v-69v-62q0 -71 17 -131.5t62.5 -97.5t128.5 -37q79 0 136 46.5t88.5 117.5t31.5 144l90 -60q0 -97 -30 -182.5t-87 -151.5t-137.5 -103.5t-181.5 -37.5zM860 0v1062h263v-1062h-263zM758 1209
h-182l-267 262h210z" />
    <glyph glyph-name="uacute" unicode="&#xfa;" horiz-adv-x="1245" 
d="M514 -20q-113 0 -187.5 38t-117 100t-60 137t-17.5 150v77v81v499h264v-458v-69v-62q0 -71 17 -131.5t62.5 -97.5t128.5 -37q79 0 136 46.5t88.5 117.5t31.5 144l90 -60q0 -97 -30 -182.5t-87 -151.5t-137.5 -103.5t-181.5 -37.5zM860 0v1062h263v-1062h-263zM464 1213
l238 262h211l-268 -262h-181z" />
    <glyph glyph-name="ucircumflex" unicode="&#xfb;" horiz-adv-x="1245" 
d="M514 -20q-113 0 -187.5 38t-117 100t-60 137t-17.5 150v77v81v499h264v-458v-69v-62q0 -71 17 -131.5t62.5 -97.5t128.5 -37q79 0 136 46.5t88.5 117.5t31.5 144l90 -60q0 -97 -30 -182.5t-87 -151.5t-137.5 -103.5t-181.5 -37.5zM860 0v1062h263v-1062h-263zM296 1213
l230 262h174l231 -262h-173l-182 213h72l-181 -213h-171z" />
    <glyph glyph-name="udieresis" unicode="&#xfc;" horiz-adv-x="1245" 
d="M514 -20q-113 0 -187.5 38t-117 100t-60 137t-17.5 150v77v81v499h264v-458v-69v-62q0 -71 17 -131.5t62.5 -97.5t128.5 -37q79 0 136 46.5t88.5 117.5t31.5 144l90 -60q0 -97 -30 -182.5t-87 -151.5t-137.5 -103.5t-181.5 -37.5zM860 0v1062h263v-1062h-263zM387 1254
q-58 0 -101.5 31.5t-43.5 88.5t43.5 88t101.5 31q59 0 102.5 -31t43.5 -88q0 -58 -43.5 -89t-102.5 -31zM839 1254q-59 0 -102 31.5t-43 88.5t43 88t102 31q58 0 101.5 -31t43.5 -88q0 -58 -43.5 -89t-101.5 -31z" />
    <glyph glyph-name="yacute" unicode="&#xfd;" horiz-adv-x="1096" 
d="M201 -456q-47 0 -84 4.5t-46 8.5v205q13 -6 44.5 -9.5t65.5 -3.5q55 0 95.5 22t69.5 60.5t46 89.5l23 67l-366 1074h275l251 -886h-32l245 886h270l-372 -1127q-39 -117 -94.5 -205t-147.5 -137t-243 -49zM401 1213l238 262h211l-268 -262h-181z" />
    <glyph glyph-name="thorn" unicode="&#xfe;" horiz-adv-x="1303" 
d="M730 -22q-125 0 -230.5 64.5t-170 176.5t-64.5 252v7.5v6.5l130 3v-5v-5q0 -78 39.5 -138.5t102 -95t132.5 -34.5q115 0 196.5 79t81.5 245q0 167 -81 244.5t-197 77.5q-70 0 -132.5 -33.5t-102 -92.5t-39.5 -138l-130 6q0 141 64.5 250t170 170.5t230.5 61.5
q129 0 240 -63.5t179.5 -185t68.5 -297.5q0 -181 -67 -305t-178 -187.5t-243 -63.5zM132 -437v2000h263v-2000h-263z" />
    <glyph glyph-name="ydieresis" unicode="&#xff;" horiz-adv-x="1096" 
d="M201 -456q-47 0 -84 4.5t-46 8.5v205q13 -6 44.5 -9.5t65.5 -3.5q55 0 95.5 22t69.5 60.5t46 89.5l23 67l-366 1074h275l251 -886h-32l245 886h270l-372 -1127q-39 -117 -94.5 -205t-147.5 -137t-243 -49zM324 1254q-58 0 -101.5 31.5t-43.5 88.5t43.5 88t101.5 31
q59 0 102.5 -31t43.5 -88q0 -58 -43.5 -89t-102.5 -31zM776 1254q-59 0 -102 31.5t-43 88.5t43 88t102 31q58 0 101.5 -31t43.5 -88q0 -58 -43.5 -89t-101.5 -31z" />
    <glyph glyph-name="Amacron" unicode="&#x100;" horiz-adv-x="1301" 
d="M63 0l381 1477h416l378 -1477h-271l-316 1314h2l-319 -1314h-271zM309 359v211h686v-211h-686zM357 1610v111h588v-111h-588z" />
    <glyph glyph-name="amacron" unicode="&#x101;" horiz-adv-x="1243" 
d="M496 -22q-119 0 -209 37.5t-141 108.5t-51 171q0 109 59.5 179.5t160.5 109t224 49.5q182 18 254.5 34.5t72.5 53.5v1.5v0.5q0 70 -63 108t-178 38q-121 0 -185.5 -42.5t-64.5 -134.5h-260q0 125 66.5 211.5t182.5 131.5t263 45q137 0 251 -41t183 -124t69 -207v-42v-42
v-400q0 -38 2.5 -74.5t10.5 -65.5q10 -32 24 -54t22 -30h-260q-7 7 -19.5 27.5t-22.5 47.5q-10 30 -15 64.5t-5 76.5l52 -36q-30 -61 -91.5 -106.5t-146.5 -70.5t-185 -25zM560 185q82 0 152 28t113 86.5t43 150.5v142l64 -72q-64 -24 -154 -39.5t-182 -24.5
q-118 -11 -177.5 -41t-59.5 -98q0 -66 50 -99t151 -33zM347 1297v112h588v-112h-588z" />
    <glyph glyph-name="Abreve" unicode="&#x102;" horiz-adv-x="1301" 
d="M63 0l381 1477h416l378 -1477h-271l-316 1314h2l-319 -1314h-271zM309 359v211h686v-211h-686zM379 1734h156q0 -39 31 -67t86 -28q56 0 86.5 28t30.5 67h157q0 -89 -78.5 -144t-195.5 -55t-195 55t-78 144z" />
    <glyph glyph-name="abreve" unicode="&#x103;" horiz-adv-x="1243" 
d="M496 -22q-119 0 -209 37.5t-141 108.5t-51 171q0 109 59.5 179.5t160.5 109t224 49.5q182 18 254.5 34.5t72.5 53.5v1.5v0.5q0 70 -63 108t-178 38q-121 0 -185.5 -42.5t-64.5 -134.5h-260q0 125 66.5 211.5t182.5 131.5t263 45q137 0 251 -41t183 -124t69 -207v-42v-42
v-400q0 -38 2.5 -74.5t10.5 -65.5q10 -32 24 -54t22 -30h-260q-7 7 -19.5 27.5t-22.5 47.5q-10 30 -15 64.5t-5 76.5l52 -36q-30 -61 -91.5 -106.5t-146.5 -70.5t-185 -25zM560 185q82 0 152 28t113 86.5t43 150.5v142l64 -72q-64 -24 -154 -39.5t-182 -24.5
q-118 -11 -177.5 -41t-59.5 -98q0 -66 50 -99t151 -33zM368 1495h156q0 -61 31 -101.5t86 -40.5q56 0 86.5 40.5t30.5 101.5h157q0 -116 -78.5 -180.5t-195.5 -64.5t-195 64.5t-78 180.5z" />
    <glyph glyph-name="Aogonek" unicode="&#x104;" horiz-adv-x="1301" 
d="M63 0l381 1477h416l378 -1477h-271l-316 1314h2l-319 -1314h-271zM309 359v211h686v-211h-686zM1238 -309v-129q-20 -2 -44.5 -4t-49.5 -2q-62 0 -116 15.5t-87 51t-33 93.5t33.5 112.5t79.5 100t83 71.5h134q-32 -27 -73.5 -71.5t-72.5 -91t-31 -81.5q0 -40 28.5 -56
t70.5 -16q19 0 40 2t38 5z" />
    <glyph glyph-name="aogonek" unicode="&#x105;" horiz-adv-x="1243" 
d="M496 -22q-119 0 -209 37.5t-141 108.5t-51 171q0 109 59.5 179.5t160.5 109t224 49.5q182 18 254.5 34.5t72.5 53.5v1.5v0.5q0 70 -63 108t-178 38q-121 0 -185.5 -42.5t-64.5 -134.5h-260q0 125 66.5 211.5t182.5 131.5t263 45q137 0 251 -41t183 -124t69 -207v-42v-42
v-400q0 -38 2.5 -74.5t10.5 -65.5q10 -32 24 -54t22 -30h-260q-7 7 -19.5 27.5t-22.5 47.5q-10 30 -15 64.5t-5 76.5l52 -36q-30 -61 -91.5 -106.5t-146.5 -70.5t-185 -25zM560 185q82 0 152 28t113 86.5t43 150.5v142l64 -72q-64 -24 -154 -39.5t-182 -24.5
q-118 -11 -177.5 -41t-59.5 -98q0 -66 50 -99t151 -33zM1190 -309v-129q-20 -2 -44.5 -4t-49.5 -2q-62 0 -114 16.5t-83 53t-31 94.5q0 54 31.5 108t75.5 100t81 72h134q-32 -27 -73.5 -71.5t-72.5 -91t-31 -81.5q0 -40 28.5 -56t70.5 -16q19 0 40 2t38 5z" />
    <glyph glyph-name="Cacute" unicode="&#x106;" horiz-adv-x="1383" 
d="M1294 531q0 -94 -35 -191t-106.5 -179.5t-180.5 -132.5t-256 -50q-199 0 -339.5 97.5t-214 268.5t-73.5 393q0 223 73.5 394t214 268t339.5 97q165 0 282 -63t187 -162t94 -207q15 -63 15 -120h-265q0 29 -4 60q-11 76 -50.5 138.5t-104.5 99t-154 36.5
q-106 0 -186.5 -59t-126.5 -179t-46 -303q0 -181 46 -302t126.5 -181t186.5 -60q76 0 134 28t98 75.5t60.5 107.5t20.5 126h265zM557 1556l276 198h220l-300 -198h-196z" />
    <glyph glyph-name="cacute" unicode="&#x107;" horiz-adv-x="1265" 
d="M657 -22q-168 0 -297 69t-202 194t-73 293q0 167 73 290t202 189.5t297 66.5q126 0 223 -37t163.5 -98.5t101.5 -135t35 -146.5v-4v-4h-261q0 5 -1 11l-2 12q-8 51 -41 92.5t-88 66.5t-133 25q-83 0 -151.5 -36.5t-109 -109.5t-40.5 -182q0 -108 40 -183.5t108.5 -115
t152.5 -39.5q89 0 145.5 27.5t85.5 74t33 101.5h262q0 -74 -34 -148.5t-100 -136.5t-163.5 -99t-225.5 -37zM489 1213l238 262h211l-268 -262h-181z" />
    <glyph glyph-name="Ccircumflex" unicode="&#x108;" horiz-adv-x="1383" 
d="M1294 531q0 -94 -35 -191t-106.5 -179.5t-180.5 -132.5t-256 -50q-199 0 -339.5 97.5t-214 268.5t-73.5 393q0 223 73.5 394t214 268t339.5 97q165 0 282 -63t187 -162t94 -207q15 -63 15 -120h-265q0 29 -4 60q-11 76 -50.5 138.5t-104.5 99t-154 36.5
q-106 0 -186.5 -59t-126.5 -179t-46 -303q0 -181 46 -302t126.5 -181t186.5 -60q76 0 134 28t98 75.5t60.5 107.5t20.5 126h265zM389 1554l231 198h179l232 -198h-176l-181 158h71l-182 -158h-174z" />
    <glyph glyph-name="ccircumflex" unicode="&#x109;" horiz-adv-x="1265" 
d="M657 -22q-168 0 -297 69t-202 194t-73 293q0 167 73 290t202 189.5t297 66.5q126 0 223 -37t163.5 -98.5t101.5 -135t35 -146.5v-4v-4h-261q0 5 -1 11l-2 12q-8 51 -41 92.5t-88 66.5t-133 25q-83 0 -151.5 -36.5t-109 -109.5t-40.5 -182q0 -108 40 -183.5t108.5 -115
t152.5 -39.5q89 0 145.5 27.5t85.5 74t33 101.5h262q0 -74 -34 -148.5t-100 -136.5t-163.5 -99t-225.5 -37zM322 1213l230 262h174l231 -262h-173l-182 213h72l-181 -213h-171z" />
    <glyph glyph-name="Cdotaccent" unicode="&#x10a;" horiz-adv-x="1383" 
d="M1294 531q0 -94 -35 -191t-106.5 -179.5t-180.5 -132.5t-256 -50q-199 0 -339.5 97.5t-214 268.5t-73.5 393q0 223 73.5 394t214 268t339.5 97q165 0 282 -63t187 -162t94 -207q15 -63 15 -120h-265q0 29 -4 60q-11 76 -50.5 138.5t-104.5 99t-154 36.5
q-106 0 -186.5 -59t-126.5 -179t-46 -303q0 -181 46 -302t126.5 -181t186.5 -60q76 0 134 28t98 75.5t60.5 107.5t20.5 126h265zM712 1565q-63 0 -110.5 34.5t-47.5 95.5q0 62 47.5 96t110.5 34q64 0 111 -34t47 -96t-47 -96t-111 -34z" />
    <glyph glyph-name="cdotaccent" unicode="&#x10b;" horiz-adv-x="1265" 
d="M657 -22q-168 0 -297 69t-202 194t-73 293q0 167 73 290t202 189.5t297 66.5q126 0 223 -37t163.5 -98.5t101.5 -135t35 -146.5v-4v-4h-261q0 5 -1 11l-2 12q-8 51 -41 92.5t-88 66.5t-133 25q-83 0 -151.5 -36.5t-109 -109.5t-40.5 -182q0 -108 40 -183.5t108.5 -115
t152.5 -39.5q89 0 145.5 27.5t85.5 74t33 101.5h262q0 -74 -34 -148.5t-100 -136.5t-163.5 -99t-225.5 -37zM639 1258q-63 0 -110.5 34t-47.5 95q0 62 47.5 96t110.5 34q64 0 111 -34t47 -96t-47 -95.5t-111 -33.5z" />
    <glyph glyph-name="Ccaron" unicode="&#x10c;" horiz-adv-x="1383" 
d="M1294 531q0 -94 -35 -191t-106.5 -179.5t-180.5 -132.5t-256 -50q-199 0 -339.5 97.5t-214 268.5t-73.5 393q0 223 73.5 394t214 268t339.5 97q165 0 282 -63t187 -162t94 -207q15 -63 15 -120h-265q0 29 -4 60q-11 76 -50.5 138.5t-104.5 99t-154 36.5
q-106 0 -186.5 -59t-126.5 -179t-46 -303q0 -181 46 -302t126.5 -181t186.5 -60q76 0 134 28t98 75.5t60.5 107.5t20.5 126h265zM389 1752h174l182 -159h-71l181 159h176l-232 -198h-179z" />
    <glyph glyph-name="ccaron" unicode="&#x10d;" horiz-adv-x="1265" 
d="M657 -22q-168 0 -297 69t-202 194t-73 293q0 167 73 290t202 189.5t297 66.5q126 0 223 -37t163.5 -98.5t101.5 -135t35 -146.5v-4v-4h-261q0 5 -1 11l-2 12q-8 51 -41 92.5t-88 66.5t-133 25q-83 0 -151.5 -36.5t-109 -109.5t-40.5 -182q0 -108 40 -183.5t108.5 -115
t152.5 -39.5q89 0 145.5 27.5t85.5 74t33 101.5h262q0 -74 -34 -148.5t-100 -136.5t-163.5 -99t-225.5 -37zM322 1475h171l181 -213h-72l182 213h173l-231 -262h-174z" />
    <glyph glyph-name="Dcaron" unicode="&#x10e;" horiz-adv-x="1311" 
d="M129 0v1475h441q147 0 267 -52.5t206 -149.5t133 -232.5t47 -301.5t-47 -301.5t-133 -233.5t-206 -151t-267 -53h-441zM393 79l-119 131h262q120 0 214.5 64.5t149.5 183t55 281.5q0 164 -55 282t-149.5 181t-214.5 63h-262l119 131v-1317zM304 1752h174l182 -159h-71
l181 159h176l-232 -198h-179z" />
    <glyph glyph-name="dcaron" unicode="&#x10f;" horiz-adv-x="1458" 
d="M573 -22q-131 0 -242.5 63.5t-178.5 187.5t-67 305q0 176 68.5 298t180 185t239.5 63q125 0 231 -61.5t170 -170.5t64 -250v-8v-8l-130 -3v6.5v6.5q0 79 -39.5 138t-102 92.5t-132.5 33.5q-115 0 -196 -77.5t-81 -244.5q0 -166 81 -245t196 -79q73 0 135 35t100.5 96.5
t38.5 141.5l130 -6q0 -140 -62.5 -253.5t-167.5 -179.5t-235 -66zM908 0v1563h264v-1563h-264zM1454 1563q0 -83 -9.5 -167.5t-21.5 -149t-19 -91.5h-124q6 28 13.5 91.5t13 147t5.5 169.5h142z" />
    <glyph glyph-name="Dcroat" unicode="&#x110;" horiz-adv-x="1311" 
d="M129 0v1475h441q147 0 267 -52.5t206 -149.5t133 -232.5t47 -301.5t-47 -301.5t-133 -233.5t-206 -151t-267 -53h-441zM393 79l-119 131h262q120 0 214.5 64.5t149.5 183t55 281.5q0 164 -55 282t-149.5 181t-214.5 63h-262l119 131v-1317zM8 676v121h717v-121h-717z" />
    <glyph glyph-name="dcroat" unicode="&#x111;" horiz-adv-x="1305" 
d="M538 1253v150h745v-150h-745zM573 -22q-131 0 -242.5 63.5t-178.5 187.5t-67 305q0 176 68.5 298t180 185t239.5 63q125 0 231 -61.5t170 -170.5t64 -250v-8v-8l-130 -3v6.5v6.5q0 79 -39.5 138t-102 92.5t-132.5 33.5q-115 0 -196 -77.5t-81 -244.5q0 -166 81 -245
t196 -79q73 0 135 35t100.5 96.5t38.5 141.5l130 -6q0 -140 -62.5 -253.5t-167.5 -179.5t-235 -66zM908 0v1563h264v-1563h-264z" />
    <glyph glyph-name="Emacron" unicode="&#x112;" horiz-adv-x="1124" 
d="M275 1265l119 131v-630l-62 79h552v-210h-552l62 78v-634l-119 131h720v-210h-866v1475h866v-210h-720zM280 1610v111h588v-111h-588z" />
    <glyph glyph-name="emacron" unicode="&#x113;" horiz-adv-x="1299" 
d="M230 446v187h743l-30 -50v13.5v12.5q0 69 -31 129.5t-94 98t-160 37.5q-96 0 -166.5 -40.5t-109 -116.5t-38.5 -182q0 -109 37 -187.5t108.5 -120t174.5 -41.5q70 0 121 13t83.5 35.5t49 48.5t19.5 52h262q-6 -67 -44.5 -130.5t-107.5 -115t-167.5 -82t-224.5 -30.5
q-171 0 -299 70t-199.5 195t-71.5 286q0 165 72.5 289t201.5 193.5t296 69.5q172 0 297.5 -70t193.5 -194.5t68 -289.5q0 -21 -1 -45t-3 -35h-980zM360 1297v112h588v-112h-588z" />
    <glyph glyph-name="Ebreve" unicode="&#x114;" horiz-adv-x="1124" 
d="M275 1265l119 131v-630l-62 79h552v-210h-552l62 78v-634l-119 131h720v-210h-866v1475h866v-210h-720zM302 1734h156q0 -39 31 -67t86 -28q56 0 86.5 28t30.5 67h157q0 -89 -78.5 -144t-195.5 -55t-195 55t-78 144z" />
    <glyph glyph-name="ebreve" unicode="&#x115;" horiz-adv-x="1299" 
d="M230 446v187h743l-30 -50v13.5v12.5q0 69 -31 129.5t-94 98t-160 37.5q-96 0 -166.5 -40.5t-109 -116.5t-38.5 -182q0 -109 37 -187.5t108.5 -120t174.5 -41.5q70 0 121 13t83.5 35.5t49 48.5t19.5 52h262q-6 -67 -44.5 -130.5t-107.5 -115t-167.5 -82t-224.5 -30.5
q-171 0 -299 70t-199.5 195t-71.5 286q0 165 72.5 289t201.5 193.5t296 69.5q172 0 297.5 -70t193.5 -194.5t68 -289.5q0 -21 -1 -45t-3 -35h-980zM381 1495h156q0 -61 31 -101.5t86 -40.5q56 0 86.5 40.5t30.5 101.5h157q0 -116 -78.5 -180.5t-195.5 -64.5t-195 64.5
t-78 180.5z" />
    <glyph glyph-name="Edotaccent" unicode="&#x116;" horiz-adv-x="1124" 
d="M275 1265l119 131v-630l-62 79h552v-210h-552l62 78v-634l-119 131h720v-210h-866v1475h866v-210h-720zM577 1565q-63 0 -110.5 34.5t-47.5 95.5q0 62 47.5 96t110.5 34q64 0 111 -34t47 -96t-47 -96t-111 -34z" />
    <glyph glyph-name="edotaccent" unicode="&#x117;" horiz-adv-x="1299" 
d="M230 446v187h743l-30 -50v13.5v12.5q0 69 -31 129.5t-94 98t-160 37.5q-96 0 -166.5 -40.5t-109 -116.5t-38.5 -182q0 -109 37 -187.5t108.5 -120t174.5 -41.5q70 0 121 13t83.5 35.5t49 48.5t19.5 52h262q-6 -67 -44.5 -130.5t-107.5 -115t-167.5 -82t-224.5 -30.5
q-171 0 -299 70t-199.5 195t-71.5 286q0 165 72.5 289t201.5 193.5t296 69.5q172 0 297.5 -70t193.5 -194.5t68 -289.5q0 -21 -1 -45t-3 -35h-980zM654 1258q-63 0 -110.5 34t-47.5 95q0 62 47.5 96t110.5 34q64 0 111 -34t47 -96t-47 -95.5t-111 -33.5z" />
    <glyph glyph-name="Eogonek" unicode="&#x118;" horiz-adv-x="1124" 
d="M275 1265l119 131v-630l-62 79h552v-210h-552l62 78v-634l-119 131h720v-210h-866v1475h866v-210h-720zM995 -309v-129q-20 -2 -44.5 -4t-49.5 -2q-62 0 -116 15.5t-87 51t-33 93.5t33.5 112.5t79.5 100t83 71.5h134q-32 -27 -73.5 -71.5t-72.5 -91t-31 -81.5
q0 -40 28.5 -56t70.5 -16q19 0 40 2t38 5z" />
    <glyph glyph-name="eogonek" unicode="&#x119;" horiz-adv-x="1299" 
d="M906 -288v-128q-19 -3 -43.5 -5t-49.5 -2q-62 0 -114 17t-83.5 53.5t-31.5 94.5q0 53 31.5 107t76 100t80.5 72h134q-31 -27 -72.5 -71t-72.5 -91t-31 -82q0 -40 28 -56t70 -16q20 0 41 2.5t37 4.5zM230 446v187h743l-30 -50v13.5v12.5q0 69 -31 129.5t-94 98t-160 37.5
q-96 0 -166.5 -40.5t-109 -116.5t-38.5 -182q0 -109 37 -187.5t108.5 -120t174.5 -41.5q70 0 121 13t83.5 35.5t49 48.5t19.5 52h262q-6 -67 -44.5 -130.5t-107.5 -115t-167.5 -82t-224.5 -30.5q-171 0 -299 70t-199.5 195t-71.5 286q0 165 72.5 289t201.5 193.5t296 69.5
q172 0 297.5 -70t193.5 -194.5t68 -289.5q0 -21 -1 -45t-3 -35h-980z" />
    <glyph glyph-name="Ecaron" unicode="&#x11a;" horiz-adv-x="1124" 
d="M275 1265l119 131v-630l-62 79h552v-210h-552l62 78v-634l-119 131h720v-210h-866v1475h866v-210h-720zM254 1752h174l182 -159h-71l181 159h176l-232 -198h-179z" />
    <glyph glyph-name="ecaron" unicode="&#x11b;" horiz-adv-x="1299" 
d="M230 446v187h743l-30 -50v13.5v12.5q0 69 -31 129.5t-94 98t-160 37.5q-96 0 -166.5 -40.5t-109 -116.5t-38.5 -182q0 -109 37 -187.5t108.5 -120t174.5 -41.5q70 0 121 13t83.5 35.5t49 48.5t19.5 52h262q-6 -67 -44.5 -130.5t-107.5 -115t-167.5 -82t-224.5 -30.5
q-171 0 -299 70t-199.5 195t-71.5 286q0 165 72.5 289t201.5 193.5t296 69.5q172 0 297.5 -70t193.5 -194.5t68 -289.5q0 -21 -1 -45t-3 -35h-980zM337 1475h171l181 -213h-72l182 213h173l-231 -262h-174z" />
    <glyph glyph-name="Gcircumflex" unicode="&#x11c;" horiz-adv-x="1413" 
d="M708 -22q-172 0 -312.5 88t-223.5 257t-83 411q0 243 86 413t232.5 259.5t327.5 89.5q150 0 254.5 -49.5t170 -127.5t95 -164t29.5 -160v-6v-6h-256v6v6q0 52 -18 102t-55 91t-92 65t-128 24q-99 0 -185.5 -55t-140 -174.5t-53.5 -313.5q0 -147 30 -250t81.5 -167
t118 -93.5t140.5 -29.5q100 0 166.5 34t104 85t47.5 100v115h-315v198h551v-726h-152l-22 164q-7 -18 -32.5 -49t-72.5 -62.5t-119.5 -53t-173.5 -21.5zM409 1554l231 198h179l232 -198h-176l-181 158h71l-182 -158h-174z" />
    <glyph glyph-name="gcircumflex" unicode="&#x11d;" horiz-adv-x="1247" 
d="M846 105q94 -9 165 -35t111 -77.5t40 -137.5q0 -96 -65 -166t-190.5 -108t-308.5 -38q-266 0 -409 76.5t-143 207.5q0 37 9 67t22 50l241 -35q-6 -8 -12 -25.5t-6 -42.5q0 -62 83.5 -89.5t222.5 -27.5q102 0 170.5 14t104 40t35.5 61q0 52 -47 67t-112 20l-403 37
q-108 11 -177.5 64t-69.5 140q0 53 28.5 98t65.5 75.5t63 37.5l150 -74q-21 -3 -49.5 -27t-28.5 -57q0 -31 28 -51.5t108 -28.5zM965 1062h236l-96 -412q-27 -116 -87 -208t-160 -145t-252 -53q-158 0 -272.5 51.5t-176.5 145t-62 215.5q0 125 63.5 220.5t175 149.5
t252.5 54q114 0 205 -37.5t145.5 -97.5t58.5 -128l-59 -11zM605 447q77 0 133 25t87 72.5t31 115.5q0 67 -31 115t-87 73.5t-132 25.5q-74 0 -131 -26t-89.5 -74.5t-32.5 -115.5t31.5 -114.5t88 -72t132.5 -24.5zM275 1213l230 262h174l231 -262h-173l-182 213h72l-181 -213
h-171z" />
    <glyph glyph-name="Gbreve" unicode="&#x11e;" horiz-adv-x="1413" 
d="M708 -22q-172 0 -312.5 88t-223.5 257t-83 411q0 243 86 413t232.5 259.5t327.5 89.5q150 0 254.5 -49.5t170 -127.5t95 -164t29.5 -160v-6v-6h-256v6v6q0 52 -18 102t-55 91t-92 65t-128 24q-99 0 -185.5 -55t-140 -174.5t-53.5 -313.5q0 -147 30 -250t81.5 -167
t118 -93.5t140.5 -29.5q100 0 166.5 34t104 85t47.5 100v115h-315v198h551v-726h-152l-22 164q-7 -18 -32.5 -49t-72.5 -62.5t-119.5 -53t-173.5 -21.5zM456 1734h156q0 -39 31 -67t86 -28q56 0 86.5 28t30.5 67h157q0 -89 -78.5 -144t-195.5 -55t-195 55t-78 144z" />
    <glyph glyph-name="gbreve" unicode="&#x11f;" horiz-adv-x="1247" 
d="M846 105q94 -9 165 -35t111 -77.5t40 -137.5q0 -96 -65 -166t-190.5 -108t-308.5 -38q-266 0 -409 76.5t-143 207.5q0 37 9 67t22 50l241 -35q-6 -8 -12 -25.5t-6 -42.5q0 -62 83.5 -89.5t222.5 -27.5q102 0 170.5 14t104 40t35.5 61q0 52 -47 67t-112 20l-403 37
q-108 11 -177.5 64t-69.5 140q0 53 28.5 98t65.5 75.5t63 37.5l150 -74q-21 -3 -49.5 -27t-28.5 -57q0 -31 28 -51.5t108 -28.5zM965 1062h236l-96 -412q-27 -116 -87 -208t-160 -145t-252 -53q-158 0 -272.5 51.5t-176.5 145t-62 215.5q0 125 63.5 220.5t175 149.5
t252.5 54q114 0 205 -37.5t145.5 -97.5t58.5 -128l-59 -11zM605 447q77 0 133 25t87 72.5t31 115.5q0 67 -31 115t-87 73.5t-132 25.5q-74 0 -131 -26t-89.5 -74.5t-32.5 -115.5t31.5 -114.5t88 -72t132.5 -24.5zM319 1495h156q0 -61 31 -101.5t86 -40.5q56 0 86.5 40.5
t30.5 101.5h157q0 -116 -78.5 -180.5t-195.5 -64.5t-195 64.5t-78 180.5z" />
    <glyph glyph-name="Gdotaccent" unicode="&#x120;" horiz-adv-x="1413" 
d="M708 -22q-172 0 -312.5 88t-223.5 257t-83 411q0 243 86 413t232.5 259.5t327.5 89.5q150 0 254.5 -49.5t170 -127.5t95 -164t29.5 -160v-6v-6h-256v6v6q0 52 -18 102t-55 91t-92 65t-128 24q-99 0 -185.5 -55t-140 -174.5t-53.5 -313.5q0 -147 30 -250t81.5 -167
t118 -93.5t140.5 -29.5q100 0 166.5 34t104 85t47.5 100v115h-315v198h551v-726h-152l-22 164q-7 -18 -32.5 -49t-72.5 -62.5t-119.5 -53t-173.5 -21.5zM732 1565q-63 0 -110.5 34.5t-47.5 95.5q0 62 47.5 96t110.5 34q64 0 111 -34t47 -96t-47 -96t-111 -34z" />
    <glyph glyph-name="gdotaccent" unicode="&#x121;" horiz-adv-x="1247" 
d="M846 105q94 -9 165 -35t111 -77.5t40 -137.5q0 -96 -65 -166t-190.5 -108t-308.5 -38q-266 0 -409 76.5t-143 207.5q0 37 9 67t22 50l241 -35q-6 -8 -12 -25.5t-6 -42.5q0 -62 83.5 -89.5t222.5 -27.5q102 0 170.5 14t104 40t35.5 61q0 52 -47 67t-112 20l-403 37
q-108 11 -177.5 64t-69.5 140q0 53 28.5 98t65.5 75.5t63 37.5l150 -74q-21 -3 -49.5 -27t-28.5 -57q0 -31 28 -51.5t108 -28.5zM965 1062h236l-96 -412q-27 -116 -87 -208t-160 -145t-252 -53q-158 0 -272.5 51.5t-176.5 145t-62 215.5q0 125 63.5 220.5t175 149.5
t252.5 54q114 0 205 -37.5t145.5 -97.5t58.5 -128l-59 -11zM605 447q77 0 133 25t87 72.5t31 115.5q0 67 -31 115t-87 73.5t-132 25.5q-74 0 -131 -26t-89.5 -74.5t-32.5 -115.5t31.5 -114.5t88 -72t132.5 -24.5zM592 1258q-63 0 -110.5 34t-47.5 95q0 62 47.5 96t110.5 34
q64 0 111 -34t47 -96t-47 -95.5t-111 -33.5z" />
    <glyph glyph-name="uni0122" unicode="&#x122;" horiz-adv-x="1413" 
d="M708 -22q-172 0 -312.5 88t-223.5 257t-83 411q0 243 86 413t232.5 259.5t327.5 89.5q150 0 254.5 -49.5t170 -127.5t95 -164t29.5 -160v-6v-6h-256v6v6q0 52 -18 102t-55 91t-92 65t-128 24q-99 0 -185.5 -55t-140 -174.5t-53.5 -313.5q0 -147 30 -250t81.5 -167
t118 -93.5t140.5 -29.5q100 0 166.5 34t104 85t47.5 100v115h-315v198h551v-726h-152l-22 164q-7 -18 -32.5 -49t-72.5 -62.5t-119.5 -53t-173.5 -21.5zM702 -259q-42 0 -68 23t-26 62q0 48 35.5 70t77.5 22q27 0 54 -11.5t45 -36t18 -66.5q0 -73 -30 -123.5t-72.5 -82
t-80.5 -48.5l-18 45q29 11 60.5 34t53 58t21.5 81q-7 -12 -27.5 -19.5t-42.5 -7.5z" />
    <glyph glyph-name="uni0123" unicode="&#x123;" horiz-adv-x="1247" 
d="M846 105q94 -9 165 -35t111 -77.5t40 -137.5q0 -96 -65 -166t-190.5 -108t-308.5 -38q-266 0 -409 76.5t-143 207.5q0 37 9 67t22 50l241 -35q-6 -8 -12 -25.5t-6 -42.5q0 -62 83.5 -89.5t222.5 -27.5q102 0 170.5 14t104 40t35.5 61q0 52 -47 67t-112 20l-403 37
q-108 11 -177.5 64t-69.5 140q0 53 28.5 98t65.5 75.5t63 37.5l150 -74q-21 -3 -49.5 -27t-28.5 -57q0 -31 28 -51.5t108 -28.5zM965 1062h236l-96 -412q-27 -116 -87 -208t-160 -145t-252 -53q-158 0 -272.5 51.5t-176.5 145t-62 215.5q0 125 63.5 220.5t175 149.5
t252.5 54q114 0 205 -37.5t145.5 -97.5t58.5 -128l-59 -11zM605 447q77 0 133 25t87 72.5t31 115.5q0 67 -31 115t-87 73.5t-132 25.5q-74 0 -131 -26t-89.5 -74.5t-32.5 -115.5t31.5 -114.5t88 -72t132.5 -24.5zM617.001 1424.99q45.2988 0 73.6104 -26.8955
q28.3115 -26.8965 28.3115 -72.1953t-30.1992 -75.498t-87.7666 -30.1992q-58.5107 0 -89.1816 39.165q-30.6709 39.1641 -30.6709 99.5625q0 58.5117 27.8398 102.866q27.8398 44.3555 70.7793 75.498q42.9395 31.1436 86.3506 48.1299l21.7061 -46.2422
q-29.2559 -11.3252 -58.5107 -32.5586q-29.2559 -21.2344 -48.1309 -47.1865q-18.874 -25.9521 -18.874 -53.3203q1.8877 4.71875 16.9873 11.7969q15.0996 7.07715 37.749 7.07715z" />
    <glyph glyph-name="Hcircumflex" unicode="&#x124;" horiz-adv-x="1361" 
d="M1233 1475v-1475h-264v720l119 -90h-814l119 88v-718h-264v1475h264v-727l-119 92h814l-119 -91v726h264zM360 1554l231 198h179l232 -198h-176l-181 158h71l-182 -158h-174z" />
    <glyph glyph-name="hcircumflex" unicode="&#x125;" horiz-adv-x="1269" 
d="M884 0v383v60v73v61q0 132 -51.5 202.5t-175.5 70.5q-83 0 -141.5 -32.5t-89.5 -90.5t-31 -134l-96 51q0 127 57.5 225.5t159.5 154.5t234 56q193 0 295 -114.5t102 -318.5v-123.5v-160.5v-363h-263zM132 0v1563h263v-1563h-263zM-50 1706l230 262h174l231 -262h-173
l-182 213h72l-181 -213h-171z" />
    <glyph glyph-name="Hbar" unicode="&#x126;" horiz-adv-x="1361" 
d="M40 1083v150h1280v-150h-1280zM1233 1475v-1475h-264v720l119 -90h-814l119 88v-718h-264v1475h264v-727l-119 92h814l-119 -91v726h264z" />
    <glyph glyph-name="hbar" unicode="&#x127;" horiz-adv-x="1281" 
d="M13 1253v150h726v-150h-726zM896 0v383v60v73v61q0 132 -51.5 202.5t-175.5 70.5q-83 0 -141.5 -32.5t-89.5 -90.5t-31 -134l-96 51q0 127 57.5 225.5t159.5 154.5t234 56q193 0 295 -114.5t102 -318.5v-123.5v-160.5v-363h-263zM144 0v1563h263v-1563h-263z" />
    <glyph glyph-name="Itilde" unicode="&#x128;" horiz-adv-x="522" 
d="M131 0v1475h260v-1475h-260zM586 1749q-1 -44 -20.5 -91.5t-60.5 -80.5t-106 -33q-51 0 -86 20t-58 40q-22 19 -44.5 33t-51.5 14q-37 0 -52.5 -24.5t-16.5 -59.5h-139q2 46 23.5 94t64.5 80.5t109 32.5q48 0 82.5 -19.5t56.5 -38.5q23 -19 47 -34t50 -15q35 0 49 23.5
t15 58.5h138z" />
    <glyph glyph-name="itilde" unicode="&#x129;" horiz-adv-x="514" 
d="M127 0v1062h260v-1062h-260zM575 1454q-1 -44 -20.5 -91t-60.5 -80t-106 -33q-51 0 -86 20t-58 39q-22 19 -44.5 33t-51.5 14q-37 0 -52.5 -24.5t-16.5 -58.5h-139q2 45 23.5 93t64.5 81t109 33q48 0 82.5 -20t56.5 -39q23 -19 47 -34t50 -15q35 0 49 24t15 58h138z" />
    <glyph glyph-name="Imacron" unicode="&#x12a;" horiz-adv-x="522" 
d="M131 0v1475h260v-1475h-260zM-33 1610v111h588v-111h-588z" />
    <glyph glyph-name="imacron" unicode="&#x12b;" horiz-adv-x="514" 
d="M127 0v1062h260v-1062h-260zM47 1297v112h422v-112h-422z" />
    <glyph glyph-name="Ibreve" unicode="&#x12c;" horiz-adv-x="522" 
d="M131 0v1475h260v-1475h-260zM-11 1734h156q0 -39 31 -67t86 -28q56 0 86.5 28t30.5 67h157q0 -89 -78.5 -144t-195.5 -55t-195 55t-78 144z" />
    <glyph glyph-name="ibreve" unicode="&#x12d;" horiz-adv-x="514" 
d="M127 0v1062h260v-1062h-260zM-15 1495h156q0 -61 31 -101.5t86 -40.5q56 0 86.5 40.5t30.5 101.5h157q0 -116 -78.5 -180.5t-195.5 -64.5t-195 64.5t-78 180.5z" />
    <glyph glyph-name="Iogonek" unicode="&#x12e;" horiz-adv-x="522" 
d="M131 0v1475h260v-1475h-260zM391 -309v-129q-20 -2 -44.5 -4t-49.5 -2q-62 0 -116 15.5t-87 51t-33 93.5t33.5 112.5t79.5 100t83 71.5h134q-32 -27 -73.5 -71.5t-72.5 -91t-31 -81.5q0 -40 28.5 -56t70.5 -16q19 0 40 2t38 5z" />
    <glyph glyph-name="iogonek" unicode="&#x12f;" horiz-adv-x="514" 
d="M127 0v1062h260v-1062h-260zM388 -309v-129q-20 -2 -44.5 -4t-49.5 -2q-62 0 -114 16.5t-83 53t-31 94.5q0 54 31.5 108t75.5 100t81 72h134q-32 -27 -73.5 -71.5t-72.5 -91t-31 -81.5q0 -40 28.5 -56t70.5 -16q19 0 40 2t38 5zM258 1258q-63 0 -110.5 34t-47.5 95
q0 62 47.5 96t110.5 34q64 0 111 -34t47 -96t-47 -95.5t-111 -33.5z" />
    <glyph glyph-name="Idotaccent" unicode="&#x130;" horiz-adv-x="522" 
d="M131 0v1475h260v-1475h-260zM264 1565q-63 0 -110.5 34.5t-47.5 95.5q0 62 47.5 96t110.5 34q64 0 111 -34t47 -96t-47 -96t-111 -34z" />
    <glyph glyph-name="dotlessi" unicode="&#x131;" horiz-adv-x="514" 
d="M127 0v1062h260v-1062h-260z" />
    <glyph glyph-name="Jcircumflex" unicode="&#x134;" horiz-adv-x="1139" 
d="M539 -22q-171 0 -275.5 62.5t-151.5 174t-47 260.5v32v32h261v-19v-21q0 -83 19.5 -152t65.5 -111t128 -42q81 0 126 42t63.5 115.5t18.5 166.5v957h263v-993q0 -106 -23.5 -197t-77 -160t-144.5 -108t-226 -39zM556 1554l231 198h179l232 -198h-176l-181 158h71
l-182 -158h-174z" />
    <glyph glyph-name="jcircumflex" unicode="&#x135;" horiz-adv-x="531" 
d="M-29 -453q-29 0 -55 1.5t-43 4.5v196q16 -4 42.5 -7t55.5 -3q56 0 89 16t49.5 42t22.5 56.5t6 60.5v1148h263v-1156q0 -66 -15.5 -129.5t-59 -115.5t-129 -83t-226.5 -31zM-45 1213l230 262h174l231 -262h-173l-182 213h72l-181 -213h-171z" />
    <glyph glyph-name="uni0136" unicode="&#x136;" horiz-adv-x="1272" 
d="M619 726l7 203l590 -929h-291l-451 726l122 -17l-227 -304l23 167v-572h-263v1475h263v-781l-50 34l560 747h282zM623 -259q-42 0 -68 23t-26 62q0 48 35.5 70t77.5 22q27 0 54 -11.5t45 -36t18 -66.5q0 -73 -30 -123.5t-72.5 -82t-80.5 -48.5l-18 45q29 11 60.5 34
t53 58t21.5 81q-7 -12 -27.5 -19.5t-42.5 -7.5z" />
    <glyph glyph-name="uni0137" unicode="&#x137;" horiz-adv-x="1105" 
d="M132 0v1563h250v-916l-57 28l439 387h327l-520 -463l59 108l456 -707h-278l-350 567l64 -11l-170 -152l30 117v-521h-250zM574 -259q-42 0 -68 23t-26 62q0 48 35.5 70t77.5 22q27 0 54 -11.5t45 -36t18 -66.5q0 -73 -30 -123.5t-72.5 -82t-80.5 -48.5l-18 45
q29 11 60.5 34t53 58t21.5 81q-7 -12 -27.5 -19.5t-42.5 -7.5z" />
    <glyph glyph-name="kgreenlandic" unicode="&#x138;" horiz-adv-x="1004" 
d="M585 523l-23 146l430 -669h-281l-328 516l154 -31l-175 -228l19 156v-413h-249v1062h249v-562l-56 14l381 548h273z" />
    <glyph glyph-name="Lacute" unicode="&#x139;" horiz-adv-x="1031" 
d="M129 0v1475h264v-1396l-119 139h678v-218h-823zM106 1556l276 198h220l-300 -198h-196z" />
    <glyph glyph-name="lacute" unicode="&#x13a;" horiz-adv-x="543" 
d="M406 1563v-1563h-259v1563h259zM120 1644l276 198h220l-300 -198h-196z" />
    <glyph glyph-name="uni013B" unicode="&#x13b;" horiz-adv-x="1031" 
d="M129 0v1475h264v-1396l-119 139h678v-218h-823zM538 -259q-42 0 -68 23t-26 62q0 48 35.5 70t77.5 22q27 0 54 -11.5t45 -36t18 -66.5q0 -73 -30 -123.5t-72.5 -82t-80.5 -48.5l-18 45q29 11 60.5 34t53 58t21.5 81q-7 -12 -27.5 -19.5t-42.5 -7.5z" />
    <glyph glyph-name="uni013C" unicode="&#x13c;" horiz-adv-x="543" 
d="M406 1563v-1563h-259v1563h259zM252 -259q-42 0 -68 23t-26 62q0 48 35.5 70t77.5 22q27 0 54 -11.5t45 -36t18 -66.5q0 -73 -30 -123.5t-72.5 -82t-80.5 -48.5l-18 45q29 11 60.5 34t53 58t21.5 81q-7 -12 -27.5 -19.5t-42.5 -7.5z" />
    <glyph glyph-name="Lcaron" unicode="&#x13d;" horiz-adv-x="1031" 
d="M129 0v1475h264v-1396l-119 139h678v-218h-823zM883 1475q0 -83 -9.5 -167.5t-21.5 -149t-19 -91.5h-124q6 28 13.5 91.5t13 147t5.5 169.5h142z" />
    <glyph glyph-name="lcaron" unicode="&#x13e;" horiz-adv-x="673" 
d="M406 1563v-1563h-259v1563h259zM673 1563q0 -83 -9.5 -167.5t-21.5 -149t-19 -91.5h-124q6 28 13.5 91.5t13 147t5.5 169.5h142z" />
    <glyph glyph-name="Ldot" unicode="&#x13f;" horiz-adv-x="1031" 
d="M129 0v1475h264v-1396l-119 139h678v-218h-823zM776 662q-62 0 -105 43.5t-43 105.5q0 61 43 104.5t105 43.5q61 0 104.5 -43.5t43.5 -104.5q0 -62 -43.5 -105.5t-104.5 -43.5z" />
    <glyph glyph-name="ldot" unicode="&#x140;" horiz-adv-x="803" 
d="M391 1563v-1563h-259v1563h259zM642 662q-62 0 -105 43.5t-43 105.5q0 61 43 104.5t105 43.5q61 0 104.5 -43.5t43.5 -104.5q0 -62 -43.5 -105.5t-104.5 -43.5z" />
    <glyph glyph-name="Lslash" unicode="&#x141;" horiz-adv-x="1122" 
d="M796 814l-720 -429l-90 181l720 429zM220 0v1475h265v-1396l-119 139h678v-218h-824z" />
    <glyph glyph-name="lslash" unicode="&#x142;" horiz-adv-x="521" 
d="M-61 788l546 289l69 -139l-545 -289zM406 1563v-1563h-259v1563h259z" />
    <glyph glyph-name="Nacute" unicode="&#x143;" horiz-adv-x="1427" 
d="M385 0h-256v1475h413l539 -1368l-39 -11v1379h257v-1475h-419l-537 1365l42 10v-1375zM576 1556l276 198h220l-300 -198h-196z" />
    <glyph glyph-name="nacute" unicode="&#x144;" horiz-adv-x="1268" 
d="M883 0v471v70.5v55.5q0 72 -20.5 129.5t-70 90.5t-136.5 33q-76 0 -135 -36.5t-92.5 -100t-33.5 -146.5l-89 55q0 133 60.5 236.5t162.5 162.5t226 59q128 0 215.5 -50t132 -142t44.5 -216v-108v-118v-446h-264zM132 0v1062h263v-1062h-263zM505 1213l238 262h211
l-268 -262h-181z" />
    <glyph glyph-name="uni0145" unicode="&#x145;" horiz-adv-x="1427" 
d="M385 0h-256v1475h413l539 -1368l-39 -11v1379h257v-1475h-419l-537 1365l42 10v-1375zM707 -259q-42 0 -68 23t-26 62q0 48 35.5 70t77.5 22q27 0 54 -11.5t45 -36t18 -66.5q0 -73 -30 -123.5t-72.5 -82t-80.5 -48.5l-18 45q29 11 60.5 34t53 58t21.5 81
q-7 -12 -27.5 -19.5t-42.5 -7.5z" />
    <glyph glyph-name="uni0146" unicode="&#x146;" horiz-adv-x="1268" 
d="M883 0v471v70.5v55.5q0 72 -20.5 129.5t-70 90.5t-136.5 33q-76 0 -135 -36.5t-92.5 -100t-33.5 -146.5l-89 55q0 133 60.5 236.5t162.5 162.5t226 59q128 0 215.5 -50t132 -142t44.5 -216v-108v-118v-446h-264zM132 0v1062h263v-1062h-263zM609 -259q-42 0 -68 23
t-26 62q0 48 35.5 70t77.5 22q27 0 54 -11.5t45 -36t18 -66.5q0 -73 -30 -123.5t-72.5 -82t-80.5 -48.5l-18 45q29 11 60.5 34t53 58t21.5 81q-7 -12 -27.5 -19.5t-42.5 -7.5z" />
    <glyph glyph-name="Ncaron" unicode="&#x147;" horiz-adv-x="1427" 
d="M385 0h-256v1475h413l539 -1368l-39 -11v1379h257v-1475h-419l-537 1365l42 10v-1375zM407 1752h174l182 -159h-71l181 159h176l-232 -198h-179z" />
    <glyph glyph-name="ncaron" unicode="&#x148;" horiz-adv-x="1268" 
d="M883 0v471v70.5v55.5q0 72 -20.5 129.5t-70 90.5t-136.5 33q-76 0 -135 -36.5t-92.5 -100t-33.5 -146.5l-89 55q0 133 60.5 236.5t162.5 162.5t226 59q128 0 215.5 -50t132 -142t44.5 -216v-108v-118v-446h-264zM132 0v1062h263v-1062h-263zM337 1475h171l181 -213h-72
l182 213h173l-231 -262h-174z" />
    <glyph glyph-name="Eng" unicode="&#x14a;" horiz-adv-x="1427" 
d="M793 -457q-34 0 -65.5 4t-42.5 8v191q14 -4 47 -8.5t63 -4.5q60 0 105.5 16t76 45t46 68t15.5 84v54h-153l-526 1318l26 5v-1323h-256v1475h415l531 -1331l-33 -5v1336h257v-1523q0 -103 -28 -180t-88.5 -127.5t-156.5 -76t-233 -25.5z" />
    <glyph glyph-name="eng" unicode="&#x14b;" horiz-adv-x="1256" 
d="M631 -457v190q59 0 103.5 16t75 45t46 68t15.5 84v525v63v63q0 72 -17.5 129.5t-64 90.5t-133.5 33q-76 0 -135 -36.5t-92.5 -100t-33.5 -146.5l-89 55q0 133 60.5 236.5t162.5 162.5t226 59q128 0 212.5 -50t126 -142t41.5 -216v-113v-113v-494q0 -103 -28 -180
t-88 -127.5t-155.5 -76t-232.5 -25.5zM132 0v1062h263v-1062h-263z" />
    <glyph glyph-name="Omacron" unicode="&#x14c;" horiz-adv-x="1455" 
d="M727 -22q-134 0 -250 50t-203.5 147.5t-136 239t-48.5 324.5t48.5 324t135.5 237.5t203.5 146t250.5 49.5q136 0 252.5 -49.5t203.5 -146t135.5 -237.5t48.5 -324t-49 -324.5t-136.5 -239t-203.5 -147.5t-251 -50zM727 195q104 0 188 56.5t133.5 176.5t49.5 311
q0 192 -50 310.5t-134 173.5t-187 55q-101 0 -185.5 -55t-135 -173.5t-50.5 -310.5t50.5 -312t135 -176t185.5 -56zM433 1610v111h588v-111h-588z" />
    <glyph glyph-name="omacron" unicode="&#x14d;" horiz-adv-x="1308" 
d="M654 -21q-168 0 -296 70.5t-200.5 195.5t-72.5 286q0 162 72.5 285.5t200.5 193.5t296 70t296 -70t200.5 -193.5t72.5 -285.5q0 -161 -72.5 -286t-200.5 -195.5t-296 -70.5zM654 194q91 0 159 42t106 117.5t38 177.5t-38 176.5t-106 115.5t-159 41q-90 0 -158.5 -41
t-106.5 -115.5t-38 -176.5t38 -177.5t106.5 -117.5t158.5 -42zM361 1297v112h588v-112h-588z" />
    <glyph glyph-name="Obreve" unicode="&#x14e;" horiz-adv-x="1455" 
d="M727 -22q-134 0 -250 50t-203.5 147.5t-136 239t-48.5 324.5t48.5 324t135.5 237.5t203.5 146t250.5 49.5q136 0 252.5 -49.5t203.5 -146t135.5 -237.5t48.5 -324t-49 -324.5t-136.5 -239t-203.5 -147.5t-251 -50zM727 195q104 0 188 56.5t133.5 176.5t49.5 311
q0 192 -50 310.5t-134 173.5t-187 55q-101 0 -185.5 -55t-135 -173.5t-50.5 -310.5t50.5 -312t135 -176t185.5 -56zM454 1734h156q0 -39 31 -67t86 -28q56 0 86.5 28t30.5 67h157q0 -89 -78.5 -144t-195.5 -55t-195 55t-78 144z" />
    <glyph glyph-name="obreve" unicode="&#x14f;" horiz-adv-x="1308" 
d="M654 -21q-168 0 -296 70.5t-200.5 195.5t-72.5 286q0 162 72.5 285.5t200.5 193.5t296 70t296 -70t200.5 -193.5t72.5 -285.5q0 -161 -72.5 -286t-200.5 -195.5t-296 -70.5zM654 194q91 0 159 42t106 117.5t38 177.5t-38 176.5t-106 115.5t-159 41q-90 0 -158.5 -41
t-106.5 -115.5t-38 -176.5t38 -177.5t106.5 -117.5t158.5 -42zM382 1495h156q0 -61 31 -101.5t86 -40.5q56 0 86.5 40.5t30.5 101.5h157q0 -116 -78.5 -180.5t-195.5 -64.5t-195 64.5t-78 180.5z" />
    <glyph glyph-name="Ohungarumlaut" unicode="&#x150;" horiz-adv-x="1455" 
d="M727 -22q-134 0 -250 50t-203.5 147.5t-136 239t-48.5 324.5t48.5 324t135.5 237.5t203.5 146t250.5 49.5q136 0 252.5 -49.5t203.5 -146t135.5 -237.5t48.5 -324t-49 -324.5t-136.5 -239t-203.5 -147.5t-251 -50zM727 195q104 0 188 56.5t133.5 176.5t49.5 311
q0 192 -50 310.5t-134 173.5t-187 55q-101 0 -185.5 -55t-135 -173.5t-50.5 -310.5t50.5 -312t135 -176t185.5 -56zM483 1556l239 198h179l-261 -198h-157zM806 1556l239 198h178l-261 -198h-156z" />
    <glyph glyph-name="ohungarumlaut" unicode="&#x151;" horiz-adv-x="1308" 
d="M654 -21q-168 0 -296 70.5t-200.5 195.5t-72.5 286q0 162 72.5 285.5t200.5 193.5t296 70t296 -70t200.5 -193.5t72.5 -285.5q0 -161 -72.5 -286t-200.5 -195.5t-296 -70.5zM654 194q91 0 159 42t106 117.5t38 177.5t-38 176.5t-106 115.5t-159 41q-90 0 -158.5 -41
t-106.5 -115.5t-38 -176.5t38 -177.5t106.5 -117.5t158.5 -42zM411 1213l154 262h171l-186 -262h-139zM740 1213l166 262h172l-199 -262h-139z" />
    <glyph glyph-name="OE" unicode="&#x152;" horiz-adv-x="2079" 
d="M713 -22q-179 0 -320 88.5t-222.5 258.5t-81.5 414q0 245 81 413.5t222.5 256t320.5 87.5q128 0 225 -44.5t146 -109.5v133h867v-210h-733l119 131v-621l-64 70h591v-210h-593l66 72v-628l-119 131h733v-210h-867v144q-50 -70 -147 -118t-224 -48zM713 195
q104 0 187.5 56.5t132.5 176.5t49 311q0 192 -49.5 310.5t-133 173.5t-186.5 55q-101 0 -182 -55t-128 -173.5t-47 -310.5t47 -312t128 -176t182 -56z" />
    <glyph glyph-name="oe" unicode="&#x153;" horiz-adv-x="2173" 
d="M654 -21q-168 0 -296 70.5t-200.5 195.5t-72.5 286q0 162 72.5 285.5t200.5 193.5t296 70q108 0 200 -30t164 -85.5t119 -132.5h-93q48 77 120.5 132.5t165 85.5t199.5 30q172 0 297.5 -70t193.5 -194.5t68 -289.5q0 -21 -1 -45t-3 -35h-981l112 93q0 -15 0.5 -29.5
t1.5 -28.5q8 -95 45.5 -161t105.5 -100t168 -34q72 0 123 13t83.5 35.5t49 48.5t19.5 52h262q-6 -67 -44.5 -130.5t-107.5 -115t-167.5 -82t-224.5 -30.5q-109 0 -202 30t-164.5 86.5t-118.5 133.5h92q-47 -76 -119.5 -132t-164 -86t-198.5 -30zM654 194q91 0 159.5 42
t106.5 117.5t38 177.5t-38 176.5t-106.5 115.5t-159.5 41q-90 0 -159 -41t-107 -115.5t-38 -176.5t38 -177.5t107 -117.5t159 -42zM1226 633h589v6v5q-4 61 -37 113.5t-94.5 84.5t-151.5 32q-86 0 -149.5 -29.5t-103 -83.5t-53.5 -128z" />
    <glyph glyph-name="Racute" unicode="&#x154;" horiz-adv-x="1246" 
d="M129 0v1475h568q223 0 335 -102t112 -300q0 -116 -44 -197t-107 -125t-120 -50q58 -4 112 -30t88.5 -81.5t34.5 -149.5v-149.5v-149.5q0 -47 8 -86.5t20 -54.5h-265q-10 18 -17.5 55.5t-7.5 85.5v133.5v134.5q0 91 -51 138t-154 47h-325l70 89v-683h-257zM386 705l-70 99
h327q65 0 117 30.5t82.5 85.5t30.5 129q0 108 -62 162t-176 54h-326l77 93v-653zM430 1556l276 198h220l-300 -198h-196z" />
    <glyph glyph-name="racute" unicode="&#x155;" horiz-adv-x="881" 
d="M132 0v1062h263v-353l-61 34q10 69 37 130.5t72 108t109 72.5t146 26q65 0 102.5 -9.5t46.5 -15.5l-48 -241q-10 7 -40.5 17.5t-81.5 10.5q-81 0 -135.5 -27.5t-86.5 -74t-46 -102t-14 -110.5v-528h-263zM379 1213l238 262h211l-268 -262h-181z" />
    <glyph glyph-name="uni0156" unicode="&#x156;" horiz-adv-x="1246" 
d="M129 0v1475h568q223 0 335 -102t112 -300q0 -116 -44 -197t-107 -125t-120 -50q58 -4 112 -30t88.5 -81.5t34.5 -149.5v-149.5v-149.5q0 -47 8 -86.5t20 -54.5h-265q-10 18 -17.5 55.5t-7.5 85.5v133.5v134.5q0 91 -51 138t-154 47h-325l70 89v-683h-257zM386 705l-70 99
h327q65 0 117 30.5t82.5 85.5t30.5 129q0 108 -62 162t-176 54h-326l77 93v-653zM616 -259q-42 0 -68 23t-26 62q0 48 35.5 70t77.5 22q27 0 54 -11.5t45 -36t18 -66.5q0 -73 -30 -123.5t-72.5 -82t-80.5 -48.5l-18 45q29 11 60.5 34t53 58t21.5 81q-7 -12 -27.5 -19.5
t-42.5 -7.5z" />
    <glyph glyph-name="uni0157" unicode="&#x157;" horiz-adv-x="881" 
d="M132 0v1062h263v-353l-61 34q10 69 37 130.5t72 108t109 72.5t146 26q65 0 102.5 -9.5t46.5 -15.5l-48 -241q-10 7 -40.5 17.5t-81.5 10.5q-81 0 -135.5 -27.5t-86.5 -74t-46 -102t-14 -110.5v-528h-263zM243 -259q-42 0 -68 23t-26 62q0 48 35.5 70t77.5 22
q27 0 54 -11.5t45 -36t18 -66.5q0 -73 -30 -123.5t-72.5 -82t-80.5 -48.5l-18 45q29 11 60.5 34t53 58t21.5 81q-7 -12 -27.5 -19.5t-42.5 -7.5z" />
    <glyph glyph-name="Rcaron" unicode="&#x158;" horiz-adv-x="1246" 
d="M129 0v1475h568q223 0 335 -102t112 -300q0 -116 -44 -197t-107 -125t-120 -50q58 -4 112 -30t88.5 -81.5t34.5 -149.5v-149.5v-149.5q0 -47 8 -86.5t20 -54.5h-265q-10 18 -17.5 55.5t-7.5 85.5v133.5v134.5q0 91 -51 138t-154 47h-325l70 89v-683h-257zM386 705l-70 99
h327q65 0 117 30.5t82.5 85.5t30.5 129q0 108 -62 162t-176 54h-326l77 93v-653zM262 1752h174l182 -159h-71l181 159h176l-232 -198h-179z" />
    <glyph glyph-name="rcaron" unicode="&#x159;" horiz-adv-x="881" 
d="M132 0v1062h263v-353l-61 34q10 69 37 130.5t72 108t109 72.5t146 26q65 0 102.5 -9.5t46.5 -15.5l-48 -241q-10 7 -40.5 17.5t-81.5 10.5q-81 0 -135.5 -27.5t-86.5 -74t-46 -102t-14 -110.5v-528h-263zM211 1475h171l181 -213h-72l182 213h173l-231 -262h-174z" />
    <glyph glyph-name="Sacute" unicode="&#x15a;" horiz-adv-x="1222" 
d="M610 -22q-157 0 -274 50t-182 150.5t-65 249.5v30.5v30.5h263v-27.5v-28.5q0 -120 65.5 -179.5t193.5 -59.5q129 0 197.5 43t68.5 138q0 69 -46.5 117.5t-127.5 85.5t-184 69q-116 36 -211 93t-152 144t-57 214t65.5 216t180 135.5t260.5 46.5q153 0 269.5 -48
t182.5 -143t66 -237v-33v-32h-264v26.5v26.5q0 114 -62 168.5t-188 54.5q-123 0 -189 -43t-66 -137q0 -70 45 -117t123.5 -81.5t178.5 -69.5q133 -44 230 -99.5t150 -138t53 -209.5q0 -130 -65.5 -220.5t-183 -138t-275.5 -47.5zM458 1556l276 198h220l-300 -198h-196z" />
    <glyph glyph-name="sacute" unicode="&#x15b;" horiz-adv-x="1127" 
d="M561 -22q-95 0 -180.5 21t-152 63t-105 104.5t-38.5 144.5v12v11h262v-8.5v-9.5q0 -65 59.5 -97.5t162.5 -32.5q56 0 105.5 12t80 37t30.5 64q0 63 -64.5 90t-202.5 49q-76 13 -150 35t-134.5 59t-97 92t-36.5 134q0 105 62.5 176.5t168 108.5t232.5 37q122 0 227 -40
t169.5 -115t64.5 -181v-8.5v-7.5h-260v6v7q0 46 -29 75t-75 43t-97 14q-45 0 -93 -9.5t-80 -33t-32 -65.5q0 -40 33 -65t92 -41.5t136 -29.5q73 -12 147.5 -33t136.5 -56t100.5 -91.5t38.5 -139.5q0 -88 -40 -150t-108.5 -102.5t-154.5 -59.5t-178 -19zM414 1213l238 262
h211l-268 -262h-181z" />
    <glyph glyph-name="Scircumflex" unicode="&#x15c;" horiz-adv-x="1222" 
d="M610 -22q-157 0 -274 50t-182 150.5t-65 249.5v30.5v30.5h263v-27.5v-28.5q0 -120 65.5 -179.5t193.5 -59.5q129 0 197.5 43t68.5 138q0 69 -46.5 117.5t-127.5 85.5t-184 69q-116 36 -211 93t-152 144t-57 214t65.5 216t180 135.5t260.5 46.5q153 0 269.5 -48
t182.5 -143t66 -237v-33v-32h-264v26.5v26.5q0 114 -62 168.5t-188 54.5q-123 0 -189 -43t-66 -137q0 -70 45 -117t123.5 -81.5t178.5 -69.5q133 -44 230 -99.5t150 -138t53 -209.5q0 -130 -65.5 -220.5t-183 -138t-275.5 -47.5zM290 1554l231 198h179l232 -198h-176
l-181 158h71l-182 -158h-174z" />
    <glyph glyph-name="scircumflex" unicode="&#x15d;" horiz-adv-x="1127" 
d="M561 -22q-95 0 -180.5 21t-152 63t-105 104.5t-38.5 144.5v12v11h262v-8.5v-9.5q0 -65 59.5 -97.5t162.5 -32.5q56 0 105.5 12t80 37t30.5 64q0 63 -64.5 90t-202.5 49q-76 13 -150 35t-134.5 59t-97 92t-36.5 134q0 105 62.5 176.5t168 108.5t232.5 37q122 0 227 -40
t169.5 -115t64.5 -181v-8.5v-7.5h-260v6v7q0 46 -29 75t-75 43t-97 14q-45 0 -93 -9.5t-80 -33t-32 -65.5q0 -40 33 -65t92 -41.5t136 -29.5q73 -12 147.5 -33t136.5 -56t100.5 -91.5t38.5 -139.5q0 -88 -40 -150t-108.5 -102.5t-154.5 -59.5t-178 -19zM247 1213l230 262
h174l231 -262h-173l-182 213h72l-181 -213h-171z" />
    <glyph glyph-name="Scedilla" unicode="&#x15e;" horiz-adv-x="1222" 
d="M710 -82q35 0 69 -15.5t56.5 -48.5t22.5 -86q0 -64 -38 -105.5t-98 -61.5t-127 -20q-60 0 -118.5 15t-81.5 31l53 99q17 -11 61 -27.5t96 -16.5q57 0 96 23.5t39 67.5q0 37 -20.5 53t-50.5 16q-24 0 -49.5 -9t-38.5 -26l-102 29l71 164h115l-60 -140l-13 4q10 22 42.5 38
t75.5 16zM610 -22q-157 0 -274 50t-182 150.5t-65 249.5v30.5v30.5h263v-27.5v-28.5q0 -120 65.5 -179.5t193.5 -59.5q129 0 197.5 43t68.5 138q0 69 -46.5 117.5t-127.5 85.5t-184 69q-116 36 -211 93t-152 144t-57 214t65.5 216t180 135.5t260.5 46.5q153 0 269.5 -48
t182.5 -143t66 -237v-33v-32h-264v26.5v26.5q0 114 -62 168.5t-188 54.5q-123 0 -189 -43t-66 -137q0 -70 45 -117t123.5 -81.5t178.5 -69.5q133 -44 230 -99.5t150 -138t53 -209.5q0 -130 -65.5 -220.5t-183 -138t-275.5 -47.5z" />
    <glyph glyph-name="scedilla" unicode="&#x15f;" horiz-adv-x="1121" 
d="M667 -98q34 0 68 -15t56.5 -48t22.5 -86q0 -64 -37.5 -105.5t-97.5 -61.5t-127 -20q-61 0 -119.5 14.5t-81.5 30.5l53 99q18 -10 62 -26.5t95 -16.5q57 0 96 23.5t39 67.5q0 36 -20.5 52.5t-50.5 16.5q-24 0 -49 -9.5t-38 -26.5l-105 30l71 164h120l-60 -140l-21 3
q9 23 44.5 38.5t79.5 15.5zM561 -22q-95 0 -180.5 21t-152 63t-105 104.5t-38.5 144.5v12v11h262v-8.5v-9.5q0 -65 59.5 -97.5t162.5 -32.5q56 0 105.5 12t80 37t30.5 64q0 63 -64.5 90t-202.5 49q-76 13 -150 35t-134.5 59t-97 92t-36.5 134q0 105 62.5 176.5t168 108.5
t232.5 37q122 0 227 -40t169.5 -115t64.5 -181v-8.5v-7.5h-260v6v7q0 46 -29 75t-75 43t-97 14q-45 0 -93 -9.5t-80 -33t-32 -65.5q0 -40 33 -65t92 -41.5t136 -29.5q73 -12 147.5 -33t136.5 -56t100.5 -91.5t38.5 -139.5q0 -88 -40 -150t-108.5 -102.5t-154.5 -59.5
t-178 -19z" />
    <glyph glyph-name="Scaron" unicode="&#x160;" horiz-adv-x="1222" 
d="M610 -22q-157 0 -274 50t-182 150.5t-65 249.5v30.5v30.5h263v-27.5v-28.5q0 -120 65.5 -179.5t193.5 -59.5q129 0 197.5 43t68.5 138q0 69 -46.5 117.5t-127.5 85.5t-184 69q-116 36 -211 93t-152 144t-57 214t65.5 216t180 135.5t260.5 46.5q153 0 269.5 -48
t182.5 -143t66 -237v-33v-32h-264v26.5v26.5q0 114 -62 168.5t-188 54.5q-123 0 -189 -43t-66 -137q0 -70 45 -117t123.5 -81.5t178.5 -69.5q133 -44 230 -99.5t150 -138t53 -209.5q0 -130 -65.5 -220.5t-183 -138t-275.5 -47.5zM290 1752h174l182 -159h-71l181 159h176
l-232 -198h-179z" />
    <glyph glyph-name="scaron" unicode="&#x161;" horiz-adv-x="1127" 
d="M561 -22q-95 0 -180.5 21t-152 63t-105 104.5t-38.5 144.5v12v11h262v-8.5v-9.5q0 -65 59.5 -97.5t162.5 -32.5q56 0 105.5 12t80 37t30.5 64q0 63 -64.5 90t-202.5 49q-76 13 -150 35t-134.5 59t-97 92t-36.5 134q0 105 62.5 176.5t168 108.5t232.5 37q122 0 227 -40
t169.5 -115t64.5 -181v-8.5v-7.5h-260v6v7q0 46 -29 75t-75 43t-97 14q-45 0 -93 -9.5t-80 -33t-32 -65.5q0 -40 33 -65t92 -41.5t136 -29.5q73 -12 147.5 -33t136.5 -56t100.5 -91.5t38.5 -139.5q0 -88 -40 -150t-108.5 -102.5t-154.5 -59.5t-178 -19zM247 1475h171
l181 -213h-72l182 213h173l-231 -262h-174z" />
    <glyph glyph-name="uni0162" unicode="&#x162;" horiz-adv-x="1145" 
d="M1074 1265h-467l97 131v-1396h-264v1396l102 -131h-471v210h1003v-210zM672 -82q35 0 69 -15.5t56.5 -48.5t22.5 -86q0 -64 -38 -105.5t-98 -61.5t-127 -20q-60 0 -118.5 15t-81.5 31l53 99q17 -11 61 -27.5t96 -16.5q57 0 96 23.5t39 67.5q0 37 -20.5 53t-50.5 16
q-24 0 -49.5 -9t-38.5 -26l-102 29l71 164h115l-60 -140l-13 4q10 22 42.5 38t75.5 16z" />
    <glyph glyph-name="uni0163" unicode="&#x163;" horiz-adv-x="933" 
d="M620 -20q-57 0 -116 11t-108 41t-79 88t-30 153v44.5v46.5v488h-251v210h102q52 0 82 4.5t44 21.5t18.5 53.5t4.5 101.5v169h264v-350h316v-210h-316v-426v-37.5v-35.5q0 -74 18 -119t85 -45q32 0 60.5 6t42.5 12v-206q-19 -7 -55 -14t-82 -7zM634 -82q35 0 69 -15.5
t56.5 -48.5t22.5 -86q0 -64 -38 -105.5t-98 -61.5t-127 -20q-60 0 -118.5 15t-81.5 31l53 99q17 -11 61 -27.5t96 -16.5q57 0 96 23.5t39 67.5q0 37 -20.5 53t-50.5 16q-24 0 -49.5 -9t-38.5 -26l-104 29l71 164h120l-61 -140l-21 4q10 22 45.5 38t78.5 16z" />
    <glyph glyph-name="Tcaron" unicode="&#x164;" horiz-adv-x="1145" 
d="M1074 1265h-467l97 131v-1396h-264v1396l102 -131h-471v210h1003v-210zM252 1752h174l182 -159h-71l181 159h176l-232 -198h-179z" />
    <glyph glyph-name="tcaron" unicode="&#x165;" horiz-adv-x="912" 
d="M620 -20q-57 0 -116 11t-108 41t-79 88t-30 153v44.5v46.5v488h-251v210h102q52 0 82 4.5t44 21.5t18.5 53.5t4.5 101.5v169h264v-350h316v-210h-316v-426v-37.5v-35.5q0 -74 18 -119t85 -45q32 0 60.5 6t42.5 12v-206q-19 -7 -55 -14t-82 -7zM872 1563
q0 -83 -9.5 -167.5t-21.5 -149t-19 -91.5h-124q6 28 13.5 91.5t13 147t5.5 169.5h142z" />
    <glyph glyph-name="Tbar" unicode="&#x166;" horiz-adv-x="1145" 
d="M214 677v122h717v-122h-717zM1074 1265h-467l97 131v-1396h-264v1396l102 -131h-471v210h1003v-210z" />
    <glyph glyph-name="tbar" unicode="&#x167;" horiz-adv-x="933" 
d="M88 526v153h649v-153h-649zM620 -20q-57 0 -116 11t-108 41t-79 88t-30 153v44.5v46.5v488h-251v210h102q52 0 82 4.5t44 21.5t18.5 53.5t4.5 101.5v169h264v-350h316v-210h-316v-426v-37.5v-35.5q0 -74 18 -119t85 -45q32 0 60.5 6t42.5 12v-206q-19 -7 -55 -14t-82 -7z
" />
    <glyph glyph-name="Utilde" unicode="&#x168;" horiz-adv-x="1332" 
d="M1204 536q0 -282 -143.5 -420t-395.5 -138q-250 0 -393 138t-143 420v86v94v759h264v-793v-79v-69q0 -178 66.5 -259t205.5 -81q141 0 208 81t67 259v941h264v-939zM990 1749q-1 -44 -20.5 -91.5t-60.5 -80.5t-106 -33q-51 0 -86 20t-58 40q-22 19 -44.5 33t-51.5 14
q-37 0 -52.5 -24.5t-16.5 -59.5h-139q2 46 23.5 94t64.5 80.5t109 32.5q48 0 82.5 -19.5t56.5 -38.5q23 -19 47 -34t50 -15q35 0 49 23.5t15 58.5h138z" />
    <glyph glyph-name="utilde" unicode="&#x169;" horiz-adv-x="1245" 
d="M514 -20q-113 0 -187.5 38t-117 100t-60 137t-17.5 150v77v81v499h264v-458v-69v-62q0 -71 17 -131.5t62.5 -97.5t128.5 -37q79 0 136 46.5t88.5 117.5t31.5 144l90 -60q0 -97 -30 -182.5t-87 -151.5t-137.5 -103.5t-181.5 -37.5zM860 0v1062h263v-1062h-263zM930 1454
q-1 -44 -20.5 -91t-60.5 -80t-106 -33q-51 0 -86 20t-58 39q-22 19 -44.5 33t-51.5 14q-37 0 -52.5 -24.5t-16.5 -58.5h-139q2 45 23.5 93t64.5 81t109 33q48 0 82.5 -20t56.5 -39q23 -19 47 -34t50 -15q35 0 49 24t15 58h138z" />
    <glyph glyph-name="Umacron" unicode="&#x16a;" horiz-adv-x="1332" 
d="M1204 536q0 -282 -143.5 -420t-395.5 -138q-250 0 -393 138t-143 420v86v94v759h264v-793v-79v-69q0 -178 66.5 -259t205.5 -81q141 0 208 81t67 259v941h264v-939zM371 1610v111h588v-111h-588z" />
    <glyph glyph-name="umacron" unicode="&#x16b;" horiz-adv-x="1245" 
d="M514 -20q-113 0 -187.5 38t-117 100t-60 137t-17.5 150v77v81v499h264v-458v-69v-62q0 -71 17 -131.5t62.5 -97.5t128.5 -37q79 0 136 46.5t88.5 117.5t31.5 144l90 -60q0 -97 -30 -182.5t-87 -151.5t-137.5 -103.5t-181.5 -37.5zM860 0v1062h263v-1062h-263zM320 1297
v112h588v-112h-588z" />
    <glyph glyph-name="Ubreve" unicode="&#x16c;" horiz-adv-x="1332" 
d="M1204 536q0 -282 -143.5 -420t-395.5 -138q-250 0 -393 138t-143 420v86v94v759h264v-793v-79v-69q0 -178 66.5 -259t205.5 -81q141 0 208 81t67 259v941h264v-939zM393 1734h156q0 -39 31 -67t86 -28q56 0 86.5 28t30.5 67h157q0 -89 -78.5 -144t-195.5 -55t-195 55
t-78 144z" />
    <glyph glyph-name="ubreve" unicode="&#x16d;" horiz-adv-x="1245" 
d="M514 -20q-113 0 -187.5 38t-117 100t-60 137t-17.5 150v77v81v499h264v-458v-69v-62q0 -71 17 -131.5t62.5 -97.5t128.5 -37q79 0 136 46.5t88.5 117.5t31.5 144l90 -60q0 -97 -30 -182.5t-87 -151.5t-137.5 -103.5t-181.5 -37.5zM860 0v1062h263v-1062h-263zM340 1495
h156q0 -61 31 -101.5t86 -40.5q56 0 86.5 40.5t30.5 101.5h157q0 -116 -78.5 -180.5t-195.5 -64.5t-195 64.5t-78 180.5z" />
    <glyph glyph-name="Uring" unicode="&#x16e;" horiz-adv-x="1332" 
d="M1204 536q0 -282 -143.5 -420t-395.5 -138q-250 0 -393 138t-143 420v86v94v759h264v-793v-79v-69q0 -178 66.5 -259t205.5 -81q141 0 208 81t67 259v941h264v-939zM666 1635q42 0 71.5 29t29.5 72q0 42 -29.5 71t-71.5 29t-71.5 -29t-29.5 -71q0 -43 29.5 -72t71.5 -29z
M666 1519q-60 0 -109 29t-78.5 78.5t-29.5 109.5q0 59 29.5 108.5t78.5 79t109 29.5t109 -29.5t78.5 -79t29.5 -108.5q0 -60 -29.5 -109.5t-78.5 -78.5t-109 -29z" />
    <glyph glyph-name="uring" unicode="&#x16f;" horiz-adv-x="1245" 
d="M514 -20q-113 0 -187.5 38t-117 100t-60 137t-17.5 150v77v81v499h264v-458v-69v-62q0 -71 17 -131.5t62.5 -97.5t128.5 -37q79 0 136 46.5t88.5 117.5t31.5 144l90 -60q0 -97 -30 -182.5t-87 -151.5t-137.5 -103.5t-181.5 -37.5zM860 0v1062h263v-1062h-263zM614 1261
q42 0 71.5 29.5t29.5 71.5t-29.5 71.5t-71.5 29.5t-71.5 -29t-29.5 -72q0 -42 29.5 -71.5t71.5 -29.5zM614 1145q-60 0 -109 29.5t-78.5 79t-29.5 108.5q0 60 29.5 109t78.5 78.5t109 29.5t109 -29.5t78.5 -78.5t29.5 -109q0 -59 -29.5 -108.5t-78.5 -79t-109 -29.5z" />
    <glyph glyph-name="Uhungarumlaut" unicode="&#x170;" horiz-adv-x="1332" 
d="M1204 536q0 -282 -143.5 -420t-395.5 -138q-250 0 -393 138t-143 420v86v94v759h264v-793v-79v-69q0 -178 66.5 -259t205.5 -81q141 0 208 81t67 259v941h264v-939zM421 1556l239 198h179l-261 -198h-157zM744 1556l239 198h178l-261 -198h-156z" />
    <glyph glyph-name="uhungarumlaut" unicode="&#x171;" horiz-adv-x="1245" 
d="M514 -20q-113 0 -187.5 38t-117 100t-60 137t-17.5 150v77v81v499h264v-458v-69v-62q0 -71 17 -131.5t62.5 -97.5t128.5 -37q79 0 136 46.5t88.5 117.5t31.5 144l90 -60q0 -97 -30 -182.5t-87 -151.5t-137.5 -103.5t-181.5 -37.5zM860 0v1062h263v-1062h-263zM370 1213
l154 262h171l-186 -262h-139zM699 1213l166 262h172l-199 -262h-139z" />
    <glyph glyph-name="Uogonek" unicode="&#x172;" horiz-adv-x="1332" 
d="M917 -285v-129q-20 -2 -44.5 -4t-48.5 -2q-63 0 -117 15.5t-87 51t-33 93.5t33.5 112.5t80 100t82.5 71.5h134q-32 -27 -73 -71.5t-72 -91t-31 -81.5q0 -40 28 -56t70 -16q19 0 40 2t38 5zM1204 536q0 -282 -143.5 -420t-395.5 -138q-250 0 -393 138t-143 420v86v94v759
h264v-793v-79v-69q0 -178 66.5 -259t205.5 -81q141 0 208 81t67 259v941h264v-939z" />
    <glyph glyph-name="uogonek" unicode="&#x173;" horiz-adv-x="1245" 
d="M514 -20q-113 0 -187.5 38t-117 100t-60 137t-17.5 150v77v81v499h264v-458v-69v-62q0 -71 17 -131.5t62.5 -97.5t128.5 -37q79 0 136 46.5t88.5 117.5t31.5 144l90 -60q0 -97 -30 -182.5t-87 -151.5t-137.5 -103.5t-181.5 -37.5zM860 0v1062h263v-1062h-263zM1123 -309
v-129q-20 -2 -44.5 -4t-49.5 -2q-62 0 -114 16.5t-83 53t-31 94.5q0 54 31.5 108t75.5 100t81 72h134q-32 -27 -73.5 -71.5t-72.5 -91t-31 -81.5q0 -40 28.5 -56t70.5 -16q19 0 40 2t38 5z" />
    <glyph glyph-name="Wcircumflex" unicode="&#x174;" horiz-adv-x="1834" 
d="M297 0l-222 1475h272l170 -1406l-38 2l272 1404h332l271 -1404l-38 -2l170 1406h273l-224 -1475h-404l-228 1284h28l-228 -1284h-406zM600 1554l231 198h179l232 -198h-176l-181 158h71l-182 -158h-174z" />
    <glyph glyph-name="wcircumflex" unicode="&#x175;" horiz-adv-x="1605" 
d="M988 0l-247 1062h201l241 -979h-43l154 979h273l-218 -1062h-361zM256 0l-219 1062h273l155 -979h-43l239 979h201l-243 -1062h-363zM488 1213l230 262h174l231 -262h-173l-182 213h72l-181 -213h-171z" />
    <glyph glyph-name="Ycircumflex" unicode="&#x176;" horiz-adv-x="1233" 
d="M1170 1475l-423 -965v-510h-264v510l-420 965h279l327 -826h-106l326 826h281zM296 1554l231 198h179l232 -198h-176l-181 158h71l-182 -158h-174z" />
    <glyph glyph-name="ycircumflex" unicode="&#x177;" horiz-adv-x="1096" 
d="M201 -456q-47 0 -84 4.5t-46 8.5v205q13 -6 44.5 -9.5t65.5 -3.5q55 0 95.5 22t69.5 60.5t46 89.5l23 67l-366 1074h275l251 -886h-32l245 886h270l-372 -1127q-39 -117 -94.5 -205t-147.5 -137t-243 -49zM233 1213l230 262h174l231 -262h-173l-182 213h72l-181 -213
h-171z" />
    <glyph glyph-name="Ydieresis" unicode="&#x178;" horiz-adv-x="1233" 
d="M1170 1475l-423 -965v-510h-264v510l-420 965h279l327 -826h-106l326 826h281zM391 1549q-58 0 -101.5 31.5t-43.5 88.5t43.5 88t101.5 31q59 0 102.5 -31t43.5 -88q0 -58 -43.5 -89t-102.5 -31zM843 1549q-59 0 -102 31.5t-43 88.5t43 88t102 31q58 0 101.5 -31
t43.5 -88q0 -58 -43.5 -89t-101.5 -31z" />
    <glyph glyph-name="Zacute" unicode="&#x179;" horiz-adv-x="1147" 
d="M389 210h655v-210h-951v183l667 1083l2 -1h-623v210h914v-180l-664 -1082v-3zM424 1556l276 198h220l-300 -198h-196z" />
    <glyph glyph-name="zacute" unicode="&#x17a;" horiz-adv-x="1009" 
d="M349 214h595v-214h-879v203l583 654l5 -9h-566v214h846v-203l-579 -652zM360 1213l238 262h211l-268 -262h-181z" />
    <glyph glyph-name="Zdotaccent" unicode="&#x17b;" horiz-adv-x="1147" 
d="M389 210h655v-210h-951v183l667 1083l2 -1h-623v210h914v-180l-664 -1082v-3zM579 1565q-63 0 -110.5 34.5t-47.5 95.5q0 62 47.5 96t110.5 34q64 0 111 -34t47 -96t-47 -96t-111 -34z" />
    <glyph glyph-name="zdotaccent" unicode="&#x17c;" horiz-adv-x="1009" 
d="M349 214h595v-214h-879v203l583 654l5 -9h-566v214h846v-203l-579 -652zM509 1258q-63 0 -110.5 34t-47.5 95q0 62 47.5 96t110.5 34q64 0 111 -34t47 -96t-47 -95.5t-111 -33.5z" />
    <glyph glyph-name="Zcaron" unicode="&#x17d;" horiz-adv-x="1147" 
d="M389 210h655v-210h-951v183l667 1083l2 -1h-623v210h914v-180l-664 -1082v-3zM256 1752h174l182 -159h-71l181 159h176l-232 -198h-179z" />
    <glyph glyph-name="zcaron" unicode="&#x17e;" horiz-adv-x="1009" 
d="M349 214h595v-214h-879v203l583 654l5 -9h-566v214h846v-203l-579 -652zM192 1475h171l181 -213h-72l182 213h173l-231 -262h-174z" />
    <glyph glyph-name="uni018F" unicode="&#x18f;" horiz-adv-x="1300" 
d="M638 -11q-126 0 -227.5 47t-173.5 139.5t-110 227t-38 310.5v68t1 37h880v-203h-632l12 70v-19v-17q0 -107 18.5 -191t55 -142t90 -88t124.5 -30q76 0 134 35t96.5 103.5t57.5 169.5t19 233q0 146 -20.5 248t-59 165.5t-94 92.5t-125.5 29q-72 0 -126 -24t-90 -64
t-55 -86.5t-21 -90.5h-254q3 91 42.5 175.5t111 152t171 107.5t221.5 40q121 0 224 -44t180 -135t119.5 -232t42.5 -334q0 -177 -41.5 -316t-117.5 -235.5t-181 -147.5t-234 -51z" />
    <glyph glyph-name="florin" unicode="&#x192;" horiz-adv-x="1041" 
d="M18 -417q-55 0 -94.5 9.5t-50.5 13.5l53 185q11 -4 37.5 -9.5t55.5 -5.5q73 0 111 31.5t56 85.5t29 120q14 72 29.5 163t33 192.5t35 207t35 208t33.5 194.5t29 167q19 108 61.5 187.5t103.5 132.5t136.5 79.5t159.5 26.5q55 0 94.5 -8.5t50.5 -13.5l-53 -185
q-12 5 -38 10t-55 5q-73 0 -111 -31.5t-55.5 -85.5t-29.5 -120q-13 -75 -29 -167t-33.5 -194.5t-35.5 -208.5t-35.5 -207.5t-33.5 -192t-28 -162.5q-20 -108 -62.5 -188t-103 -133t-136 -79.5t-159.5 -26.5zM108 870l35 192h763l-35 -192h-763z" />
    <glyph glyph-name="uni019D" unicode="&#x19d;" horiz-adv-x="1427" 
d="M-73 -465v189q55 2 93.5 20t62.5 49t35 72t11 89v1521h421l519 -1337l-27 -5v1342h257v-1475h-426l-514 1324l26 5v-1375q0 -73 -13.5 -146t-58.5 -134t-137 -98.5t-249 -40.5z" />
    <glyph glyph-name="Ohorn" unicode="&#x1a0;" horiz-adv-x="1463" 
d="M1090 1372q83 0 123 65t40 193h165q0 -199 -88 -293.5t-240 -94.5v130zM727 -22q-134 0 -250 50t-203.5 147.5t-136 239t-48.5 324.5t48.5 324t135.5 237.5t203.5 146t250.5 49.5q136 0 252.5 -49.5t203.5 -146t135.5 -237.5t48.5 -324t-49 -324.5t-136.5 -239
t-203.5 -147.5t-251 -50zM727 195q104 0 188 56.5t133.5 176.5t49.5 311q0 192 -50 310.5t-134 173.5t-187 55q-101 0 -185.5 -55t-135 -173.5t-50.5 -310.5t50.5 -312t135 -176t185.5 -56z" />
    <glyph glyph-name="ohorn" unicode="&#x1a1;" horiz-adv-x="1306" 
d="M942 988q68 0 103.5 24t48.5 83.5t13 163.5h146q0 -149 -34.5 -235.5t-103.5 -122.5t-173 -36v123zM651 -21q-168 0 -296 70.5t-200.5 195.5t-72.5 286q0 162 72.5 285.5t200.5 193.5t296 70t296 -70t200.5 -193.5t72.5 -285.5q0 -161 -72.5 -286t-200.5 -195.5
t-296 -70.5zM651 194q91 0 159.5 42t106.5 117.5t38 177.5t-38 176.5t-106.5 115.5t-159.5 41q-90 0 -158.5 -41t-107 -115.5t-38.5 -176.5t38.5 -177.5t107 -117.5t158.5 -42z" />
    <glyph glyph-name="Uhorn" unicode="&#x1af;" horiz-adv-x="1415" 
d="M1095 1475q83 0 123 65t40 193h165q0 -199 -88 -293t-240 -94v129zM1204 536q0 -282 -143.5 -420t-395.5 -138q-250 0 -393 138t-143 420v86v94v759h264v-793v-79v-69q0 -178 66.5 -259t205.5 -81q141 0 208 81t67 259v941h264v-939z" />
    <glyph glyph-name="uhorn" unicode="&#x1b0;" horiz-adv-x="1286" 
d="M961 1062q68 0 103.5 24.5t48.5 83.5t13 164h146q0 -150 -35 -236t-104 -122.5t-172 -36.5v123zM494 -20q-113 0 -185.5 38t-113 100t-56 137t-15.5 150v77v81v499h264v-458v-69v-62q0 -71 14 -131.5t56.5 -97.5t125.5 -37q79 0 136 46.5t88.5 117.5t31.5 144l90 -60
q0 -97 -30 -182.5t-87 -151.5t-137.5 -103.5t-181.5 -37.5zM840 0v1062h263v-1062h-263z" />
    <glyph glyph-name="uni01B7" unicode="&#x1b7;" horiz-adv-x="1213" 
d="M599 -22q-140 0 -234 37.5t-150 104.5t-81 155t-25 190v2v2h264v-2v-2q0 -158 61 -217.5t168 -59.5q95 0 152.5 55.5t57.5 188.5q0 86 -29.5 134.5t-96.5 68.5t-180 20h-100l363 610h-616v210h893v-194l-285 -456q107 0 176.5 -47.5t104.5 -132t35 -195.5
q0 -137 -50.5 -244t-156.5 -167.5t-271 -60.5z" />
    <glyph glyph-name="uni01C4" unicode="&#x1c4;" horiz-adv-x="2359" 
d="M129 0v1475h441q147 0 267 -52.5t206 -149.5t133 -232.5t47 -301.5t-47 -301.5t-133 -233.5t-206 -151t-267 -53h-441zM393 79l-119 131h262q120 0 214.5 64.5t149.5 183t55 281.5q0 164 -55 282t-149.5 181t-214.5 63h-262l119 131v-1317zM1602 210h655v-210h-951v183
l667 1083l2 -1h-623v210h914v-180l-664 -1082v-3zM1468 1752h174l182 -159h-71l181 159h176l-232 -198h-179z" />
    <glyph glyph-name="uni01C5" unicode="&#x1c5;" horiz-adv-x="2320" 
d="M129 0v1475h441q147 0 267 -52.5t206 -149.5t133 -232.5t47 -301.5t-47 -301.5t-133 -233.5t-206 -151t-267 -53h-441zM393 79l-119 131h262q120 0 214.5 64.5t149.5 183t55 281.5q0 164 -55 282t-149.5 181t-214.5 63h-262l119 131v-1317zM1660 214h595v-214h-879v203
l583 654l5 -9h-566v214h846v-203l-579 -652zM1503 1475h171l181 -213h-72l182 213h173l-231 -262h-174z" />
    <glyph glyph-name="uni01C6" unicode="&#x1c6;" horiz-adv-x="2307" 
d="M573 -22q-131 0 -242.5 63.5t-178.5 187.5t-67 305q0 176 68.5 298t180 185t239.5 63q125 0 231 -61.5t170 -170.5t64 -250v-8v-8l-130 -3v6.5v6.5q0 79 -39.5 138t-102 92.5t-132.5 33.5q-115 0 -196 -77.5t-81 -244.5q0 -166 81 -245t196 -79q73 0 135 35t100.5 96.5
t38.5 141.5l130 -6q0 -140 -62.5 -253.5t-167.5 -179.5t-235 -66zM908 0v1563h264v-1563h-264zM1647 214h595v-214h-879v203l583 654l5 -9h-566v214h846v-203l-579 -652zM1490 1475h171l181 -213h-72l182 213h173l-231 -262h-174z" />
    <glyph glyph-name="uni01C7" unicode="&#x1c7;" horiz-adv-x="2139" 
d="M129 0v1475h264v-1396l-119 139h678v-218h-823zM1540 -22q-171 0 -275.5 62.5t-151.5 174t-47 260.5v32v32h261v-19v-21q0 -83 19.5 -152t65.5 -111t128 -42q81 0 126 42t63.5 115.5t18.5 166.5v957h263v-993q0 -106 -23.5 -197t-77 -160t-144.5 -108t-226 -39z" />
    <glyph glyph-name="uni01C8" unicode="&#x1c8;" horiz-adv-x="1561" 
d="M129 0v1475h264v-1396l-119 139h678v-218h-823zM1002 -453q-29 0 -55 1.5t-43 4.5v196q16 -4 42.5 -7t55.5 -3q56 0 89 16t49.5 42t22.5 56.5t6 60.5v1148h263v-1156q0 -66 -15.5 -129.5t-59 -115.5t-129 -83t-226.5 -31zM1304 1258q-64 0 -111.5 34.5t-47.5 96.5
q0 61 47.5 95t111.5 34t111 -34t47 -95q0 -62 -47 -96.5t-111 -34.5z" />
    <glyph glyph-name="uni01C9" unicode="&#x1c9;" horiz-adv-x="1131" 
d="M444 -19q-51 0 -106 9t-101.5 38t-75.5 88t-29 158v38.5v41.5v1209h263v-1191v-25v-23q0 -55 11.5 -84t32 -40t48.5 -11q27 0 51.5 5t41.5 11v-205q-23 -7 -56.5 -13t-79.5 -6zM571 -453q-29 0 -55 1.5t-43 4.5v196q16 -4 42.5 -7t55.5 -3q56 0 89 16t49.5 42t22.5 56.5
t6 60.5v1148h263v-1156q0 -66 -15.5 -129.5t-59 -115.5t-129 -83t-226.5 -31zM873 1258q-64 0 -111.5 34.5t-47.5 96.5q0 61 47.5 95t111.5 34t111 -34t47 -95q0 -62 -47 -96.5t-111 -34.5z" />
    <glyph glyph-name="uni01CA" unicode="&#x1ca;" horiz-adv-x="2566" 
d="M385 0h-256v1475h413l539 -1368l-39 -11v1379h257v-1475h-419l-537 1365l42 10v-1375zM1966 -22q-171 0 -275.5 62.5t-151.5 174t-47 260.5v32v32h261v-19v-21q0 -83 19.5 -152t65.5 -111t128 -42q81 0 126 42t63.5 115.5t18.5 166.5v957h263v-993q0 -106 -23.5 -197
t-77 -160t-144.5 -108t-226 -39z" />
    <glyph glyph-name="uni01CB" unicode="&#x1cb;" horiz-adv-x="1917" 
d="M385 0h-256v1475h413l539 -1368l-39 -11v1379h257v-1475h-419l-537 1365l42 10v-1375zM1357 -453q-29 0 -55 1.5t-43 4.5v196q16 -4 42.5 -7t55.5 -3q56 0 89 16t49.5 42t22.5 56.5t6 60.5v1148h263v-1156q0 -66 -15.5 -129.5t-59 -115.5t-129 -83t-226.5 -31zM1659 1258
q-64 0 -111.5 34.5t-47.5 96.5q0 61 47.5 95t111.5 34t111 -34t47 -95q0 -62 -47 -96.5t-111 -34.5z" />
    <glyph glyph-name="uni01CC" unicode="&#x1cc;" horiz-adv-x="1799" 
d="M883 0v471v70.5v55.5q0 72 -20.5 129.5t-70 90.5t-136.5 33q-76 0 -135 -36.5t-92.5 -100t-33.5 -146.5l-89 55q0 133 60.5 236.5t162.5 162.5t226 59q128 0 215.5 -50t132 -142t44.5 -216v-108v-118v-446h-264zM132 0v1062h263v-1062h-263zM1239 -453q-29 0 -55 1.5
t-43 4.5v196q16 -4 42.5 -7t55.5 -3q56 0 89 16t49.5 42t22.5 56.5t6 60.5v1148h263v-1156q0 -66 -15.5 -129.5t-59 -115.5t-129 -83t-226.5 -31zM1541 1258q-64 0 -111.5 34.5t-47.5 96.5q0 61 47.5 95t111.5 34t111 -34t47 -95q0 -62 -47 -96.5t-111 -34.5z" />
    <glyph glyph-name="uni01CD" unicode="&#x1cd;" horiz-adv-x="1301" 
d="M63 0l381 1477h416l378 -1477h-271l-316 1314h2l-319 -1314h-271zM309 359v211h686v-211h-686zM331 1752h174l182 -159h-71l181 159h176l-232 -198h-179z" />
    <glyph glyph-name="uni01CE" unicode="&#x1ce;" horiz-adv-x="1243" 
d="M496 -22q-119 0 -209 37.5t-141 108.5t-51 171q0 109 59.5 179.5t160.5 109t224 49.5q182 18 254.5 34.5t72.5 53.5v1.5v0.5q0 70 -63 108t-178 38q-121 0 -185.5 -42.5t-64.5 -134.5h-260q0 125 66.5 211.5t182.5 131.5t263 45q137 0 251 -41t183 -124t69 -207v-42v-42
v-400q0 -38 2.5 -74.5t10.5 -65.5q10 -32 24 -54t22 -30h-260q-7 7 -19.5 27.5t-22.5 47.5q-10 30 -15 64.5t-5 76.5l52 -36q-30 -61 -91.5 -106.5t-146.5 -70.5t-185 -25zM560 185q82 0 152 28t113 86.5t43 150.5v142l64 -72q-64 -24 -154 -39.5t-182 -24.5
q-118 -11 -177.5 -41t-59.5 -98q0 -66 50 -99t151 -33zM324 1475h171l181 -213h-72l182 213h173l-231 -262h-174z" />
    <glyph glyph-name="uni01CF" unicode="&#x1cf;" horiz-adv-x="522" 
d="M131 0v1475h260v-1475h-260zM-59 1752h174l182 -159h-71l181 159h176l-232 -198h-179z" />
    <glyph glyph-name="uni01D0" unicode="&#x1d0;" horiz-adv-x="514" 
d="M127 0v1062h260v-1062h-260zM-59 1475h171l181 -213h-72l182 213h173l-231 -262h-174z" />
    <glyph glyph-name="uni01D1" unicode="&#x1d1;" horiz-adv-x="1455" 
d="M727 -22q-134 0 -250 50t-203.5 147.5t-136 239t-48.5 324.5t48.5 324t135.5 237.5t203.5 146t250.5 49.5q136 0 252.5 -49.5t203.5 -146t135.5 -237.5t48.5 -324t-49 -324.5t-136.5 -239t-203.5 -147.5t-251 -50zM727 195q104 0 188 56.5t133.5 176.5t49.5 311
q0 192 -50 310.5t-134 173.5t-187 55q-101 0 -185.5 -55t-135 -173.5t-50.5 -310.5t50.5 -312t135 -176t185.5 -56zM407 1752h174l182 -159h-71l181 159h176l-232 -198h-179z" />
    <glyph glyph-name="uni01D2" unicode="&#x1d2;" horiz-adv-x="1308" 
d="M654 -21q-168 0 -296 70.5t-200.5 195.5t-72.5 286q0 162 72.5 285.5t200.5 193.5t296 70t296 -70t200.5 -193.5t72.5 -285.5q0 -161 -72.5 -286t-200.5 -195.5t-296 -70.5zM654 194q91 0 159 42t106 117.5t38 177.5t-38 176.5t-106 115.5t-159 41q-90 0 -158.5 -41
t-106.5 -115.5t-38 -176.5t38 -177.5t106.5 -117.5t158.5 -42zM337 1475h171l181 -213h-72l182 213h173l-231 -262h-174z" />
    <glyph glyph-name="uni01D3" unicode="&#x1d3;" horiz-adv-x="1332" 
d="M1204 536q0 -282 -143.5 -420t-395.5 -138q-250 0 -393 138t-143 420v86v94v759h264v-793v-79v-69q0 -178 66.5 -259t205.5 -81q141 0 208 81t67 259v941h264v-939zM349 1888h171l181 -213h-72l182 213h173l-231 -262h-174z" />
    <glyph glyph-name="uni01D4" unicode="&#x1d4;" horiz-adv-x="1245" 
d="M514 -20q-113 0 -187.5 38t-117 100t-60 137t-17.5 150v77v81v499h264v-458v-69v-62q0 -71 17 -131.5t62.5 -97.5t128.5 -37q79 0 136 46.5t88.5 117.5t31.5 144l90 -60q0 -97 -30 -182.5t-87 -151.5t-137.5 -103.5t-181.5 -37.5zM860 0v1062h263v-1062h-263zM296 1475
h171l181 -213h-72l182 213h173l-231 -262h-174z" />
    <glyph glyph-name="uni01D5" unicode="&#x1d5;" horiz-adv-x="1332" 
d="M1204 536q0 -282 -143.5 -420t-395.5 -138q-250 0 -393 138t-143 420v86v94v759h264v-793v-79v-69q0 -178 66.5 -259t205.5 -81q141 0 208 81t67 259v941h264v-939zM440 1549q-58 0 -101.5 31.5t-43.5 88.5t43.5 88t101.5 31q59 0 102.5 -31t43.5 -88q0 -58 -43.5 -89
t-102.5 -31zM892 1549q-59 0 -102 31.5t-43 88.5t43 88t102 31q58 0 101.5 -31t43.5 -88q0 -58 -43.5 -89t-101.5 -31zM371 1891v111h588v-111h-588z" />
    <glyph glyph-name="uni01D6" unicode="&#x1d6;" horiz-adv-x="1245" 
d="M514 -20q-113 0 -187.5 38t-117 100t-60 137t-17.5 150v77v81v499h264v-458v-69v-62q0 -71 17 -131.5t62.5 -97.5t128.5 -37q79 0 136 46.5t88.5 117.5t31.5 144l90 -60q0 -97 -30 -182.5t-87 -151.5t-137.5 -103.5t-181.5 -37.5zM860 0v1062h263v-1062h-263zM387 1254
q-58 0 -101.5 31.5t-43.5 88.5t43.5 88t101.5 31q59 0 102.5 -31t43.5 -88q0 -58 -43.5 -89t-102.5 -31zM839 1254q-59 0 -102 31.5t-43 88.5t43 88t102 31q58 0 101.5 -31t43.5 -88q0 -58 -43.5 -89t-101.5 -31zM319 1629v111h588v-111h-588z" />
    <glyph glyph-name="uni01D7" unicode="&#x1d7;" horiz-adv-x="1332" 
d="M1204 536q0 -282 -143.5 -420t-395.5 -138q-250 0 -393 138t-143 420v86v94v759h264v-793v-79v-69q0 -178 66.5 -259t205.5 -81q141 0 208 81t67 259v941h264v-939zM440 1549q-58 0 -101.5 31.5t-43.5 88.5t43.5 88t101.5 31q59 0 102.5 -31t43.5 -88q0 -58 -43.5 -89
t-102.5 -31zM892 1549q-59 0 -102 31.5t-43 88.5t43 88t102 31q58 0 101.5 -31t43.5 -88q0 -58 -43.5 -89t-101.5 -31zM513 1837l276 198h220l-300 -198h-196z" />
    <glyph glyph-name="uni01D8" unicode="&#x1d8;" horiz-adv-x="1245" 
d="M514 -20q-113 0 -187.5 38t-117 100t-60 137t-17.5 150v77v81v499h264v-458v-69v-62q0 -71 17 -131.5t62.5 -97.5t128.5 -37q79 0 136 46.5t88.5 117.5t31.5 144l90 -60q0 -97 -30 -182.5t-87 -151.5t-137.5 -103.5t-181.5 -37.5zM860 0v1062h263v-1062h-263zM387 1254
q-58 0 -101.5 31.5t-43.5 88.5t43.5 88t101.5 31q59 0 102.5 -31t43.5 -88q0 -58 -43.5 -89t-102.5 -31zM839 1254q-59 0 -102 31.5t-43 88.5t43 88t102 31q58 0 101.5 -31t43.5 -88q0 -58 -43.5 -89t-101.5 -31zM461 1575l276 198h220l-300 -198h-196z" />
    <glyph glyph-name="uni01D9" unicode="&#x1d9;" horiz-adv-x="1332" 
d="M1204 536q0 -282 -143.5 -420t-395.5 -138q-250 0 -393 138t-143 420v86v94v759h264v-793v-79v-69q0 -178 66.5 -259t205.5 -81q141 0 208 81t67 259v941h264v-939zM440 1549q-58 0 -101.5 31.5t-43.5 88.5t43.5 88t101.5 31q59 0 102.5 -31t43.5 -88q0 -58 -43.5 -89
t-102.5 -31zM892 1549q-59 0 -102 31.5t-43 88.5t43 88t102 31q58 0 101.5 -31t43.5 -88q0 -58 -43.5 -89t-101.5 -31zM345 2033h174l182 -159h-71l181 159h176l-232 -198h-179z" />
    <glyph glyph-name="uni01DA" unicode="&#x1da;" horiz-adv-x="1245" 
d="M514 -20q-113 0 -187.5 38t-117 100t-60 137t-17.5 150v77v81v499h264v-458v-69v-62q0 -71 17 -131.5t62.5 -97.5t128.5 -37q79 0 136 46.5t88.5 117.5t31.5 144l90 -60q0 -97 -30 -182.5t-87 -151.5t-137.5 -103.5t-181.5 -37.5zM860 0v1062h263v-1062h-263zM387 1254
q-58 0 -101.5 31.5t-43.5 88.5t43.5 88t101.5 31q59 0 102.5 -31t43.5 -88q0 -58 -43.5 -89t-102.5 -31zM839 1254q-59 0 -102 31.5t-43 88.5t43 88t102 31q58 0 101.5 -31t43.5 -88q0 -58 -43.5 -89t-101.5 -31zM293 1771h174l182 -159h-71l181 159h176l-232 -198h-179z
" />
    <glyph glyph-name="uni01DB" unicode="&#x1db;" horiz-adv-x="1332" 
d="M1204 536q0 -282 -143.5 -420t-395.5 -138q-250 0 -393 138t-143 420v86v94v759h264v-793v-79v-69q0 -178 66.5 -259t205.5 -81q141 0 208 81t67 259v941h264v-939zM440 1549q-58 0 -101.5 31.5t-43.5 88.5t43.5 88t101.5 31q59 0 102.5 -31t43.5 -88q0 -58 -43.5 -89
t-102.5 -31zM892 1549q-59 0 -102 31.5t-43 88.5t43 88t102 31q58 0 101.5 -31t43.5 -88q0 -58 -43.5 -89t-101.5 -31zM821 1837h-195l-301 198h220z" />
    <glyph glyph-name="uni01DC" unicode="&#x1dc;" horiz-adv-x="1245" 
d="M514 -20q-113 0 -187.5 38t-117 100t-60 137t-17.5 150v77v81v499h264v-458v-69v-62q0 -71 17 -131.5t62.5 -97.5t128.5 -37q79 0 136 46.5t88.5 117.5t31.5 144l90 -60q0 -97 -30 -182.5t-87 -151.5t-137.5 -103.5t-181.5 -37.5zM860 0v1062h263v-1062h-263zM387 1254
q-58 0 -101.5 31.5t-43.5 88.5t43.5 88t101.5 31q59 0 102.5 -31t43.5 -88q0 -58 -43.5 -89t-102.5 -31zM839 1254q-59 0 -102 31.5t-43 88.5t43 88t102 31q58 0 101.5 -31t43.5 -88q0 -58 -43.5 -89t-101.5 -31zM769 1575h-195l-301 198h220z" />
    <glyph glyph-name="uni01DE" unicode="&#x1de;" horiz-adv-x="1301" 
d="M63 0l381 1477h416l378 -1477h-271l-316 1314h2l-319 -1314h-271zM309 359v211h686v-211h-686zM426 1549q-58 0 -101.5 31.5t-43.5 88.5t43.5 88t101.5 31q59 0 102.5 -31t43.5 -88q0 -58 -43.5 -89t-102.5 -31zM878 1549q-59 0 -102 31.5t-43 88.5t43 88t102 31
q58 0 101.5 -31t43.5 -88q0 -58 -43.5 -89t-101.5 -31zM357 1891v111h588v-111h-588z" />
    <glyph glyph-name="uni01DF" unicode="&#x1df;" horiz-adv-x="1243" 
d="M496 -22q-119 0 -209 37.5t-141 108.5t-51 171q0 109 59.5 179.5t160.5 109t224 49.5q182 18 254.5 34.5t72.5 53.5v1.5v0.5q0 70 -63 108t-178 38q-121 0 -185.5 -42.5t-64.5 -134.5h-260q0 125 66.5 211.5t182.5 131.5t263 45q137 0 251 -41t183 -124t69 -207v-42v-42
v-400q0 -38 2.5 -74.5t10.5 -65.5q10 -32 24 -54t22 -30h-260q-7 7 -19.5 27.5t-22.5 47.5q-10 30 -15 64.5t-5 76.5l52 -36q-30 -61 -91.5 -106.5t-146.5 -70.5t-185 -25zM560 185q82 0 152 28t113 86.5t43 150.5v142l64 -72q-64 -24 -154 -39.5t-182 -24.5
q-118 -11 -177.5 -41t-59.5 -98q0 -66 50 -99t151 -33zM414 1254q-58 0 -101.5 31.5t-43.5 88.5t43.5 88t101.5 31q59 0 102.5 -31t43.5 -88q0 -58 -43.5 -89t-102.5 -31zM866 1254q-59 0 -102 31.5t-43 88.5t43 88t102 31q58 0 101.5 -31t43.5 -88q0 -58 -43.5 -89
t-101.5 -31zM347 1629v111h588v-111h-588z" />
    <glyph glyph-name="uni01E4" unicode="&#x1e4;" horiz-adv-x="1383" 
d="M710 331v149h667v-149h-667zM690 -22q-174 0 -310 88t-213.5 257t-77.5 411q0 243 82 413t224.5 259.5t321.5 89.5q150 0 254.5 -50t170 -128.5t95 -165.5t29.5 -161v-6v-6h-256v6v6q0 52 -18 102.5t-55 92t-92 66.5t-128 25q-99 0 -181.5 -55t-132 -174.5t-49.5 -313.5
q0 -150 27 -253.5t76 -166.5t113 -91.5t138 -28.5q100 0 166.5 34t104 84t47.5 97v159h-315v182h551v-750h-152l-22 164q-7 -18 -32.5 -49t-72.5 -62.5t-119.5 -53t-173.5 -21.5z" />
    <glyph glyph-name="uni01E5" unicode="&#x1e5;" horiz-adv-x="1331" 
d="M658 -453q-98 0 -192.5 19t-171 62t-121.5 111.5t-45 168.5v6v5h263v-5v-6q0 -54 37 -91t99 -55.5t136 -18.5q81 0 145 26t100.5 87t36.5 162v1044h264v-1044q0 -133 -47.5 -223t-127.5 -144.5t-178 -79t-198 -24.5zM609 -22q-99 0 -191 34t-165 103.5t-115.5 174.5
t-42.5 247q0 136 43.5 237.5t116.5 169.5t165 102t189 34q124 0 228 -57t167.5 -166t63.5 -266v-8.5v-8.5l-123 1v5.5v5.5q0 91 -39 151t-101.5 90t-132.5 30q-77 0 -145.5 -31.5t-111 -101.5t-42.5 -187q0 -116 42.5 -189.5t111 -107.5t145.5 -34q71 0 133.5 31t101 93
t38.5 152l123 -12q0 -160 -63.5 -270t-167.5 -166t-228 -56zM608 470v121h717v-121h-717z" />
    <glyph glyph-name="Gcaron" unicode="&#x1e6;" horiz-adv-x="1413" 
d="M708 -22q-172 0 -312.5 88t-223.5 257t-83 411q0 243 86 413t232.5 259.5t327.5 89.5q150 0 254.5 -49.5t170 -127.5t95 -164t29.5 -160v-6v-6h-256v6v6q0 52 -18 102t-55 91t-92 65t-128 24q-99 0 -185.5 -55t-140 -174.5t-53.5 -313.5q0 -147 30 -250t81.5 -167
t118 -93.5t140.5 -29.5q100 0 166.5 34t104 85t47.5 100v115h-315v198h551v-726h-152l-22 164q-7 -18 -32.5 -49t-72.5 -62.5t-119.5 -53t-173.5 -21.5zM409 1752h174l182 -159h-71l181 159h176l-232 -198h-179z" />
    <glyph glyph-name="gcaron" unicode="&#x1e7;" horiz-adv-x="1247" 
d="M846 105q94 -9 165 -35t111 -77.5t40 -137.5q0 -96 -65 -166t-190.5 -108t-308.5 -38q-266 0 -409 76.5t-143 207.5q0 37 9 67t22 50l241 -35q-6 -8 -12 -25.5t-6 -42.5q0 -62 83.5 -89.5t222.5 -27.5q102 0 170.5 14t104 40t35.5 61q0 52 -47 67t-112 20l-403 37
q-108 11 -177.5 64t-69.5 140q0 53 28.5 98t65.5 75.5t63 37.5l150 -74q-21 -3 -49.5 -27t-28.5 -57q0 -31 28 -51.5t108 -28.5zM965 1062h236l-96 -412q-27 -116 -87 -208t-160 -145t-252 -53q-158 0 -272.5 51.5t-176.5 145t-62 215.5q0 125 63.5 220.5t175 149.5
t252.5 54q114 0 205 -37.5t145.5 -97.5t58.5 -128l-59 -11zM605 447q77 0 133 25t87 72.5t31 115.5q0 67 -31 115t-87 73.5t-132 25.5q-74 0 -131 -26t-89.5 -74.5t-32.5 -115.5t31.5 -114.5t88 -72t132.5 -24.5zM275 1475h171l181 -213h-72l182 213h173l-231 -262h-174z
" />
    <glyph glyph-name="uni01E8" unicode="&#x1e8;" horiz-adv-x="1272" 
d="M619 726l7 203l590 -929h-291l-451 726l122 -17l-227 -304l23 167v-572h-263v1475h263v-781l-50 34l560 747h282zM332 1752h174l182 -159h-71l181 159h176l-232 -198h-179z" />
    <glyph glyph-name="uni01E9" unicode="&#x1e9;" horiz-adv-x="1105" 
d="M132 0v1563h250v-916l-57 28l439 387h327l-520 -463l59 108l456 -707h-278l-350 567l64 -11l-170 -152l30 117v-521h-250zM-62 1840h174l182 -159h-71l181 159h176l-232 -198h-179z" />
    <glyph glyph-name="uni01EA" unicode="&#x1ea;" horiz-adv-x="1455" 
d="M979 -266v-128q-20 -3 -44.5 -5t-48.5 -2q-63 0 -117 16t-87 51.5t-33 93.5q0 57 33.5 112t80 100t82.5 71h134q-32 -27 -73 -71t-72 -91t-31 -82q0 -40 28 -56t70 -16q19 0 40 2.5t38 4.5zM727 -22q-134 0 -250 50t-203.5 147.5t-136 239t-48.5 324.5t48.5 324
t135.5 237.5t203.5 146t250.5 49.5q136 0 252.5 -49.5t203.5 -146t135.5 -237.5t48.5 -324t-49 -324.5t-136.5 -239t-203.5 -147.5t-251 -50zM727 195q104 0 188 56.5t133.5 176.5t49.5 311q0 192 -50 310.5t-134 173.5t-187 55q-101 0 -185.5 -55t-135 -173.5t-50.5 -310.5
t50.5 -312t135 -176t185.5 -56z" />
    <glyph glyph-name="uni01EB" unicode="&#x1eb;" horiz-adv-x="1302" 
d="M883 -288v-128q-20 -3 -44.5 -5t-48.5 -2q-63 0 -115 17t-83 53.5t-31 94.5q0 53 31.5 107t76 100t80.5 72h134q-32 -27 -73 -71t-72 -91t-31 -82q0 -40 28 -56t70 -16q19 0 40 2.5t38 4.5zM654 -21q-168 0 -296 70.5t-200.5 195.5t-72.5 286q0 162 72.5 285.5
t200.5 193.5t296 70t296 -70t200.5 -193.5t72.5 -285.5q0 -161 -72.5 -286t-200.5 -195.5t-296 -70.5zM654 194q91 0 159 42t106 117.5t38 177.5t-38 176.5t-106 115.5t-159 41q-90 0 -158.5 -41t-106.5 -115.5t-38 -176.5t38 -177.5t106.5 -117.5t158.5 -42z" />
    <glyph glyph-name="uni01EE" unicode="&#x1ee;" horiz-adv-x="1213" 
d="M599 -22q-140 0 -234 37.5t-150 104.5t-81 155t-25 190v2v2h264v-2v-2q0 -158 61 -217.5t168 -59.5q95 0 152.5 55.5t57.5 188.5q0 86 -29.5 134.5t-96.5 68.5t-180 20h-100l363 610h-616v210h893v-194l-285 -456q107 0 176.5 -47.5t104.5 -132t35 -195.5
q0 -137 -50.5 -244t-156.5 -167.5t-271 -60.5zM286 1752h174l182 -159h-71l181 159h176l-232 -198h-179z" />
    <glyph glyph-name="uni01EF" unicode="&#x1ef;" horiz-adv-x="1213" 
d="M605 -435q-140 0 -234 37.5t-150 104.5t-81 155t-25 190v2v2h264v-2v-2q0 -158 61 -217.5t168 -59.5q95 0 152.5 55.5t57.5 188.5q0 86 -29.5 134.5t-96.5 68.5t-180 20h-100l363 610h-616v210h893v-194l-285 -456q107 0 176.5 -47.5t104.5 -132t35 -195.5
q0 -137 -50.5 -244t-156.5 -167.5t-271 -60.5zM290 1475h171l181 -213h-72l182 213h173l-231 -262h-174z" />
    <glyph glyph-name="Aringacute" unicode="&#x1fa;" horiz-adv-x="1301" 
d="M63 0l381 1477h416l378 -1477h-271l-316 1314h2l-319 -1314h-271zM309 359v211h686v-211h-686zM652 1635q42 0 71.5 29t29.5 72q0 42 -29.5 71t-71.5 29t-71.5 -29t-29.5 -71q0 -43 29.5 -72t71.5 -29zM652 1519q-60 0 -109 29t-78.5 78.5t-29.5 109.5q0 59 29.5 108.5
t78.5 79t109 29.5t109 -29.5t78.5 -79t29.5 -108.5q0 -60 -29.5 -109.5t-78.5 -78.5t-109 -29zM499 2001l276 198h220l-300 -198h-196z" />
    <glyph glyph-name="aringacute" unicode="&#x1fb;" horiz-adv-x="1243" 
d="M496 -22q-119 0 -209 37.5t-141 108.5t-51 171q0 109 59.5 179.5t160.5 109t224 49.5q182 18 254.5 34.5t72.5 53.5v1.5v0.5q0 70 -63 108t-178 38q-121 0 -185.5 -42.5t-64.5 -134.5h-260q0 125 66.5 211.5t182.5 131.5t263 45q137 0 251 -41t183 -124t69 -207v-42v-42
v-400q0 -38 2.5 -74.5t10.5 -65.5q10 -32 24 -54t22 -30h-260q-7 7 -19.5 27.5t-22.5 47.5q-10 30 -15 64.5t-5 76.5l52 -36q-30 -61 -91.5 -106.5t-146.5 -70.5t-185 -25zM560 185q82 0 152 28t113 86.5t43 150.5v142l64 -72q-64 -24 -154 -39.5t-182 -24.5
q-118 -11 -177.5 -41t-59.5 -98q0 -66 50 -99t151 -33zM641 1261q42 0 71.5 29.5t29.5 71.5t-29.5 71.5t-71.5 29.5t-71.5 -29t-29.5 -72q0 -42 29.5 -71.5t71.5 -29.5zM641 1145q-60 0 -109 29.5t-78.5 79t-29.5 108.5q0 60 29.5 109t78.5 78.5t109 29.5t109 -29.5
t78.5 -78.5t29.5 -109q0 -59 -29.5 -108.5t-78.5 -79t-109 -29.5zM486 1677l238 262h211l-268 -262h-181z" />
    <glyph glyph-name="AEacute" unicode="&#x1fc;" horiz-adv-x="1948" 
d="M0 0l850 1475h970v-210h-701l87 87v-588l-76 81h579v-210h-573l70 75v-576l-76 76h690v-210h-867v1255l21 -15l-688 -1240h-286zM382 300l52 203h639v-203h-691zM999 1556l276 198h220l-300 -198h-196z" />
    <glyph glyph-name="aeacute" unicode="&#x1fd;" horiz-adv-x="2139" 
d="M572 -22q-222 0 -349.5 93t-127.5 248q0 83 37.5 140.5t104 92.5t154 51t187.5 16q135 0 209 3t102.5 15.5t28.5 39.5v12.5v11.5q0 85 -72 129.5t-186 44.5q-80 0 -144 -19.5t-100.5 -59t-36.5 -100.5h-260q0 94 43 165.5t117.5 120.5t173 73.5t208.5 24.5
q134 0 245.5 -44t175.5 -135q10 -11 18.5 -23t16.5 -25l-92 4q75 104 196 163.5t274 59.5q172 0 297.5 -71.5t193.5 -197.5t68 -291q0 -21 -1 -42t-2 -32h-984l112 91q0 -15 0.5 -29t2.5 -27q8 -92 46.5 -160t107 -104.5t166.5 -36.5q69 0 120 15t85 39t51 50.5t20 50.5h260
q-5 -62 -43.5 -125.5t-107.5 -116t-167.5 -84.5t-225.5 -32q-112 0 -208 32t-169 91.5t-119 139.5l79 12q-37 -102 -118 -162.5t-183 -86t-204 -25.5zM586 187q57 0 115.5 15t109 52t81.5 104t31 171v17v17l66 -88q-74 -17 -173 -22t-199 -5q-127 0 -192 -24.5t-65 -97.5
q0 -70 63 -104.5t163 -34.5zM1190 629h598q0 5 -0.5 12.5t-2.5 15.5q-10 59 -45.5 109.5t-96 82t-145.5 31.5q-80 0 -144.5 -30.5t-106.5 -86.5t-57 -134zM932 1213l238 262h211l-268 -262h-181z" />
    <glyph glyph-name="Oslashacute" unicode="&#x1fe;" horiz-adv-x="1455" 
d="M1275 1495l-959 -1592l-137 78l957 1592zM727 -22q-134 0 -250 50t-203.5 147.5t-136 239t-48.5 324.5t48.5 324t135.5 237.5t203.5 146t250.5 49.5q136 0 252.5 -49.5t203.5 -146t135.5 -237.5t48.5 -324t-49 -324.5t-136.5 -239t-203.5 -147.5t-251 -50zM727 195
q104 0 188 56.5t133.5 176.5t49.5 311q0 192 -50 310.5t-134 173.5t-187 55q-101 0 -185.5 -55t-135 -173.5t-50.5 -310.5t50.5 -312t135 -176t185.5 -56zM567 1556l276 198h220l-300 -198h-196z" />
    <glyph glyph-name="oslashacute" unicode="&#x1ff;" horiz-adv-x="1308" 
d="M1081 1040l-761 -1096l-107 77l761 1095zM654 -21q-168 0 -296 70.5t-200.5 195.5t-72.5 286q0 162 72.5 285.5t200.5 193.5t296 70t296 -70t200.5 -193.5t72.5 -285.5q0 -161 -72.5 -286t-200.5 -195.5t-296 -70.5zM654 194q91 0 159 42t106 117.5t38 177.5t-38 176.5
t-106 115.5t-159 41q-90 0 -158.5 -41t-106.5 -115.5t-38 -176.5t38 -177.5t106.5 -117.5t158.5 -42zM499 1213l238 262h211l-268 -262h-181z" />
    <glyph glyph-name="uni0200" unicode="&#x200;" horiz-adv-x="1301" 
d="M63 0l381 1477h416l378 -1477h-271l-316 1314h2l-319 -1314h-271zM309 359v211h686v-211h-686zM893 1555h-148l-205 200h171zM570 1555h-149l-224 200h172z" />
    <glyph glyph-name="uni0201" unicode="&#x201;" horiz-adv-x="1243" 
d="M496 -22q-119 0 -209 37.5t-141 108.5t-51 171q0 109 59.5 179.5t160.5 109t224 49.5q182 18 254.5 34.5t72.5 53.5v1.5v0.5q0 70 -63 108t-178 38q-121 0 -185.5 -42.5t-64.5 -134.5h-260q0 125 66.5 211.5t182.5 131.5t263 45q137 0 251 -41t183 -124t69 -207v-42v-42
v-400q0 -38 2.5 -74.5t10.5 -65.5q10 -32 24 -54t22 -30h-260q-7 7 -19.5 27.5t-22.5 47.5q-10 30 -15 64.5t-5 76.5l52 -36q-30 -61 -91.5 -106.5t-146.5 -70.5t-185 -25zM560 185q82 0 152 28t113 86.5t43 150.5v142l64 -72q-64 -24 -154 -39.5t-182 -24.5
q-118 -11 -177.5 -41t-59.5 -98q0 -66 50 -99t151 -33zM888 1213h-145l-180 262h172zM565 1213h-146l-198 262h171z" />
    <glyph glyph-name="uni0202" unicode="&#x202;" horiz-adv-x="1301" 
d="M63 0l381 1477h416l378 -1477h-271l-316 1314h2l-319 -1314h-271zM309 359v211h686v-211h-686zM379 1548q0 88 78 141.5t195 53.5t195.5 -53.5t78.5 -141.5h-157q0 38 -30.5 64.5t-86.5 26.5q-55 0 -86 -26.5t-31 -64.5h-156z" />
    <glyph glyph-name="uni0203" unicode="&#x203;" horiz-adv-x="1243" 
d="M496 -22q-119 0 -209 37.5t-141 108.5t-51 171q0 109 59.5 179.5t160.5 109t224 49.5q182 18 254.5 34.5t72.5 53.5v1.5v0.5q0 70 -63 108t-178 38q-121 0 -185.5 -42.5t-64.5 -134.5h-260q0 125 66.5 211.5t182.5 131.5t263 45q137 0 251 -41t183 -124t69 -207v-42v-42
v-400q0 -38 2.5 -74.5t10.5 -65.5q10 -32 24 -54t22 -30h-260q-7 7 -19.5 27.5t-22.5 47.5q-10 30 -15 64.5t-5 76.5l52 -36q-30 -61 -91.5 -106.5t-146.5 -70.5t-185 -25zM560 185q82 0 152 28t113 86.5t43 150.5v142l64 -72q-64 -24 -154 -39.5t-182 -24.5
q-118 -11 -177.5 -41t-59.5 -98q0 -66 50 -99t151 -33zM368 1256q0 115 78 173.5t195 58.5q118 0 196 -58.5t78 -173.5h-156q0 60 -31.5 94t-86.5 34q-54 0 -85.5 -34t-31.5 -94h-156z" />
    <glyph glyph-name="uni0204" unicode="&#x204;" horiz-adv-x="1124" 
d="M275 1265l119 131v-630l-62 79h552v-210h-552l62 78v-634l-119 131h720v-210h-866v1475h866v-210h-720zM816 1555h-148l-205 200h171zM493 1555h-149l-224 200h172z" />
    <glyph glyph-name="uni0205" unicode="&#x205;" horiz-adv-x="1299" 
d="M230 446v187h743l-30 -50v13.5v12.5q0 69 -31 129.5t-94 98t-160 37.5q-96 0 -166.5 -40.5t-109 -116.5t-38.5 -182q0 -109 37 -187.5t108.5 -120t174.5 -41.5q70 0 121 13t83.5 35.5t49 48.5t19.5 52h262q-6 -67 -44.5 -130.5t-107.5 -115t-167.5 -82t-224.5 -30.5
q-171 0 -299 70t-199.5 195t-71.5 286q0 165 72.5 289t201.5 193.5t296 69.5q172 0 297.5 -70t193.5 -194.5t68 -289.5q0 -21 -1 -45t-3 -35h-980zM901 1213h-145l-180 262h172zM578 1213h-146l-198 262h171z" />
    <glyph glyph-name="uni0206" unicode="&#x206;" horiz-adv-x="1124" 
d="M275 1265l119 131v-630l-62 79h552v-210h-552l62 78v-634l-119 131h720v-210h-866v1475h866v-210h-720zM302 1548q0 88 78 141.5t195 53.5t195.5 -53.5t78.5 -141.5h-157q0 38 -30.5 64.5t-86.5 26.5q-55 0 -86 -26.5t-31 -64.5h-156z" />
    <glyph glyph-name="uni0207" unicode="&#x207;" horiz-adv-x="1299" 
d="M230 446v187h743l-30 -50v13.5v12.5q0 69 -31 129.5t-94 98t-160 37.5q-96 0 -166.5 -40.5t-109 -116.5t-38.5 -182q0 -109 37 -187.5t108.5 -120t174.5 -41.5q70 0 121 13t83.5 35.5t49 48.5t19.5 52h262q-6 -67 -44.5 -130.5t-107.5 -115t-167.5 -82t-224.5 -30.5
q-171 0 -299 70t-199.5 195t-71.5 286q0 165 72.5 289t201.5 193.5t296 69.5q172 0 297.5 -70t193.5 -194.5t68 -289.5q0 -21 -1 -45t-3 -35h-980zM380 1256q0 115 78 173.5t195 58.5q118 0 196 -58.5t78 -173.5h-156q0 60 -31.5 94t-86.5 34q-54 0 -85.5 -34t-31.5 -94
h-156z" />
    <glyph glyph-name="uni0208" unicode="&#x208;" horiz-adv-x="522" 
d="M131 0v1475h260v-1475h-260zM503 1555h-148l-205 200h171zM180 1555h-149l-224 200h172z" />
    <glyph glyph-name="uni0209" unicode="&#x209;" horiz-adv-x="514" 
d="M127 0v1062h260v-1062h-260zM505 1213h-145l-180 262h172zM182 1213h-146l-198 262h171z" />
    <glyph glyph-name="uni020A" unicode="&#x20a;" horiz-adv-x="522" 
d="M131 0v1475h260v-1475h-260zM-11 1548q0 88 78 141.5t195 53.5t195.5 -53.5t78.5 -141.5h-157q0 38 -30.5 64.5t-86.5 26.5q-55 0 -86 -26.5t-31 -64.5h-156z" />
    <glyph glyph-name="uni020B" unicode="&#x20b;" horiz-adv-x="514" 
d="M127 0v1062h260v-1062h-260zM-16 1256q0 115 78 173.5t195 58.5q118 0 196 -58.5t78 -173.5h-156q0 60 -31.5 94t-86.5 34q-54 0 -85.5 -34t-31.5 -94h-156z" />
    <glyph glyph-name="uni020C" unicode="&#x20c;" horiz-adv-x="1455" 
d="M727 -22q-134 0 -250 50t-203.5 147.5t-136 239t-48.5 324.5t48.5 324t135.5 237.5t203.5 146t250.5 49.5q136 0 252.5 -49.5t203.5 -146t135.5 -237.5t48.5 -324t-49 -324.5t-136.5 -239t-203.5 -147.5t-251 -50zM727 195q104 0 188 56.5t133.5 176.5t49.5 311
q0 192 -50 310.5t-134 173.5t-187 55q-101 0 -185.5 -55t-135 -173.5t-50.5 -310.5t50.5 -312t135 -176t185.5 -56zM969 1555h-148l-205 200h171zM646 1555h-149l-224 200h172z" />
    <glyph glyph-name="uni020D" unicode="&#x20d;" horiz-adv-x="1308" 
d="M654 -21q-168 0 -296 70.5t-200.5 195.5t-72.5 286q0 162 72.5 285.5t200.5 193.5t296 70t296 -70t200.5 -193.5t72.5 -285.5q0 -161 -72.5 -286t-200.5 -195.5t-296 -70.5zM654 194q91 0 159 42t106 117.5t38 177.5t-38 176.5t-106 115.5t-159 41q-90 0 -158.5 -41
t-106.5 -115.5t-38 -176.5t38 -177.5t106.5 -117.5t158.5 -42zM902 1213h-145l-180 262h172zM579 1213h-146l-198 262h171z" />
    <glyph glyph-name="uni020E" unicode="&#x20e;" horiz-adv-x="1455" 
d="M727 -22q-134 0 -250 50t-203.5 147.5t-136 239t-48.5 324.5t48.5 324t135.5 237.5t203.5 146t250.5 49.5q136 0 252.5 -49.5t203.5 -146t135.5 -237.5t48.5 -324t-49 -324.5t-136.5 -239t-203.5 -147.5t-251 -50zM727 195q104 0 188 56.5t133.5 176.5t49.5 311
q0 192 -50 310.5t-134 173.5t-187 55q-101 0 -185.5 -55t-135 -173.5t-50.5 -310.5t50.5 -312t135 -176t185.5 -56zM454 1548q0 88 78 141.5t195 53.5t195.5 -53.5t78.5 -141.5h-157q0 38 -30.5 64.5t-86.5 26.5q-55 0 -86 -26.5t-31 -64.5h-156z" />
    <glyph glyph-name="uni020F" unicode="&#x20f;" horiz-adv-x="1308" 
d="M654 -21q-168 0 -296 70.5t-200.5 195.5t-72.5 286q0 162 72.5 285.5t200.5 193.5t296 70t296 -70t200.5 -193.5t72.5 -285.5q0 -161 -72.5 -286t-200.5 -195.5t-296 -70.5zM654 194q91 0 159 42t106 117.5t38 177.5t-38 176.5t-106 115.5t-159 41q-90 0 -158.5 -41
t-106.5 -115.5t-38 -176.5t38 -177.5t106.5 -117.5t158.5 -42zM381 1256q0 115 78 173.5t195 58.5q118 0 196 -58.5t78 -173.5h-156q0 60 -31.5 94t-86.5 34q-54 0 -85.5 -34t-31.5 -94h-156z" />
    <glyph glyph-name="uni0210" unicode="&#x210;" horiz-adv-x="1246" 
d="M129 0v1475h568q223 0 335 -102t112 -300q0 -116 -44 -197t-107 -125t-120 -50q58 -4 112 -30t88.5 -81.5t34.5 -149.5v-149.5v-149.5q0 -47 8 -86.5t20 -54.5h-265q-10 18 -17.5 55.5t-7.5 85.5v133.5v134.5q0 91 -51 138t-154 47h-325l70 89v-683h-257zM386 705l-70 99
h327q65 0 117 30.5t82.5 85.5t30.5 129q0 108 -62 162t-176 54h-326l77 93v-653zM824 1555h-148l-205 200h171zM501 1555h-149l-224 200h172z" />
    <glyph glyph-name="uni0211" unicode="&#x211;" horiz-adv-x="881" 
d="M132 0v1062h263v-353l-61 34q10 69 37 130.5t72 108t109 72.5t146 26q65 0 102.5 -9.5t46.5 -15.5l-48 -241q-10 7 -40.5 17.5t-81.5 10.5q-81 0 -135.5 -27.5t-86.5 -74t-46 -102t-14 -110.5v-528h-263zM775 1213h-145l-180 262h172zM452 1213h-146l-198 262h171z" />
    <glyph glyph-name="uni0212" unicode="&#x212;" horiz-adv-x="1246" 
d="M129 0v1475h568q223 0 335 -102t112 -300q0 -116 -44 -197t-107 -125t-120 -50q58 -4 112 -30t88.5 -81.5t34.5 -149.5v-149.5v-149.5q0 -47 8 -86.5t20 -54.5h-265q-10 18 -17.5 55.5t-7.5 85.5v133.5v134.5q0 91 -51 138t-154 47h-325l70 89v-683h-257zM386 705l-70 99
h327q65 0 117 30.5t82.5 85.5t30.5 129q0 108 -62 162t-176 54h-326l77 93v-653zM309 1548q0 88 78 141.5t195 53.5t195.5 -53.5t78.5 -141.5h-157q0 38 -30.5 64.5t-86.5 26.5q-55 0 -86 -26.5t-31 -64.5h-156z" />
    <glyph glyph-name="uni0213" unicode="&#x213;" horiz-adv-x="881" 
d="M132 0v1062h263v-353l-61 34q10 69 37 130.5t72 108t109 72.5t146 26q65 0 102.5 -9.5t46.5 -15.5l-48 -241q-10 7 -40.5 17.5t-81.5 10.5q-81 0 -135.5 -27.5t-86.5 -74t-46 -102t-14 -110.5v-528h-263zM255 1256q0 115 78 173.5t195 58.5q118 0 196 -58.5t78 -173.5
h-156q0 60 -31.5 94t-86.5 34q-54 0 -85.5 -34t-31.5 -94h-156z" />
    <glyph glyph-name="uni0214" unicode="&#x214;" horiz-adv-x="1332" 
d="M1204 536q0 -282 -143.5 -420t-395.5 -138q-250 0 -393 138t-143 420v86v94v759h264v-793v-79v-69q0 -178 66.5 -259t205.5 -81q141 0 208 81t67 259v941h264v-939zM907 1555h-148l-205 200h171zM584 1555h-149l-224 200h172z" />
    <glyph glyph-name="uni0215" unicode="&#x215;" horiz-adv-x="1245" 
d="M514 -20q-113 0 -187.5 38t-117 100t-60 137t-17.5 150v77v81v499h264v-458v-69v-62q0 -71 17 -131.5t62.5 -97.5t128.5 -37q79 0 136 46.5t88.5 117.5t31.5 144l90 -60q0 -97 -30 -182.5t-87 -151.5t-137.5 -103.5t-181.5 -37.5zM860 0v1062h263v-1062h-263zM861 1213
h-145l-180 262h172zM538 1213h-146l-198 262h171z" />
    <glyph glyph-name="uni0216" unicode="&#x216;" horiz-adv-x="1332" 
d="M1204 536q0 -282 -143.5 -420t-395.5 -138q-250 0 -393 138t-143 420v86v94v759h264v-793v-79v-69q0 -178 66.5 -259t205.5 -81q141 0 208 81t67 259v941h264v-939zM393 1548q0 88 78 141.5t195 53.5t195.5 -53.5t78.5 -141.5h-157q0 38 -30.5 64.5t-86.5 26.5
q-55 0 -86 -26.5t-31 -64.5h-156z" />
    <glyph glyph-name="uni0217" unicode="&#x217;" horiz-adv-x="1245" 
d="M514 -20q-113 0 -187.5 38t-117 100t-60 137t-17.5 150v77v81v499h264v-458v-69v-62q0 -71 17 -131.5t62.5 -97.5t128.5 -37q79 0 136 46.5t88.5 117.5t31.5 144l90 -60q0 -97 -30 -182.5t-87 -151.5t-137.5 -103.5t-181.5 -37.5zM860 0v1062h263v-1062h-263zM340 1256
q0 115 78 173.5t195 58.5q118 0 196 -58.5t78 -173.5h-156q0 60 -31.5 94t-86.5 34q-54 0 -85.5 -34t-31.5 -94h-156z" />
    <glyph glyph-name="uni0218" unicode="&#x218;" horiz-adv-x="1222" 
d="M610 -22q-157 0 -274 50t-182 150.5t-65 249.5v30.5v30.5h263v-27.5v-28.5q0 -120 65.5 -179.5t193.5 -59.5q129 0 197.5 43t68.5 138q0 69 -46.5 117.5t-127.5 85.5t-184 69q-116 36 -211 93t-152 144t-57 214t65.5 216t180 135.5t260.5 46.5q153 0 269.5 -48
t182.5 -143t66 -237v-33v-32h-264v26.5v26.5q0 114 -62 168.5t-188 54.5q-123 0 -189 -43t-66 -137q0 -70 45 -117t123.5 -81.5t178.5 -69.5q133 -44 230 -99.5t150 -138t53 -209.5q0 -130 -65.5 -220.5t-183 -138t-275.5 -47.5zM590 -259q-42 0 -68 23t-26 62q0 48 35.5 70
t77.5 22q27 0 54 -11.5t45 -36t18 -66.5q0 -73 -30 -123.5t-72.5 -82t-80.5 -48.5l-18 45q29 11 60.5 34t53 58t21.5 81q-7 -12 -27.5 -19.5t-42.5 -7.5z" />
    <glyph glyph-name="uni0219" unicode="&#x219;" horiz-adv-x="1127" 
d="M561 -22q-95 0 -180.5 21t-152 63t-105 104.5t-38.5 144.5v12v11h262v-8.5v-9.5q0 -65 59.5 -97.5t162.5 -32.5q56 0 105.5 12t80 37t30.5 64q0 63 -64.5 90t-202.5 49q-76 13 -150 35t-134.5 59t-97 92t-36.5 134q0 105 62.5 176.5t168 108.5t232.5 37q122 0 227 -40
t169.5 -115t64.5 -181v-8.5v-7.5h-260v6v7q0 46 -29 75t-75 43t-97 14q-45 0 -93 -9.5t-80 -33t-32 -65.5q0 -40 33 -65t92 -41.5t136 -29.5q73 -12 147.5 -33t136.5 -56t100.5 -91.5t38.5 -139.5q0 -88 -40 -150t-108.5 -102.5t-154.5 -59.5t-178 -19zM544 -259
q-42 0 -68 23t-26 62q0 48 35.5 70t77.5 22q27 0 54 -11.5t45 -36t18 -66.5q0 -73 -30 -123.5t-72.5 -82t-80.5 -48.5l-18 45q29 11 60.5 34t53 58t21.5 81q-7 -12 -27.5 -19.5t-42.5 -7.5z" />
    <glyph glyph-name="uni021A" unicode="&#x21a;" horiz-adv-x="1145" 
d="M1074 1265h-467l97 131v-1396h-264v1396l102 -131h-471v210h1003v-210zM552 -259q-42 0 -68 23t-26 62q0 48 35.5 70t77.5 22q27 0 54 -11.5t45 -36t18 -66.5q0 -73 -30 -123.5t-72.5 -82t-80.5 -48.5l-18 45q29 11 60.5 34t53 58t21.5 81q-7 -12 -27.5 -19.5t-42.5 -7.5
z" />
    <glyph glyph-name="uni021B" unicode="&#x21b;" horiz-adv-x="933" 
d="M620 -20q-57 0 -116 11t-108 41t-79 88t-30 153v44.5v46.5v488h-251v210h102q52 0 82 4.5t44 21.5t18.5 53.5t4.5 101.5v169h264v-350h316v-210h-316v-426v-37.5v-35.5q0 -74 18 -119t85 -45q32 0 60.5 6t42.5 12v-206q-19 -7 -55 -14t-82 -7zM509 -259q-42 0 -68 23
t-26 62q0 48 35.5 70t77.5 22q27 0 54 -11.5t45 -36t18 -66.5q0 -73 -30 -123.5t-72.5 -82t-80.5 -48.5l-18 45q29 11 60.5 34t53 58t21.5 81q-7 -12 -27.5 -19.5t-42.5 -7.5z" />
    <glyph glyph-name="uni0228" unicode="&#x228;" horiz-adv-x="1124" 
d="M275 1265l119 131v-630l-62 79h552v-210h-552l62 78v-634l-119 131h720v-210h-866v1475h866v-210h-720zM684 -82q35 0 69 -15.5t56.5 -48.5t22.5 -86q0 -64 -38 -105.5t-98 -61.5t-127 -20q-60 0 -118.5 15t-81.5 31l53 99q17 -11 61 -27.5t96 -16.5q57 0 96 23.5
t39 67.5q0 37 -20.5 53t-50.5 16q-24 0 -49.5 -9t-38.5 -26l-102 29l71 164h115l-60 -140l-13 4q10 22 42.5 38t75.5 16z" />
    <glyph glyph-name="uni0229" unicode="&#x229;" horiz-adv-x="1293" 
d="M762 -82q35 0 69 -15.5t56.5 -48.5t22.5 -86q0 -64 -38 -105.5t-98 -61.5t-127 -20q-60 0 -118.5 15t-81.5 31l53 99q17 -11 61.5 -27.5t95.5 -16.5q57 0 96 23.5t39 67.5q0 37 -20.5 53t-50.5 16q-24 0 -49.5 -9t-37.5 -26l-105 29l71 164h120l-61 -140l-20 4
q9 22 44.5 38t78.5 16zM230 446v187h743l-30 -50v13.5v12.5q0 69 -31 129.5t-94 98t-160 37.5q-96 0 -166.5 -40.5t-109 -116.5t-38.5 -182q0 -109 37 -187.5t108.5 -120t174.5 -41.5q70 0 121 13t83.5 35.5t49 48.5t19.5 52h262q-6 -67 -44.5 -130.5t-107.5 -115
t-167.5 -82t-224.5 -30.5q-171 0 -299 70t-199.5 195t-71.5 286q0 165 72.5 289t201.5 193.5t296 69.5q172 0 297.5 -70t193.5 -194.5t68 -289.5q0 -21 -1 -45t-3 -35h-980z" />
    <glyph glyph-name="uni022A" unicode="&#x22a;" horiz-adv-x="1455" 
d="M727 -22q-134 0 -250 50t-203.5 147.5t-136 239t-48.5 324.5t48.5 324t135.5 237.5t203.5 146t250.5 49.5q136 0 252.5 -49.5t203.5 -146t135.5 -237.5t48.5 -324t-49 -324.5t-136.5 -239t-203.5 -147.5t-251 -50zM727 195q104 0 188 56.5t133.5 176.5t49.5 311
q0 192 -50 310.5t-134 173.5t-187 55q-101 0 -185.5 -55t-135 -173.5t-50.5 -310.5t50.5 -312t135 -176t185.5 -56zM502 1549q-58 0 -101.5 31.5t-43.5 88.5t43.5 88t101.5 31q59 0 102.5 -31t43.5 -88q0 -58 -43.5 -89t-102.5 -31zM954 1549q-59 0 -102 31.5t-43 88.5
t43 88t102 31q58 0 101.5 -31t43.5 -88q0 -58 -43.5 -89t-101.5 -31zM433 1891v111h588v-111h-588z" />
    <glyph glyph-name="uni022B" unicode="&#x22b;" horiz-adv-x="1308" 
d="M654 -21q-168 0 -296 70.5t-200.5 195.5t-72.5 286q0 162 72.5 285.5t200.5 193.5t296 70t296 -70t200.5 -193.5t72.5 -285.5q0 -161 -72.5 -286t-200.5 -195.5t-296 -70.5zM654 194q91 0 159 42t106 117.5t38 177.5t-38 176.5t-106 115.5t-159 41q-90 0 -158.5 -41
t-106.5 -115.5t-38 -176.5t38 -177.5t106.5 -117.5t158.5 -42zM428 1254q-58 0 -101.5 31.5t-43.5 88.5t43.5 88t101.5 31q59 0 102.5 -31t43.5 -88q0 -58 -43.5 -89t-102.5 -31zM880 1254q-59 0 -102 31.5t-43 88.5t43 88t102 31q58 0 101.5 -31t43.5 -88q0 -58 -43.5 -89
t-101.5 -31zM360 1629v111h588v-111h-588z" />
    <glyph glyph-name="uni022C" unicode="&#x22c;" horiz-adv-x="1455" 
d="M727 -22q-134 0 -250 50t-203.5 147.5t-136 239t-48.5 324.5t48.5 324t135.5 237.5t203.5 146t250.5 49.5q136 0 252.5 -49.5t203.5 -146t135.5 -237.5t48.5 -324t-49 -324.5t-136.5 -239t-203.5 -147.5t-251 -50zM727 195q104 0 188 56.5t133.5 176.5t49.5 311
q0 192 -50 310.5t-134 173.5t-187 55q-101 0 -185.5 -55t-135 -173.5t-50.5 -310.5t50.5 -312t135 -176t185.5 -56zM1051 1749q-1 -44 -20.5 -91.5t-60.5 -80.5t-106 -33q-51 0 -86 20t-58 40q-22 19 -44.5 33t-51.5 14q-37 0 -52.5 -24.5t-16.5 -59.5h-139q2 46 23.5 94
t64.5 80.5t109 32.5q48 0 82.5 -19.5t56.5 -38.5q23 -19 47 -34t50 -15q35 0 49 23.5t15 58.5h138zM433 1910v111h588v-111h-588z" />
    <glyph glyph-name="uni022D" unicode="&#x22d;" horiz-adv-x="1308" 
d="M654 -21q-168 0 -296 70.5t-200.5 195.5t-72.5 286q0 162 72.5 285.5t200.5 193.5t296 70t296 -70t200.5 -193.5t72.5 -285.5q0 -161 -72.5 -286t-200.5 -195.5t-296 -70.5zM654 194q91 0 159 42t106 117.5t38 177.5t-38 176.5t-106 115.5t-159 41q-90 0 -158.5 -41
t-106.5 -115.5t-38 -176.5t38 -177.5t106.5 -117.5t158.5 -42zM972 1454q-1 -44 -20.5 -91t-60.5 -80t-106 -33q-51 0 -86 20t-58 39q-22 19 -44.5 33t-51.5 14q-37 0 -52.5 -24.5t-16.5 -58.5h-139q2 45 23.5 93t64.5 81t109 33q48 0 82.5 -20t56.5 -39q23 -19 47 -34
t50 -15q35 0 49 24t15 58h138zM360 1618v111h588v-111h-588z" />
    <glyph glyph-name="uni0230" unicode="&#x230;" horiz-adv-x="1455" 
d="M727 -22q-134 0 -250 50t-203.5 147.5t-136 239t-48.5 324.5t48.5 324t135.5 237.5t203.5 146t250.5 49.5q136 0 252.5 -49.5t203.5 -146t135.5 -237.5t48.5 -324t-49 -324.5t-136.5 -239t-203.5 -147.5t-251 -50zM727 195q104 0 188 56.5t133.5 176.5t49.5 311
q0 192 -50 310.5t-134 173.5t-187 55q-101 0 -185.5 -55t-135 -173.5t-50.5 -310.5t50.5 -312t135 -176t185.5 -56zM730 1565q-63 0 -110.5 34.5t-47.5 95.5q0 62 47.5 96t110.5 34q64 0 111 -34t47 -96t-47 -96t-111 -34zM435 1960v111h588v-111h-588z" />
    <glyph glyph-name="uni0231" unicode="&#x231;" horiz-adv-x="1308" 
d="M654 -21q-168 0 -296 70.5t-200.5 195.5t-72.5 286q0 162 72.5 285.5t200.5 193.5t296 70t296 -70t200.5 -193.5t72.5 -285.5q0 -161 -72.5 -286t-200.5 -195.5t-296 -70.5zM654 194q91 0 159 42t106 117.5t38 177.5t-38 176.5t-106 115.5t-159 41q-90 0 -158.5 -41
t-106.5 -115.5t-38 -176.5t38 -177.5t106.5 -117.5t158.5 -42zM655 1258q-63 0 -110.5 34t-47.5 95q0 62 47.5 96t110.5 34q64 0 111 -34t47 -96t-47 -95.5t-111 -33.5zM360 1649v111h588v-111h-588z" />
    <glyph glyph-name="uni0232" unicode="&#x232;" horiz-adv-x="1233" 
d="M1170 1475l-423 -965v-510h-264v510l-420 965h279l327 -826h-106l326 826h281zM322 1610v111h588v-111h-588z" />
    <glyph glyph-name="uni0233" unicode="&#x233;" horiz-adv-x="1096" 
d="M201 -456q-47 0 -84 4.5t-46 8.5v205q13 -6 44.5 -9.5t65.5 -3.5q55 0 95.5 22t69.5 60.5t46 89.5l23 67l-366 1074h275l251 -886h-32l245 886h270l-372 -1127q-39 -117 -94.5 -205t-147.5 -137t-243 -49zM257 1297v112h588v-112h-588z" />
    <glyph glyph-name="uni0237" unicode="&#x237;" horiz-adv-x="531" 
d="M-29 -453q-29 0 -55 1.5t-43 4.5v196q16 -4 42.5 -7t55.5 -3q56 0 89 16t49.5 42t22.5 56.5t6 60.5v1148h263v-1156q0 -66 -15.5 -129.5t-59 -115.5t-129 -83t-226.5 -31z" />
    <glyph glyph-name="uni0259" unicode="&#x259;" horiz-adv-x="1299" 
d="M644 -23q-172 0 -297.5 70t-193.5 195t-68 289q0 21 1 45t2 35h949v-187h-711l30 50v-13v-13q0 -69 30.5 -129.5t93.5 -98t161 -37.5q99 0 170.5 39.5t109.5 115.5t38 184q0 113 -34.5 190.5t-106.5 118t-185 40.5q-68 0 -117 -12.5t-82 -34.5t-50.5 -48.5t-21.5 -53.5
h-262q7 67 45 130.5t107 115t167.5 82t224.5 30.5q172 0 299.5 -70t199 -194.5t71.5 -286.5q0 -164 -72.5 -288.5t-201 -194t-296.5 -69.5z" />
    <glyph glyph-name="uni0272" unicode="&#x272;" horiz-adv-x="1204" 
d="M819 0v471v70.5v55.5q0 72 -18 129.5t-64 90.5t-134 33q-76 0 -135 -36.5t-92.5 -100t-33.5 -146.5l-89 55q0 133 60.5 236.5t162.5 162.5t226 59q128 0 212.5 -50t126 -142t41.5 -216v-108v-118v-446h-263zM-127 -462v189q53 0 92 18t64.5 50t38 73t12.5 86v1108h263
v-1108q0 -75 -14.5 -148.5t-60.5 -134.5t-140.5 -97t-254.5 -36z" />
    <glyph glyph-name="uni0292" unicode="&#x292;" horiz-adv-x="1213" 
d="M605 -435q-140 0 -234 37.5t-150 104.5t-81 155t-25 190v2v2h264v-2v-2q0 -158 61 -217.5t168 -59.5q95 0 152.5 55.5t57.5 188.5q0 86 -29.5 134.5t-96.5 68.5t-180 20h-100l363 610h-616v210h893v-194l-285 -456q107 0 176.5 -47.5t104.5 -132t35 -195.5
q0 -137 -50.5 -244t-156.5 -167.5t-271 -60.5z" />
    <glyph glyph-name="uni02BC" unicode="&#x2bc;" horiz-adv-x="339" 
d="M270 1475l-26 -470h-150l-25 470h201z" />
    <glyph glyph-name="circumflex" unicode="&#x2c6;" horiz-adv-x="925" 
d="M144 1213l230 262h174l231 -262h-173l-182 213h72l-181 -213h-171z" />
    <glyph glyph-name="caron" unicode="&#x2c7;" horiz-adv-x="925" 
d="M144 1475h171l181 -213h-72l182 213h173l-231 -262h-174z" />
    <glyph glyph-name="uni02C9" unicode="&#x2c9;" horiz-adv-x="825" 
d="M117 1297v112h588v-112h-588z" />
    <glyph glyph-name="breve" unicode="&#x2d8;" horiz-adv-x="689" 
d="M68 1495h156q0 -61 31 -101.5t86 -40.5q56 0 86.5 40.5t30.5 101.5h157q0 -116 -78.5 -180.5t-195.5 -64.5t-195 64.5t-78 180.5z" />
    <glyph glyph-name="dotaccent" unicode="&#x2d9;" horiz-adv-x="481" 
d="M239 1258q-63 0 -110.5 34t-47.5 95q0 62 47.5 96t110.5 34q64 0 111 -34t47 -96t-47 -95.5t-111 -33.5z" />
    <glyph glyph-name="ring" unicode="&#x2da;" horiz-adv-x="771" 
d="M386 1261q42 0 71.5 29.5t29.5 71.5t-29.5 71.5t-71.5 29.5t-71.5 -29t-29.5 -72q0 -42 29.5 -71.5t71.5 -29.5zM386 1145q-60 0 -109 29.5t-78.5 79t-29.5 108.5q0 60 29.5 109t78.5 78.5t109 29.5t109 -29.5t78.5 -78.5t29.5 -109q0 -59 -29.5 -108.5t-78.5 -79
t-109 -29.5z" />
    <glyph glyph-name="ogonek" unicode="&#x2db;" horiz-adv-x="847" 
d="M496 -309v-129q-20 -2 -44.5 -4t-49.5 -2q-62 0 -114 16.5t-83 53t-31 94.5q0 54 31.5 108t75.5 100t81 72h134q-32 -27 -73.5 -71.5t-72.5 -91t-31 -81.5q0 -40 28.5 -56t70.5 -16q19 0 40 2t38 5z" />
    <glyph glyph-name="tilde" unicode="&#x2dc;" horiz-adv-x="926" 
d="M795 1454q-1 -44 -20.5 -91t-60.5 -80t-106 -33q-51 0 -86 20t-58 39q-22 19 -44.5 33t-51.5 14q-37 0 -52.5 -24.5t-16.5 -58.5h-139q2 45 23.5 93t64.5 81t109 33q48 0 82.5 -20t56.5 -39q23 -19 47 -34t50 -15q35 0 49 24t15 58h138z" />
    <glyph glyph-name="hungarumlaut" unicode="&#x2dd;" horiz-adv-x="912" 
d="M110 1213l154 262h171l-186 -262h-139zM439 1213l166 262h172l-199 -262h-139z" />
    <glyph glyph-name="gravecomb" unicode="&#x300;" 
d="M579 1213h-182l-267 262h210z" />
    <glyph glyph-name="acutecomb" unicode="&#x301;" 
d="M61 1213l238 262h211l-268 -262h-181z" />
    <glyph glyph-name="uni0302" unicode="&#x302;" 
d="M144 1213l230 262h174l231 -262h-173l-182 213h72l-181 -213h-171z" />
    <glyph glyph-name="tildecomb" unicode="&#x303;" 
d="M795 1454q-1 -44 -20.5 -91t-60.5 -80t-106 -33q-51 0 -86 20t-58 39q-22 19 -44.5 33t-51.5 14q-37 0 -52.5 -24.5t-16.5 -58.5h-139q2 45 23.5 93t64.5 81t109 33q48 0 82.5 -20t56.5 -39q23 -19 47 -34t50 -15q35 0 49 24t15 58h138z" />
    <glyph glyph-name="uni0304" unicode="&#x304;" 
d="M117 1297v112h588v-112h-588z" />
    <glyph glyph-name="uni0306" unicode="&#x306;" 
d="M68 1495h156q0 -61 31 -101.5t86 -40.5q56 0 86.5 40.5t30.5 101.5h157q0 -116 -78.5 -180.5t-195.5 -64.5t-195 64.5t-78 180.5z" />
    <glyph glyph-name="uni0307" unicode="&#x307;" 
d="M239 1258q-63 0 -110.5 34t-47.5 95q0 62 47.5 96t110.5 34q64 0 111 -34t47 -96t-47 -95.5t-111 -33.5z" />
    <glyph glyph-name="uni0308" unicode="&#x308;" 
d="M188 1254q-58 0 -101.5 31.5t-43.5 88.5t43.5 88t101.5 31q59 0 102.5 -31t43.5 -88q0 -58 -43.5 -89t-102.5 -31zM640 1254q-59 0 -102 31.5t-43 88.5t43 88t102 31q58 0 101.5 -31t43.5 -88q0 -58 -43.5 -89t-101.5 -31z" />
    <glyph glyph-name="hookabovecomb" unicode="&#x309;" 
d="M175 1506q111 0 201 -8.5t143.5 -36t53.5 -85.5q0 -50 -36 -81.5t-97 -46.5t-136 -15l-28 73q33 2 72 7t67 18t28 35q0 35 -71.5 44.5t-196.5 9.5v86z" />
    <glyph glyph-name="uni030A" unicode="&#x30a;" 
d="M386 1261q42 0 71.5 29.5t29.5 71.5t-29.5 71.5t-71.5 29.5t-71.5 -29t-29.5 -72q0 -42 29.5 -71.5t71.5 -29.5zM386 1145q-60 0 -109 29.5t-78.5 79t-29.5 108.5q0 60 29.5 109t78.5 78.5t109 29.5t109 -29.5t78.5 -78.5t29.5 -109q0 -59 -29.5 -108.5t-78.5 -79
t-109 -29.5z" />
    <glyph glyph-name="uni030B" unicode="&#x30b;" 
d="M110 1213l154 262h171l-186 -262h-139zM439 1213l166 262h172l-199 -262h-139z" />
    <glyph glyph-name="uni030C" unicode="&#x30c;" 
d="M144 1475h171l181 -213h-72l182 213h173l-231 -262h-174z" />
    <glyph glyph-name="uni030F" unicode="&#x30f;" 
d="M712 1213h-145l-180 262h172zM389 1213h-146l-198 262h171z" />
    <glyph glyph-name="uni0311" unicode="&#x311;" 
d="M49 1256q0 115 78 173.5t195 58.5q118 0 196 -58.5t78 -173.5h-156q0 60 -31.5 94t-86.5 34q-54 0 -85.5 -34t-31.5 -94h-156z" />
    <glyph glyph-name="uni0312" unicode="&#x312;" 
d="M231 1404q48 0 78 -28.5t30 -76.5t-32 -80t-93 -32q-62 0 -94.5 41.5t-32.5 105.5q0 62 29.5 109t75 80t91.5 51l23 -49q-31 -12 -62 -34.5t-51 -50t-20 -56.5q2 5 18 12.5t40 7.5z" />
    <glyph glyph-name="uni031B" unicode="&#x31b;" 
d="M205 1064q68 0 103.5 24.5t48.5 83.5t13 163h146q0 -149 -35 -235t-104 -122.5t-172 -36.5v123z" />
    <glyph glyph-name="dotbelowcomb" unicode="&#x323;" 
d="M240 -387q-64 0 -111 34t-47 95q0 62 47.5 96t110.5 34t110 -34t47 -96t-47 -95.5t-110 -33.5z" />
    <glyph glyph-name="uni0324" unicode="&#x324;" 
d="M188 -383q-58 0 -101.5 32t-43.5 89q0 56 43.5 87.5t101.5 31.5q59 0 102.5 -31.5t43.5 -87.5q0 -58 -43.5 -89.5t-102.5 -31.5zM640 -383q-59 0 -102 32t-43 89q0 56 43 87.5t102 31.5q58 0 101.5 -31.5t43.5 -87.5q0 -58 -43.5 -89.5t-101.5 -31.5z" />
    <glyph glyph-name="uni0326" unicode="&#x326;" 
d="M188 -259q-42 0 -68 23t-26 62q0 48 35.5 70t77.5 22q27 0 54 -11.5t45 -36t18 -66.5q0 -73 -30 -123.5t-72.5 -82t-80.5 -48.5l-18 45q29 11 60.5 34t53 58t21.5 81q-7 -12 -27.5 -19.5t-42.5 -7.5z" />
    <glyph glyph-name="uni0327" unicode="&#x327;" 
d="M531 -82q35 0 69 -15.5t56.5 -48.5t22.5 -86q0 -64 -38 -105.5t-98 -61.5t-127 -20q-60 0 -118.5 15t-81.5 31l53 99q17 -11 61 -27.5t96 -16.5q57 0 96 23.5t39 67.5q0 37 -20.5 53t-50.5 16q-24 0 -49.5 -9t-38.5 -26l-104 29l71 164h120l-61 -140l-21 4q10 22 45.5 38
t78.5 16z" />
    <glyph glyph-name="uni0328" unicode="&#x328;" 
d="M496 -309v-129q-20 -2 -44.5 -4t-49.5 -2q-62 0 -114 16.5t-83 53t-31 94.5q0 54 31.5 108t75.5 100t81 72h134q-32 -27 -73.5 -71.5t-72.5 -91t-31 -81.5q0 -40 28.5 -56t70.5 -16q19 0 40 2t38 5z" />
    <glyph glyph-name="uni032E" unicode="&#x32e;" 
d="M88 -121h156q0 -61 31.5 -95t86.5 -34t86 34t31 95h156q0 -116 -78 -174t-195 -58q-118 0 -196 58t-78 174z" />
    <glyph glyph-name="uni0331" unicode="&#x331;" 
d="M126 -288v111h545v-111h-545z" />
    <glyph glyph-name="uni0335" unicode="&#x335;" 
d="M80 506v121h717v-121h-717z" />
    <glyph glyph-name="uni0336" unicode="&#x336;" 
d="M80 506v121h1020v-121h-1020z" />
    <glyph glyph-name="uni0337" unicode="&#x337;" 
d="M984 1046l-760 -1096l-107 77l760 1095z" />
    <glyph glyph-name="uni0338" unicode="&#x338;" 
d="M1261 1488l-959 -1592l-137 78l957 1592z" />
    <glyph glyph-name="uni1E08" unicode="&#x1e08;" horiz-adv-x="1383" 
d="M1294 531q0 -94 -35 -191t-106.5 -179.5t-180.5 -132.5t-256 -50q-151 0 -268 57t-197 160.5t-121 242t-41 299.5q0 163 41 301t121 241t197 160t268 57q165 0 282 -63t187 -162t94 -207q15 -63 15 -120h-265q0 29 -4 60q-11 76 -50.5 138.5t-104.5 99t-154 36.5
q-106 0 -186.5 -59t-126.5 -179t-46 -303q0 -181 46 -302t126.5 -181t186.5 -60q76 0 134 28t98 75.5t60.5 107.5t20.5 126h265zM812 -82q35 0 68.5 -15.5t56.5 -48.5t23 -86q0 -64 -38 -105.5t-98 -61.5t-127 -20q-60 0 -118.5 15t-81.5 31l52 99q18 -11 62 -27.5t95 -16.5
q58 0 96.5 23.5t38.5 67.5q0 37 -20 53t-50 16q-25 0 -50 -9t-38 -26l-102 29l71 164h115l-60 -140l-13 4q10 22 42 38t76 16zM557 1556l276 198h220l-300 -198h-196z" />
    <glyph glyph-name="uni1E09" unicode="&#x1e09;" horiz-adv-x="1265" 
d="M753 -82q35 0 69 -15.5t56.5 -48.5t22.5 -86q0 -64 -38 -105.5t-98 -61.5t-127 -20q-60 0 -118.5 15t-81.5 31l53 99q17 -11 61.5 -27.5t95.5 -16.5q57 0 96 23.5t39 67.5q0 37 -20.5 53t-50.5 16q-24 0 -49.5 -9t-37.5 -26l-105 29l71 164h120l-61 -140l-20 4
q9 22 44.5 38t78.5 16zM657 -22q-168 0 -297 69t-202 194t-73 293q0 167 73 290t202 189.5t297 66.5q126 0 223 -37t163.5 -98.5t101.5 -135t35 -146.5v-4v-4h-261q0 5 -1 11l-2 12q-8 51 -41 92.5t-88 66.5t-133 25q-83 0 -151.5 -36.5t-109 -109.5t-40.5 -182
q0 -108 40 -183.5t108.5 -115t152.5 -39.5q89 0 145.5 27.5t85.5 74t33 101.5h262q0 -74 -34 -148.5t-100 -136.5t-163.5 -99t-225.5 -37zM489 1213l238 262h211l-268 -262h-181z" />
    <glyph glyph-name="uni1E0C" unicode="&#x1e0c;" horiz-adv-x="1311" 
d="M129 0v1475h441q147 0 267 -52.5t206 -149.5t133 -232.5t47 -301.5t-47 -301.5t-133 -233.5t-206 -151t-267 -53h-441zM393 79l-119 131h262q120 0 214.5 64.5t149.5 183t55 281.5q0 164 -55 282t-149.5 181t-214.5 63h-262l119 131v-1317zM625 -389q-64 0 -111 34.5
t-47 95.5q0 62 47.5 95.5t110.5 33.5t110 -33.5t47 -95.5t-47 -96t-110 -34z" />
    <glyph glyph-name="uni1E0D" unicode="&#x1e0d;" horiz-adv-x="1298" 
d="M573 -22q-131 0 -242.5 63.5t-178.5 187.5t-67 305q0 176 68.5 298t180 185t239.5 63q125 0 231 -61.5t170 -170.5t64 -250v-8v-8l-130 -3v6.5v6.5q0 79 -39.5 138t-102 92.5t-132.5 33.5q-115 0 -196 -77.5t-81 -244.5q0 -166 81 -245t196 -79q73 0 135 35t100.5 96.5
t38.5 141.5l130 -6q0 -140 -62.5 -253.5t-167.5 -179.5t-235 -66zM908 0v1563h264v-1563h-264zM730 -399q-64 0 -111 34t-47 95q0 62 47.5 96t110.5 34t110 -34t47 -96t-47 -95.5t-110 -33.5z" />
    <glyph glyph-name="uni1E0E" unicode="&#x1e0e;" horiz-adv-x="1311" 
d="M129 0v1475h441q147 0 267 -52.5t206 -149.5t133 -232.5t47 -301.5t-47 -301.5t-133 -233.5t-206 -151t-267 -53h-441zM393 79l-119 131h262q120 0 214.5 64.5t149.5 183t55 281.5q0 164 -55 282t-149.5 181t-214.5 63h-262l119 131v-1317zM313 -288v111h625v-111h-625z
" />
    <glyph glyph-name="uni1E0F" unicode="&#x1e0f;" horiz-adv-x="1298" 
d="M573 -22q-131 0 -242.5 63.5t-178.5 187.5t-67 305q0 176 68.5 298t180 185t239.5 63q125 0 231 -61.5t170 -170.5t64 -250v-8v-8l-130 -3v6.5v6.5q0 79 -39.5 138t-102 92.5t-132.5 33.5q-115 0 -196 -77.5t-81 -244.5q0 -166 81 -245t196 -79q73 0 135 35t100.5 96.5
t38.5 141.5l130 -6q0 -140 -62.5 -253.5t-167.5 -179.5t-235 -66zM908 0v1563h264v-1563h-264zM455 -300v111h545v-111h-545z" />
    <glyph glyph-name="uni1E14" unicode="&#x1e14;" horiz-adv-x="1124" 
d="M275 1265l119 131v-630l-62 79h552v-210h-552l62 78v-634l-119 131h720v-210h-866v1475h866v-210h-720zM280 1610v111h588v-111h-588zM730 1802h-195l-301 198h220z" />
    <glyph glyph-name="uni1E15" unicode="&#x1e15;" horiz-adv-x="1299" 
d="M230 446v187h743l-30 -50v13.5v12.5q0 69 -31 129.5t-94 98t-160 37.5q-96 0 -166.5 -40.5t-109 -116.5t-38.5 -182q0 -109 37 -187.5t108.5 -120t174.5 -41.5q70 0 121 13t83.5 35.5t49 48.5t19.5 52h262q-6 -67 -44.5 -130.5t-107.5 -115t-167.5 -82t-224.5 -30.5
q-171 0 -299 70t-199.5 195t-71.5 286q0 165 72.5 289t201.5 193.5t296 69.5q172 0 297.5 -70t193.5 -194.5t68 -289.5q0 -21 -1 -45t-3 -35h-980zM360 1297v112h588v-112h-588zM798 1556h-182l-267 262h210z" />
    <glyph glyph-name="uni1E16" unicode="&#x1e16;" horiz-adv-x="1124" 
d="M275 1265l119 131v-630l-62 79h552v-210h-552l62 78v-634l-119 131h720v-210h-866v1475h866v-210h-720zM280 1610v111h588v-111h-588zM422 1802l276 198h220l-300 -198h-196z" />
    <glyph glyph-name="uni1E17" unicode="&#x1e17;" horiz-adv-x="1299" 
d="M230 446v187h743l-30 -50v13.5v12.5q0 69 -31 129.5t-94 98t-160 37.5q-96 0 -166.5 -40.5t-109 -116.5t-38.5 -182q0 -109 37 -187.5t108.5 -120t174.5 -41.5q70 0 121 13t83.5 35.5t49 48.5t19.5 52h262q-6 -67 -44.5 -130.5t-107.5 -115t-167.5 -82t-224.5 -30.5
q-171 0 -299 70t-199.5 195t-71.5 286q0 165 72.5 289t201.5 193.5t296 69.5q172 0 297.5 -70t193.5 -194.5t68 -289.5q0 -21 -1 -45t-3 -35h-980zM360 1297v112h588v-112h-588zM504 1560l238 262h211l-268 -262h-181z" />
    <glyph glyph-name="uni1E1C" unicode="&#x1e1c;" horiz-adv-x="1124" 
d="M275 1265l119 131v-630l-62 79h552v-210h-552l62 78v-634l-119 131h720v-210h-866v1475h866v-210h-720zM684 -82q35 0 69 -15.5t56.5 -48.5t22.5 -86q0 -64 -38 -105.5t-98 -61.5t-127 -20q-60 0 -118.5 15t-81.5 31l53 99q17 -11 61 -27.5t96 -16.5q57 0 96 23.5
t39 67.5q0 37 -20.5 53t-50.5 16q-24 0 -49.5 -9t-38.5 -26l-102 29l71 164h115l-60 -140l-13 4q10 22 42.5 38t75.5 16zM302 1734h156q0 -39 31 -67t86 -28q56 0 86.5 28t30.5 67h157q0 -89 -78.5 -144t-195.5 -55t-195 55t-78 144z" />
    <glyph glyph-name="uni1E1D" unicode="&#x1e1d;" horiz-adv-x="1293" 
d="M762 -82q35 0 69 -15.5t56.5 -48.5t22.5 -86q0 -64 -38 -105.5t-98 -61.5t-127 -20q-60 0 -118.5 15t-81.5 31l53 99q17 -11 61.5 -27.5t95.5 -16.5q57 0 96 23.5t39 67.5q0 37 -20.5 53t-50.5 16q-24 0 -49.5 -9t-37.5 -26l-105 29l71 164h120l-61 -140l-20 4
q9 22 44.5 38t78.5 16zM230 446v187h743l-30 -50v13.5v12.5q0 69 -31 129.5t-94 98t-160 37.5q-96 0 -166.5 -40.5t-109 -116.5t-38.5 -182q0 -109 37 -187.5t108.5 -120t174.5 -41.5q70 0 121 13t83.5 35.5t49 48.5t19.5 52h262q-6 -67 -44.5 -130.5t-107.5 -115
t-167.5 -82t-224.5 -30.5q-171 0 -299 70t-199.5 195t-71.5 286q0 165 72.5 289t201.5 193.5t296 69.5q172 0 297.5 -70t193.5 -194.5t68 -289.5q0 -21 -1 -45t-3 -35h-980zM381 1495h156q0 -61 31 -101.5t86 -40.5q56 0 86.5 40.5t30.5 101.5h157q0 -116 -78.5 -180.5
t-195.5 -64.5t-195 64.5t-78 180.5z" />
    <glyph glyph-name="uni1E20" unicode="&#x1e20;" horiz-adv-x="1413" 
d="M708 -22q-172 0 -312.5 88t-223.5 257t-83 411q0 243 86 413t232.5 259.5t327.5 89.5q150 0 254.5 -49.5t170 -127.5t95 -164t29.5 -160v-6v-6h-256v6v6q0 52 -18 102t-55 91t-92 65t-128 24q-99 0 -185.5 -55t-140 -174.5t-53.5 -313.5q0 -147 30 -250t81.5 -167
t118 -93.5t140.5 -29.5q100 0 166.5 34t104 85t47.5 100v115h-315v198h551v-726h-152l-22 164q-7 -18 -32.5 -49t-72.5 -62.5t-119.5 -53t-173.5 -21.5zM435 1610v111h588v-111h-588z" />
    <glyph glyph-name="uni1E21" unicode="&#x1e21;" horiz-adv-x="1247" 
d="M846 105q94 -9 165 -35t111 -77.5t40 -137.5q0 -96 -65 -166t-190.5 -108t-308.5 -38q-266 0 -409 76.5t-143 207.5q0 37 9 67t22 50l241 -35q-6 -8 -12 -25.5t-6 -42.5q0 -62 83.5 -89.5t222.5 -27.5q102 0 170.5 14t104 40t35.5 61q0 52 -47 67t-112 20l-403 37
q-108 11 -177.5 64t-69.5 140q0 53 28.5 98t65.5 75.5t63 37.5l150 -74q-21 -3 -49.5 -27t-28.5 -57q0 -31 28 -51.5t108 -28.5zM965 1062h236l-96 -412q-27 -116 -87 -208t-160 -145t-252 -53q-158 0 -272.5 51.5t-176.5 145t-62 215.5q0 125 63.5 220.5t175 149.5
t252.5 54q114 0 205 -37.5t145.5 -97.5t58.5 -128l-59 -11zM605 447q77 0 133 25t87 72.5t31 115.5q0 67 -31 115t-87 73.5t-132 25.5q-74 0 -131 -26t-89.5 -74.5t-32.5 -115.5t31.5 -114.5t88 -72t132.5 -24.5zM298 1297v112h588v-112h-588z" />
    <glyph glyph-name="uni1E24" unicode="&#x1e24;" horiz-adv-x="1361" 
d="M1233 1475v-1475h-264v720l119 -90h-814l119 88v-718h-264v1475h264v-727l-119 92h814l-119 -91v726h264zM681 -389q-64 0 -111 34.5t-47 95.5q0 62 47.5 95.5t110.5 33.5t110 -33.5t47 -95.5t-47 -96t-110 -34z" />
    <glyph glyph-name="uni1E25" unicode="&#x1e25;" horiz-adv-x="1269" 
d="M884 0v383v60v73v61q0 132 -51.5 202.5t-175.5 70.5q-83 0 -141.5 -32.5t-89.5 -90.5t-31 -134l-96 51q0 127 57.5 225.5t159.5 154.5t234 56q193 0 295 -114.5t102 -318.5v-123.5v-160.5v-363h-263zM132 0v1563h263v-1563h-263zM629 -387q-64 0 -111 34t-47 95
q0 62 47.5 96t110.5 34t110 -34t47 -96t-47 -95.5t-110 -33.5z" />
    <glyph glyph-name="uni1E2A" unicode="&#x1e2a;" horiz-adv-x="1361" 
d="M1233 1475v-1475h-264v720l119 -90h-814l119 88v-718h-264v1475h264v-727l-119 92h814l-119 -91v726h264zM407 -121h156q0 -61 31.5 -95t86.5 -34t86 34t31 95h156q0 -116 -78 -174t-195 -58q-118 0 -196 58t-78 174z" />
    <glyph glyph-name="uni1E2B" unicode="&#x1e2b;" horiz-adv-x="1269" 
d="M884 0v383v60v73v61q0 132 -51.5 202.5t-175.5 70.5q-83 0 -141.5 -32.5t-89.5 -90.5t-31 -134l-96 51q0 127 57.5 225.5t159.5 154.5t234 56q193 0 295 -114.5t102 -318.5v-123.5v-160.5v-363h-263zM132 0v1563h263v-1563h-263zM352 -121h156q0 -61 31.5 -95t86.5 -34
t86 34t31 95h156q0 -116 -78 -174t-195 -58q-118 0 -196 58t-78 174z" />
    <glyph glyph-name="uni1E2E" unicode="&#x1e2e;" horiz-adv-x="522" 
d="M131 0v1475h260v-1475h-260zM94 1554q-59 0 -102.5 31.5t-43.5 88.5t43.5 88.5t102.5 31.5q57 0 101 -31.5t44 -88.5t-44 -88.5t-101 -31.5zM434 1554q-59 0 -102 31.5t-43 88.5t43 88.5t102 31.5q58 0 101.5 -31.5t43.5 -88.5t-43.5 -88.5t-101.5 -31.5zM114 1856
l276 198h220l-300 -198h-196z" />
    <glyph glyph-name="uni1E2F" unicode="&#x1e2f;" horiz-adv-x="514" 
d="M127 0v1062h260v-1062h-260zM87 1254q-59 0 -102.5 31.5t-43.5 88.5t43.5 88t102.5 31q57 0 101 -31t44 -88q0 -58 -44 -89t-101 -31zM427 1254q-59 0 -102 31.5t-43 88.5t43 88t102 31q58 0 101.5 -31t43.5 -88q0 -58 -43.5 -89t-101.5 -31zM108 1651l238 262h211
l-268 -262h-181z" />
    <glyph glyph-name="uni1E36" unicode="&#x1e36;" horiz-adv-x="1031" 
d="M129 0v1475h264v-1396l-119 139h678v-218h-823zM560 -389q-64 0 -111 34.5t-47 95.5q0 62 47.5 95.5t110.5 33.5t110 -33.5t47 -95.5t-47 -96t-110 -34z" />
    <glyph glyph-name="uni1E37" unicode="&#x1e37;" horiz-adv-x="543" 
d="M406 1563v-1563h-259v1563h259zM276 -387q-64 0 -111 34t-47 95q0 62 47.5 96t110.5 34t110 -34t47 -96t-47 -95.5t-110 -33.5z" />
    <glyph glyph-name="uni1E3A" unicode="&#x1e3a;" horiz-adv-x="1031" 
d="M129 0v1475h264v-1396l-119 139h678v-218h-823zM247 -288v111h625v-111h-625z" />
    <glyph glyph-name="uni1E3B" unicode="&#x1e3b;" horiz-adv-x="543" 
d="M406 1563v-1563h-259v1563h259zM0 -288v111h545v-111h-545z" />
    <glyph glyph-name="uni1E42" unicode="&#x1e42;" horiz-adv-x="1766" 
d="M1175 1475h448v-1475h-251v1307l6 -2l-317 -1305h-352l-321 1306l6 3v-1309h-251v1475h448l299 -1331h-17zM883 -389q-64 0 -111 34.5t-47 95.5q0 62 47.5 95.5t110.5 33.5t110 -33.5t47 -95.5t-47 -96t-110 -34z" />
    <glyph glyph-name="uni1E43" unicode="&#x1e43;" horiz-adv-x="1833" 
d="M792 0v431v103.5v74.5q0 39 -5 81.5t-22 78.5t-52.5 58.5t-97.5 22.5q-60 0 -101.5 -24.5t-68 -65t-38.5 -92t-12 -105.5l-88 59q0 131 49 234t139.5 163.5t214.5 60.5q128 0 203 -53.5t107.5 -144.5t32.5 -204v-111.5v-163.5v-403h-261zM132 0v1062h263v-1062h-263z
M1448 0v430v107v74q0 42 -5 84.5t-22 77t-53 56t-98 21.5q-61 0 -102.5 -24t-66.5 -64t-36.5 -90t-11.5 -100l-88 58q0 127 48 229t138 161.5t214 59.5q125 0 201 -51t110.5 -139.5t34.5 -201.5v-112v-161v-415h-263zM934 -387q-64 0 -111 34t-47 95q0 62 47.5 96t110.5 34
t110 -34t47 -96t-47 -95.5t-110 -33.5z" />
    <glyph glyph-name="uni1E44" unicode="&#x1e44;" horiz-adv-x="1427" 
d="M385 0h-256v1475h413l539 -1368l-39 -11v1379h257v-1475h-419l-537 1365l42 10v-1375zM730 1565q-63 0 -110.5 34.5t-47.5 95.5q0 62 47.5 96t110.5 34q64 0 111 -34t47 -96t-47 -96t-111 -34z" />
    <glyph glyph-name="uni1E45" unicode="&#x1e45;" horiz-adv-x="1268" 
d="M883 0v471v70.5v55.5q0 72 -20.5 129.5t-70 90.5t-136.5 33q-76 0 -135 -36.5t-92.5 -100t-33.5 -146.5l-89 55q0 133 60.5 236.5t162.5 162.5t226 59q128 0 215.5 -50t132 -142t44.5 -216v-108v-118v-446h-264zM132 0v1062h263v-1062h-263zM655 1258q-63 0 -110.5 34
t-47.5 95q0 62 47.5 96t110.5 34q64 0 111 -34t47 -96t-47 -95.5t-111 -33.5z" />
    <glyph glyph-name="uni1E46" unicode="&#x1e46;" horiz-adv-x="1427" 
d="M385 0h-256v1475h413l539 -1368l-39 -11v1379h257v-1475h-419l-537 1365l42 10v-1375zM729 -389q-64 0 -111 34.5t-47 95.5q0 62 47.5 95.5t110.5 33.5t110 -33.5t47 -95.5t-47 -96t-110 -34z" />
    <glyph glyph-name="uni1E47" unicode="&#x1e47;" horiz-adv-x="1268" 
d="M883 0v471v70.5v55.5q0 72 -20.5 129.5t-70 90.5t-136.5 33q-76 0 -135 -36.5t-92.5 -100t-33.5 -146.5l-89 55q0 133 60.5 236.5t162.5 162.5t226 59q128 0 215.5 -50t132 -142t44.5 -216v-108v-118v-446h-264zM132 0v1062h263v-1062h-263zM633 -387q-64 0 -111 34
t-47 95q0 62 47.5 96t110.5 34t110 -34t47 -96t-47 -95.5t-110 -33.5z" />
    <glyph glyph-name="uni1E48" unicode="&#x1e48;" horiz-adv-x="1427" 
d="M385 0h-256v1475h413l539 -1368l-39 -11v1379h257v-1475h-419l-537 1365l42 10v-1375zM416 -288v111h625v-111h-625z" />
    <glyph glyph-name="uni1E49" unicode="&#x1e49;" horiz-adv-x="1268" 
d="M883 0v471v70.5v55.5q0 72 -20.5 129.5t-70 90.5t-136.5 33q-76 0 -135 -36.5t-92.5 -100t-33.5 -146.5l-89 55q0 133 60.5 236.5t162.5 162.5t226 59q128 0 215.5 -50t132 -142t44.5 -216v-108v-118v-446h-264zM132 0v1062h263v-1062h-263zM357 -288v111h545v-111h-545z
" />
    <glyph glyph-name="uni1E4C" unicode="&#x1e4c;" horiz-adv-x="1455" 
d="M727 -22q-134 0 -250 50t-203.5 147.5t-136 239t-48.5 324.5t48.5 324t135.5 237.5t203.5 146t250.5 49.5q136 0 252.5 -49.5t203.5 -146t135.5 -237.5t48.5 -324t-49 -324.5t-136.5 -239t-203.5 -147.5t-251 -50zM727 195q104 0 188 56.5t133.5 176.5t49.5 311
q0 192 -50 310.5t-134 173.5t-187 55q-101 0 -185.5 -55t-135 -173.5t-50.5 -310.5t50.5 -312t135 -176t185.5 -56zM1018.29 1693.45q-0.936523 -41.1934 -19.1934 -85.6631q-18.2559 -44.4707 -56.6406 -75.3662q-38.3848 -30.8945 -99.2393 -30.8945
q-47.7471 0 -80.5146 18.7236q-32.7676 18.7246 -54.3008 37.4492q-20.5967 17.7881 -41.6621 30.8945q-21.0645 13.1074 -48.2148 13.1074q-34.6396 0 -49.1514 -22.9375t-15.4473 -55.7051h-130.135q1.87207 43.0664 22.001 88.0049t60.3857 75.3652
q40.2578 30.4277 102.048 30.4277q44.9385 0 77.2383 -18.2568q32.2998 -18.2559 52.8965 -36.0439q21.5332 -17.7881 44.002 -31.832q22.4697 -14.043 46.8115 -14.043q32.7676 0 45.874 22.001q13.1074 22.001 14.0439 54.7686h129.198zM581.818 1766.8l243.504 174.688
h194.099l-264.68 -174.688h-172.923z" />
    <glyph glyph-name="uni1E4D" unicode="&#x1e4d;" horiz-adv-x="1308" 
d="M654 -21q-168 0 -296 70.5t-200.5 195.5t-72.5 286q0 162 72.5 285.5t200.5 193.5t296 70t296 -70t200.5 -193.5t72.5 -285.5q0 -161 -72.5 -286t-200.5 -195.5t-296 -70.5zM654 194q91 0 159 42t106 117.5t38 177.5t-38 176.5t-106 115.5t-159 41q-90 0 -158.5 -41
t-106.5 -115.5t-38 -176.5t38 -177.5t106.5 -117.5t158.5 -42zM972 1454q-1 -44 -20.5 -91t-60.5 -80t-106 -33q-51 0 -86 20t-58 39q-22 19 -44.5 33t-51.5 14q-37 0 -52.5 -24.5t-16.5 -58.5h-139q2 45 23.5 93t64.5 81t109 33q48 0 82.5 -20t56.5 -39q23 -19 47 -34
t50 -15q35 0 49 24t15 58h138zM502 1564l276 198h220l-300 -198h-196z" />
    <glyph glyph-name="uni1E4E" unicode="&#x1e4e;" horiz-adv-x="1455" 
d="M727 -22q-134 0 -250 50t-203.5 147.5t-136 239t-48.5 324.5t48.5 324t135.5 237.5t203.5 146t250.5 49.5q136 0 252.5 -49.5t203.5 -146t135.5 -237.5t48.5 -324t-49 -324.5t-136.5 -239t-203.5 -147.5t-251 -50zM727 195q104 0 188 56.5t133.5 176.5t49.5 311
q0 192 -50 310.5t-134 173.5t-187 55q-101 0 -185.5 -55t-135 -173.5t-50.5 -310.5t50.5 -312t135 -176t185.5 -56zM1051 1749q-1 -44 -20.5 -91.5t-60.5 -80.5t-106 -33q-51 0 -86 20t-58 40q-22 19 -44.5 33t-51.5 14q-37 0 -52.5 -24.5t-16.5 -59.5h-139q2 46 23.5 94
t64.5 80.5t109 32.5q48 0 82.5 -19.5t56.5 -38.5q23 -19 47 -34t50 -15q35 0 49 23.5t15 58.5h138zM502 1849q-58 0 -101.5 31.5t-43.5 88.5t43.5 88t101.5 31q59 0 102.5 -31t43.5 -88q0 -58 -43.5 -89t-102.5 -31zM954 1849q-59 0 -102 31.5t-43 88.5t43 88t102 31
q58 0 101.5 -31t43.5 -88q0 -58 -43.5 -89t-101.5 -31z" />
    <glyph glyph-name="uni1E4F" unicode="&#x1e4f;" horiz-adv-x="1308" 
d="M654 -21q-168 0 -296 70.5t-200.5 195.5t-72.5 286q0 162 72.5 285.5t200.5 193.5t296 70t296 -70t200.5 -193.5t72.5 -285.5q0 -161 -72.5 -286t-200.5 -195.5t-296 -70.5zM654 194q91 0 159 42t106 117.5t38 177.5t-38 176.5t-106 115.5t-159 41q-90 0 -158.5 -41
t-106.5 -115.5t-38 -176.5t38 -177.5t106.5 -117.5t158.5 -42zM972 1454q-1 -44 -20.5 -91t-60.5 -80t-106 -33q-51 0 -86 20t-58 39q-22 19 -44.5 33t-51.5 14q-37 0 -52.5 -24.5t-16.5 -58.5h-139q2 45 23.5 93t64.5 81t109 33q48 0 82.5 -20t56.5 -39q23 -19 47 -34
t50 -15q35 0 49 24t15 58h138zM429 1557q-58 0 -101.5 31.5t-43.5 88.5t43.5 88t101.5 31q59 0 102.5 -31t43.5 -88q0 -58 -43.5 -89t-102.5 -31zM881 1557q-59 0 -102 31.5t-43 88.5t43 88t102 31q58 0 101.5 -31t43.5 -88q0 -58 -43.5 -89t-101.5 -31z" />
    <glyph glyph-name="uni1E50" unicode="&#x1e50;" horiz-adv-x="1455" 
d="M727 -22q-134 0 -250 50t-203.5 147.5t-136 239t-48.5 324.5t48.5 324t135.5 237.5t203.5 146t250.5 49.5q136 0 252.5 -49.5t203.5 -146t135.5 -237.5t48.5 -324t-49 -324.5t-136.5 -239t-203.5 -147.5t-251 -50zM727 195q104 0 188 56.5t133.5 176.5t49.5 311
q0 192 -50 310.5t-134 173.5t-187 55q-101 0 -185.5 -55t-135 -173.5t-50.5 -310.5t50.5 -312t135 -176t185.5 -56zM433 1610v111h588v-111h-588zM883 1802h-195l-301 198h220z" />
    <glyph glyph-name="uni1E51" unicode="&#x1e51;" horiz-adv-x="1308" 
d="M654 -21q-168 0 -296 70.5t-200.5 195.5t-72.5 286q0 162 72.5 285.5t200.5 193.5t296 70t296 -70t200.5 -193.5t72.5 -285.5q0 -161 -72.5 -286t-200.5 -195.5t-296 -70.5zM654 194q91 0 159 42t106 117.5t38 177.5t-38 176.5t-106 115.5t-159 41q-90 0 -158.5 -41
t-106.5 -115.5t-38 -176.5t38 -177.5t106.5 -117.5t158.5 -42zM361 1297v112h588v-112h-588zM799 1556h-182l-267 262h210z" />
    <glyph glyph-name="uni1E52" unicode="&#x1e52;" horiz-adv-x="1455" 
d="M727 -22q-134 0 -250 50t-203.5 147.5t-136 239t-48.5 324.5t48.5 324t135.5 237.5t203.5 146t250.5 49.5q136 0 252.5 -49.5t203.5 -146t135.5 -237.5t48.5 -324t-49 -324.5t-136.5 -239t-203.5 -147.5t-251 -50zM727 195q104 0 188 56.5t133.5 176.5t49.5 311
q0 192 -50 310.5t-134 173.5t-187 55q-101 0 -185.5 -55t-135 -173.5t-50.5 -310.5t50.5 -312t135 -176t185.5 -56zM433 1610v111h588v-111h-588zM575 1802l276 198h220l-300 -198h-196z" />
    <glyph glyph-name="uni1E53" unicode="&#x1e53;" horiz-adv-x="1308" 
d="M654 -21q-168 0 -296 70.5t-200.5 195.5t-72.5 286q0 162 72.5 285.5t200.5 193.5t296 70t296 -70t200.5 -193.5t72.5 -285.5q0 -161 -72.5 -286t-200.5 -195.5t-296 -70.5zM654 194q91 0 159 42t106 117.5t38 177.5t-38 176.5t-106 115.5t-159 41q-90 0 -158.5 -41
t-106.5 -115.5t-38 -176.5t38 -177.5t106.5 -117.5t158.5 -42zM361 1297v112h588v-112h-588zM505 1560l238 262h211l-268 -262h-181z" />
    <glyph glyph-name="uni1E5A" unicode="&#x1e5a;" horiz-adv-x="1246" 
d="M129 0v1475h568q223 0 335 -102t112 -300q0 -116 -44 -197t-107 -125t-120 -50q58 -4 112 -30t88.5 -81.5t34.5 -149.5v-149.5v-149.5q0 -47 8 -86.5t20 -54.5h-265q-10 18 -17.5 55.5t-7.5 85.5v133.5v134.5q0 91 -51 138t-154 47h-325l70 89v-683h-257zM386 705l-70 99
h327q65 0 117 30.5t82.5 85.5t30.5 129q0 108 -62 162t-176 54h-326l77 93v-653zM638 -389q-64 0 -111 34.5t-47 95.5q0 62 47.5 95.5t110.5 33.5t110 -33.5t47 -95.5t-47 -96t-110 -34z" />
    <glyph glyph-name="uni1E5B" unicode="&#x1e5b;" horiz-adv-x="881" 
d="M132 0v1062h263v-353l-61 34q10 69 37 130.5t72 108t109 72.5t146 26q65 0 102.5 -9.5t46.5 -15.5l-48 -241q-10 7 -40.5 17.5t-81.5 10.5q-81 0 -135.5 -27.5t-86.5 -74t-46 -102t-14 -110.5v-528h-263zM266 -387q-64 0 -111 34t-47 95q0 62 47.5 96t110.5 34t110 -34
t47 -96t-47 -95.5t-110 -33.5z" />
    <glyph glyph-name="uni1E5E" unicode="&#x1e5e;" horiz-adv-x="1246" 
d="M129 0v1475h568q223 0 335 -102t112 -300q0 -116 -44 -197t-107 -125t-120 -50q58 -4 112 -30t88.5 -81.5t34.5 -149.5v-149.5v-149.5q0 -47 8 -86.5t20 -54.5h-265q-10 18 -17.5 55.5t-7.5 85.5v133.5v134.5q0 91 -51 138t-154 47h-325l70 89v-683h-257zM386 705l-70 99
h327q65 0 117 30.5t82.5 85.5t30.5 129q0 108 -62 162t-176 54h-326l77 93v-653zM325 -288v111h625v-111h-625z" />
    <glyph glyph-name="uni1E5F" unicode="&#x1e5f;" horiz-adv-x="881" 
d="M132 0v1062h263v-353l-61 34q10 69 37 130.5t72 108t109 72.5t146 26q65 0 102.5 -9.5t46.5 -15.5l-48 -241q-10 7 -40.5 17.5t-81.5 10.5q-81 0 -135.5 -27.5t-86.5 -74t-46 -102t-14 -110.5v-528h-263zM-9 -288v111h545v-111h-545z" />
    <glyph glyph-name="uni1E60" unicode="&#x1e60;" horiz-adv-x="1222" 
d="M610 -22q-157 0 -274 50t-182 150.5t-65 249.5v30.5v30.5h263v-27.5v-28.5q0 -120 65.5 -179.5t193.5 -59.5q129 0 197.5 43t68.5 138q0 69 -46.5 117.5t-127.5 85.5t-184 69q-116 36 -211 93t-152 144t-57 214t65.5 216t180 135.5t260.5 46.5q153 0 269.5 -48
t182.5 -143t66 -237v-33v-32h-264v26.5v26.5q0 114 -62 168.5t-188 54.5q-123 0 -189 -43t-66 -137q0 -70 45 -117t123.5 -81.5t178.5 -69.5q133 -44 230 -99.5t150 -138t53 -209.5q0 -130 -65.5 -220.5t-183 -138t-275.5 -47.5zM613 1565q-63 0 -110.5 34.5t-47.5 95.5
q0 62 47.5 96t110.5 34q64 0 111 -34t47 -96t-47 -96t-111 -34z" />
    <glyph glyph-name="uni1E61" unicode="&#x1e61;" horiz-adv-x="1127" 
d="M561 -22q-95 0 -180.5 21t-152 63t-105 104.5t-38.5 144.5v12v11h262v-8.5v-9.5q0 -65 59.5 -97.5t162.5 -32.5q56 0 105.5 12t80 37t30.5 64q0 63 -64.5 90t-202.5 49q-76 13 -150 35t-134.5 59t-97 92t-36.5 134q0 105 62.5 176.5t168 108.5t232.5 37q122 0 227 -40
t169.5 -115t64.5 -181v-8.5v-7.5h-260v6v7q0 46 -29 75t-75 43t-97 14q-45 0 -93 -9.5t-80 -33t-32 -65.5q0 -40 33 -65t92 -41.5t136 -29.5q73 -12 147.5 -33t136.5 -56t100.5 -91.5t38.5 -139.5q0 -88 -40 -150t-108.5 -102.5t-154.5 -59.5t-178 -19zM564 1258
q-63 0 -110.5 34t-47.5 95q0 62 47.5 96t110.5 34q64 0 111 -34t47 -96t-47 -95.5t-111 -33.5z" />
    <glyph glyph-name="uni1E62" unicode="&#x1e62;" horiz-adv-x="1222" 
d="M610 -22q-157 0 -274 50t-182 150.5t-65 249.5v30.5v30.5h263v-27.5v-28.5q0 -120 65.5 -179.5t193.5 -59.5q129 0 197.5 43t68.5 138q0 69 -46.5 117.5t-127.5 85.5t-184 69q-116 36 -211 93t-152 144t-57 214t65.5 216t180 135.5t260.5 46.5q153 0 269.5 -48
t182.5 -143t66 -237v-33v-32h-264v26.5v26.5q0 114 -62 168.5t-188 54.5q-123 0 -189 -43t-66 -137q0 -70 45 -117t123.5 -81.5t178.5 -69.5q133 -44 230 -99.5t150 -138t53 -209.5q0 -130 -65.5 -220.5t-183 -138t-275.5 -47.5zM612 -389q-64 0 -111 34.5t-47 95.5
q0 62 47.5 95.5t110.5 33.5t110 -33.5t47 -95.5t-47 -96t-110 -34z" />
    <glyph glyph-name="uni1E63" unicode="&#x1e63;" horiz-adv-x="1127" 
d="M561 -22q-95 0 -180.5 21t-152 63t-105 104.5t-38.5 144.5v12v11h262v-8.5v-9.5q0 -65 59.5 -97.5t162.5 -32.5q56 0 105.5 12t80 37t30.5 64q0 63 -64.5 90t-202.5 49q-76 13 -150 35t-134.5 59t-97 92t-36.5 134q0 105 62.5 176.5t168 108.5t232.5 37q122 0 227 -40
t169.5 -115t64.5 -181v-8.5v-7.5h-260v6v7q0 46 -29 75t-75 43t-97 14q-45 0 -93 -9.5t-80 -33t-32 -65.5q0 -40 33 -65t92 -41.5t136 -29.5q73 -12 147.5 -33t136.5 -56t100.5 -91.5t38.5 -139.5q0 -88 -40 -150t-108.5 -102.5t-154.5 -59.5t-178 -19zM567 -387
q-64 0 -111 34t-47 95q0 62 47.5 96t110.5 34t110 -34t47 -96t-47 -95.5t-110 -33.5z" />
    <glyph glyph-name="uni1E64" unicode="&#x1e64;" horiz-adv-x="1222" 
d="M610 -22q-157 0 -274 50t-182 150.5t-65 249.5v30.5v30.5h263v-27.5v-28.5q0 -120 65.5 -179.5t193.5 -59.5q129 0 197.5 43t68.5 138q0 69 -46.5 117.5t-127.5 85.5t-184 69q-116 36 -211 93t-152 144t-57 214t65.5 216t180 135.5t260.5 46.5q153 0 269.5 -48
t182.5 -143t66 -237v-33v-32h-264v26.5v26.5q0 114 -62 168.5t-188 54.5q-123 0 -189 -43t-66 -137q0 -70 45 -117t123.5 -81.5t178.5 -69.5q133 -44 230 -99.5t150 -138t53 -209.5q0 -130 -65.5 -220.5t-183 -138t-275.5 -47.5zM482.309 1625.34l254.774 182.772h203.081
l-276.929 -182.772h-180.927zM618.32 1839.17q-60.7119 0 -106.487 33.2471q-45.7744 33.2471 -45.7744 92.0312q0 59.749 45.7744 92.5137q45.7754 32.7656 106.487 32.7656q61.6758 0 106.969 -32.7656q45.2939 -32.7646 45.2939 -92.5137q0 -59.748 -45.2939 -92.5137
q-45.293 -32.7646 -106.969 -32.7646z" />
    <glyph glyph-name="uni1E65" unicode="&#x1e65;" horiz-adv-x="1127" 
d="M561 -22q-95 0 -180.5 21t-152 63t-105 104.5t-38.5 144.5v12v11h262v-8.5v-9.5q0 -65 59.5 -97.5t162.5 -32.5q56 0 105.5 12t80 37t30.5 64q0 63 -64.5 90t-202.5 49q-76 13 -150 35t-134.5 59t-97 92t-36.5 134q0 105 62.5 176.5t168 108.5t232.5 37q122 0 227 -40
t169.5 -115t64.5 -181v-8.5v-7.5h-260v6v7q0 46 -29 75t-75 43t-97 14q-45 0 -93 -9.5t-80 -33t-32 -65.5q0 -40 33 -65t92 -41.5t136 -29.5q73 -12 147.5 -33t136.5 -56t100.5 -91.5t38.5 -139.5q0 -88 -40 -150t-108.5 -102.5t-154.5 -59.5t-178 -19zM414 1213l238 262
h211l-268 -262h-181zM589 1604q-63 0 -110.5 34t-47.5 95q0 62 47.5 96t110.5 34q64 0 111 -34t47 -96t-47 -95.5t-111 -33.5z" />
    <glyph glyph-name="uni1E66" unicode="&#x1e66;" horiz-adv-x="1222" 
d="M610 -22q-157 0 -274 50t-182 150.5t-65 249.5v30.5v30.5h263v-27.5v-28.5q0 -120 65.5 -179.5t193.5 -59.5q129 0 197.5 43t68.5 138q0 69 -46.5 117.5t-127.5 85.5t-184 69q-116 36 -211 93t-152 144t-57 214t65.5 216t180 135.5t260.5 46.5q153 0 269.5 -48
t182.5 -143t66 -237v-33v-32h-264v26.5v26.5q0 114 -62 168.5t-188 54.5q-123 0 -189 -43t-66 -137q0 -70 45 -117t123.5 -81.5t178.5 -69.5q133 -44 230 -99.5t150 -138t53 -209.5q0 -130 -65.5 -220.5t-183 -138t-275.5 -47.5zM290 1752h174l182 -159h-71l181 159h176
l-232 -198h-179zM613 1842q-63 0 -110.5 34.5t-47.5 95.5q0 62 47.5 96t110.5 34q64 0 111 -34t47 -96t-47 -96t-111 -34z" />
    <glyph glyph-name="uni1E67" unicode="&#x1e67;" horiz-adv-x="1127" 
d="M561 -22q-95 0 -180.5 21t-152 63t-105 104.5t-38.5 144.5v12v11h262v-8.5v-9.5q0 -65 59.5 -97.5t162.5 -32.5q56 0 105.5 12t80 37t30.5 64q0 63 -64.5 90t-202.5 49q-76 13 -150 35t-134.5 59t-97 92t-36.5 134q0 105 62.5 176.5t168 108.5t232.5 37q122 0 227 -40
t169.5 -115t64.5 -181v-8.5v-7.5h-260v6v7q0 46 -29 75t-75 43t-97 14q-45 0 -93 -9.5t-80 -33t-32 -65.5q0 -40 33 -65t92 -41.5t136 -29.5q73 -12 147.5 -33t136.5 -56t100.5 -91.5t38.5 -139.5q0 -88 -40 -150t-108.5 -102.5t-154.5 -59.5t-178 -19zM247 1475h171
l181 -213h-72l182 213h173l-231 -262h-174zM566 1565q-63 0 -110.5 34.5t-47.5 95.5q0 62 47.5 96t110.5 34q64 0 111 -34t47 -96t-47 -96t-111 -34z" />
    <glyph glyph-name="uni1E68" unicode="&#x1e68;" horiz-adv-x="1222" 
d="M610 -22q-157 0 -274 50t-182 150.5t-65 249.5v30.5v30.5h263v-27.5v-28.5q0 -120 65.5 -179.5t193.5 -59.5q129 0 197.5 43t68.5 138q0 69 -46.5 117.5t-127.5 85.5t-184 69q-116 36 -211 93t-152 144t-57 214t65.5 216t180 135.5t260.5 46.5q153 0 269.5 -48
t182.5 -143t66 -237v-33v-32h-264v26.5v26.5q0 114 -62 168.5t-188 54.5q-123 0 -189 -43t-66 -137q0 -70 45 -117t123.5 -81.5t178.5 -69.5q133 -44 230 -99.5t150 -138t53 -209.5q0 -130 -65.5 -220.5t-183 -138t-275.5 -47.5zM612 -389q-64 0 -111 34.5t-47 95.5
q0 62 47.5 95.5t110.5 33.5t110 -33.5t47 -95.5t-47 -96t-110 -34zM613 1565q-63 0 -110.5 34.5t-47.5 95.5q0 62 47.5 96t110.5 34q64 0 111 -34t47 -96t-47 -96t-111 -34z" />
    <glyph glyph-name="uni1E69" unicode="&#x1e69;" horiz-adv-x="1127" 
d="M561 -22q-95 0 -180.5 21t-152 63t-105 104.5t-38.5 144.5v12v11h262v-8.5v-9.5q0 -65 59.5 -97.5t162.5 -32.5q56 0 105.5 12t80 37t30.5 64q0 63 -64.5 90t-202.5 49q-76 13 -150 35t-134.5 59t-97 92t-36.5 134q0 105 62.5 176.5t168 108.5t232.5 37q122 0 227 -40
t169.5 -115t64.5 -181v-8.5v-7.5h-260v6v7q0 46 -29 75t-75 43t-97 14q-45 0 -93 -9.5t-80 -33t-32 -65.5q0 -40 33 -65t92 -41.5t136 -29.5q73 -12 147.5 -33t136.5 -56t100.5 -91.5t38.5 -139.5q0 -88 -40 -150t-108.5 -102.5t-154.5 -59.5t-178 -19zM567 -387
q-64 0 -111 34t-47 95q0 62 47.5 96t110.5 34t110 -34t47 -96t-47 -95.5t-110 -33.5zM564 1258q-63 0 -110.5 34t-47.5 95q0 62 47.5 96t110.5 34q64 0 111 -34t47 -96t-47 -95.5t-111 -33.5z" />
    <glyph glyph-name="uni1E6C" unicode="&#x1e6c;" horiz-adv-x="1145" 
d="M1074 1265h-467l97 131v-1396h-264v1396l102 -131h-471v210h1003v-210zM574 -389q-64 0 -111 34.5t-47 95.5q0 62 47.5 95.5t110.5 33.5t110 -33.5t47 -95.5t-47 -96t-110 -34z" />
    <glyph glyph-name="uni1E6D" unicode="&#x1e6d;" horiz-adv-x="933" 
d="M620 -20q-57 0 -116 11t-108 41t-79 88t-30 153v44.5v46.5v488h-251v210h102q52 0 82 4.5t44 21.5t18.5 53.5t4.5 101.5v169h264v-350h316v-210h-316v-426v-37.5v-35.5q0 -74 18 -119t85 -45q32 0 60.5 6t42.5 12v-206q-19 -7 -55 -14t-82 -7zM532 -387q-64 0 -111 34
t-47 95q0 62 47.5 96t110.5 34t110 -34t47 -96t-47 -95.5t-110 -33.5z" />
    <glyph glyph-name="uni1E6E" unicode="&#x1e6e;" horiz-adv-x="1145" 
d="M1074 1265h-467l97 131v-1396h-264v1396l102 -131h-471v210h1003v-210zM262 -288v111h625v-111h-625z" />
    <glyph glyph-name="uni1E6F" unicode="&#x1e6f;" horiz-adv-x="933" 
d="M620 -20q-57 0 -116 11t-108 41t-79 88t-30 153v44.5v46.5v488h-251v210h102q52 0 82 4.5t44 21.5t18.5 53.5t4.5 101.5v169h264v-350h316v-210h-316v-426v-37.5v-35.5q0 -74 18 -119t85 -45q32 0 60.5 6t42.5 12v-206q-19 -7 -55 -14t-82 -7zM257 -288v111h545v-111
h-545z" />
    <glyph glyph-name="uni1E78" unicode="&#x1e78;" horiz-adv-x="1332" 
d="M1204 536q0 -282 -143.5 -420t-395.5 -138q-250 0 -393 138t-143 420v86v94v759h264v-793v-79v-69q0 -178 66.5 -259t205.5 -81q141 0 208 81t67 259v941h264v-939zM990 1749q-1 -44 -20.5 -91.5t-60.5 -80.5t-106 -33q-51 0 -86 20t-58 40q-22 19 -44.5 33t-51.5 14
q-37 0 -52.5 -24.5t-16.5 -59.5h-139q2 46 23.5 94t64.5 80.5t109 32.5q48 0 82.5 -19.5t56.5 -38.5q23 -19 47 -34t50 -15q35 0 49 23.5t15 58.5h138zM513 1856l276 198h220l-300 -198h-196z" />
    <glyph glyph-name="uni1E79" unicode="&#x1e79;" horiz-adv-x="1245" 
d="M514 -20q-113 0 -187.5 38t-117 100t-60 137t-17.5 150v77v81v499h264v-458v-69v-62q0 -71 17 -131.5t62.5 -97.5t128.5 -37q79 0 136 46.5t88.5 117.5t31.5 144l90 -60q0 -97 -30 -182.5t-87 -151.5t-137.5 -103.5t-181.5 -37.5zM860 0v1062h263v-1062h-263zM930 1454
q-1 -44 -20.5 -91t-60.5 -80t-106 -33q-51 0 -86 20t-58 39q-22 19 -44.5 33t-51.5 14q-37 0 -52.5 -24.5t-16.5 -58.5h-139q2 45 23.5 93t64.5 81t109 33q48 0 82.5 -20t56.5 -39q23 -19 47 -34t50 -15q35 0 49 24t15 58h138zM466 1581l238 262h211l-268 -262h-181z" />
    <glyph glyph-name="uni1E7A" unicode="&#x1e7a;" horiz-adv-x="1332" 
d="M1204 536q0 -282 -143.5 -420t-395.5 -138q-250 0 -393 138t-143 420v86v94v759h264v-793v-79v-69q0 -178 66.5 -259t205.5 -81q141 0 208 81t67 259v941h264v-939zM371 1610v111h588v-111h-588zM440 1795q-58 0 -101.5 31.5t-43.5 88.5t43.5 88t101.5 31q59 0 102.5 -31
t43.5 -88q0 -58 -43.5 -89t-102.5 -31zM892 1795q-59 0 -102 31.5t-43 88.5t43 88t102 31q58 0 101.5 -31t43.5 -88q0 -58 -43.5 -89t-101.5 -31z" />
    <glyph glyph-name="uni1E7B" unicode="&#x1e7b;" horiz-adv-x="1245" 
d="M514 -20q-113 0 -187.5 38t-117 100t-60 137t-17.5 150v77v81v499h264v-458v-69v-62q0 -71 17 -131.5t62.5 -97.5t128.5 -37q79 0 136 46.5t88.5 117.5t31.5 144l90 -60q0 -97 -30 -182.5t-87 -151.5t-137.5 -103.5t-181.5 -37.5zM860 0v1062h263v-1062h-263zM320 1297
v112h588v-112h-588zM387 1601q-58 0 -101.5 31.5t-43.5 88.5t43.5 88t101.5 31q59 0 102.5 -31t43.5 -88q0 -58 -43.5 -89t-102.5 -31zM839 1601q-59 0 -102 31.5t-43 88.5t43 88t102 31q58 0 101.5 -31t43.5 -88q0 -58 -43.5 -89t-101.5 -31z" />
    <glyph glyph-name="Wgrave" unicode="&#x1e80;" horiz-adv-x="1834" 
d="M297 0l-222 1475h272l170 -1406l-38 2l272 1404h332l271 -1404l-38 -2l170 1406h273l-224 -1475h-404l-228 1284h28l-228 -1284h-406zM1076 1556h-195l-301 198h220z" />
    <glyph glyph-name="wgrave" unicode="&#x1e81;" horiz-adv-x="1605" 
d="M988 0l-247 1062h201l241 -979h-43l154 979h273l-218 -1062h-361zM256 0l-219 1062h273l155 -979h-43l239 979h201l-243 -1062h-363zM950 1209h-182l-267 262h210z" />
    </font>
</defs>
</svg>
